<?xml version="1.0" encoding="UTF-8" standalone="no"?>
<!-- Generator: Adobe Illustrator 15.0.2, SVG Export Plug-In . SVG Version: 6.00 Build 0)  -->

<svg
   xmlns:dc="http://purl.org/dc/elements/1.1/"
   xmlns:cc="http://creativecommons.org/ns#"
   xmlns:rdf="http://www.w3.org/1999/02/22-rdf-syntax-ns#"
   xmlns:svg="http://www.w3.org/2000/svg"
   xmlns="http://www.w3.org/2000/svg"
   xmlns:sodipodi="http://sodipodi.sourceforge.net/DTD/sodipodi-0.dtd"
   xmlns:inkscape="http://www.inkscape.org/namespaces/inkscape"
   version="1.1"
   id="Laag_1"
   x="0px"
   y="0px"
   width="481.89px"
   height="481.89px"
   viewBox="0 0 481.89 481.89"
   enable-background="new 0 0 481.89 481.89"
   xml:space="preserve"
   inkscape:version="0.48.3.1 r9886"
   sodipodi:docname="ID_WAF_Frisbee_VBA.svg"><metadata
   id="metadata5730"><rdf:RDF><cc:Work
       rdf:about=""><dc:format>image/svg+xml</dc:format><dc:type
         rdf:resource="http://purl.org/dc/dcmitype/StillImage" /></cc:Work></rdf:RDF></metadata><defs
   id="defs5728" /><sodipodi:namedview
   pagecolor="#ffffff"
   bordercolor="#666666"
   borderopacity="1"
   objecttolerance="10"
   gridtolerance="10"
   guidetolerance="10"
   inkscape:pageopacity="0"
   inkscape:pageshadow="2"
   inkscape:window-width="640"
   inkscape:window-height="480"
   id="namedview5726"
   showgrid="false" />
<g
   id="g5430">
	<path
   fill="#FFFFFF"
   d="M225.371,20.137c121.987,0,220.876,98.891,220.876,220.877c0,121.988-98.889,220.877-220.876,220.877   c-121.988,0-220.877-98.889-220.877-220.877C4.493,119.028,103.383,20.137,225.371,20.137 M225.371,12.599   c-30.833,0-60.747,6.041-88.912,17.953C109.258,42.057,84.831,58.525,63.856,79.5c-20.975,20.975-37.443,45.401-48.948,72.602   c-11.913,28.165-17.953,58.08-17.953,88.912c0,30.833,6.041,60.747,17.953,88.912c11.505,27.201,27.974,51.628,48.948,72.603   s45.402,37.443,72.603,48.948c28.165,11.912,58.079,17.952,88.912,17.952s60.747-6.04,88.912-17.952   c27.2-11.505,51.627-27.974,72.602-48.948s37.443-45.401,48.948-72.603c11.912-28.165,17.952-58.079,17.952-88.912   c0-30.832-6.04-60.747-17.952-88.911c-11.505-27.201-27.974-51.628-48.948-72.603c-20.975-20.975-45.401-37.444-72.602-48.949   C286.118,18.639,256.204,12.599,225.371,12.599L225.371,12.599z"
   id="path5432" />
</g>






<path
   fill="#FFFFFF"
   d="M473.461,190.992c-25.441-19.534-60.758-33.496-80.95-40.487c3.569-4.484,8.516-9.295,11.867-12.144  l4.736-8.571l-2.237-3.333c-1.731,0.356-3.626,0.747-5.516,1.138c-0.57-1.1-1.938-3.262-1.938-3.262l-9.719,1.742  c-3.311,0.682-31.454,6.822-44.103,19.478c-17.28,4.097-27.635,14.335-34.534,21.261l-3.775,3.691l-0.265,0.242  c-1.747,1.611-3.551,3.265-5.441,4.911L286.85,165.62l0.712,20.16c-4.244,2.368-9.02,4.418-14.568,5.891  c-7.099,1.883-26.072,3.98-48.043,6.407c-29.851,3.299-66.995,7.402-92.758,13.058c-8.737,1.917-16.56,5.565-23.404,10.69  c-4.29,0-86.615,0-86.615,0l2.317,8.846c1.476,5.63,10.623,18.281,62.338,20.209c-5.979,13.91-8.166,27.929-9.304,35.46  l-0.668,4.107c-1.844,9.224-8.565,18.956-8.636,19.055l-0.313,0.449l-0.246,0.504c-3.033,6.236-16.475,34.879-16.475,52.622  c0,2.521,0.27,4.821,0.882,6.808c0.234,0.764,5.882,18.718,16.592,18.718l37.524,0.002l0.271-6.774  c0.017-0.43,0.026-0.854,0.026-1.271c0-9.54-4.39-15.565-9.56-18.861c4.171-8.552,12.16-24.926,13.867-28.425  c7.41-2.98,27.797-12.333,41.242-29.193c7.127-0.022,28.604,3.67,46.265,12.303c0,0,0.155-0.215,0.163-0.224  c15.695,6.187,30.148,7.852,43.134,5.067c0.358,7.7,0.543,19.986,0.543,32.402c0,3.062-0.013,6.129-0.032,9.134l-0.004,0.241  l0.015,0.238c0.707,11.658,5.64,25.271,17.213,25.271h18.069l12.508,0.092h6.695l0.352-6.685c0.018-0.382,0.03-0.761,0.03-1.13  c0-10.347-7.654-16.374-14.391-19.247c0.027-6.672,0.616-13.629,1.722-15.842c6.15-12.3,20.61-50.433,21.223-52.052  c0,0,0.5-1.318,0.974-2.569c2.123-4.161,6.803-13.342,6.803-13.342c5.18-10.407,10.439-18.633,15.485-25.136l15.76,5.828  l-5.394-17.286c3.385-3.153,6.538-5.551,9.336-7.361c13.291-0.346,27.375-2.988,35.281-4.733c0.111,0.25,0.171,0.393,0.175,0.397  l1.806,4.349l4.711,0.01c67.93,0,84.388-32.782,85.054-34.177l2.469-5.157L473.461,190.992z M394.921,219.634  c-0.291-0.578-0.577-1.152-0.928-1.814l-2.306-4.377l-7.435,1.028l-0.327,0.078c-5.001,1.186-22.49,5.064-37.465,5.192l-0.446,0.004  l-2.1,0.285l-1.249,0.754c-15.683,9.464-30.2,26.984-41.986,50.67l-11.619,22.786c0,0,0.723,0.348,0.965,0.465  c-4.389,11.417-13.902,35.829-18.33,44.686c-2.727,5.449-3.229,15.504-3.229,22.198c0,2.303,0.058,4.208,0.109,5.39l0.227,5.468  l5.402,1.148c0.132,0.027,1.354,0.3,2.837,0.896c-0.687-0.003-16.694-0.082-17.359-0.086c-1.448-1.253-3.12-6.937-3.467-11.868  c0.018-2.326,0.035-5.694,0.035-9.67c0-14.606-0.236-36.989-1.618-42.517l-1.955-7.813l-7.487,2.967  c-11.718,4.639-25.744,3.793-41.685-2.518c0,0-0.127,0.188-0.133,0.196c-20.533-9.746-48.259-15.04-57.031-12.533l-2.351,0.671  l-1.432,1.984c-13.374,18.534-38.951,27.623-39.207,27.712l-2.741,0.956l-1.284,2.613L76.285,371.82c0,0,10.037,0.788,10.293,0.809  c1.148,0.122,2.671,0.574,3.872,1.865c-0.603,0-17.868-0.002-20.288-0.002c-1.459-1.666-3.73-5.909-4.605-8.757  c-0.243-0.783-0.355-1.772-0.355-2.938c0-9.274,7.193-29.69,14.945-45.738c1.624-2.422,8.366-12.937,10.547-23.843l0.784-4.767  c1.387-9.194,3.973-26.308,12.704-40.728l6.435-10.631l-12.424-0.078c-9.541-0.061-17.564-0.465-24.379-1.075  c18.542,0,39.783,0,39.783,0l1.953-1.611c5.586-4.605,12.203-7.771,19.668-9.408c25.032-5.496,61.765-9.555,91.281-12.813  c23.463-2.593,41.995-4.641,50.115-6.796c19.242-5.105,30.734-15.682,39.968-24.177l0.265-0.242l4.218-4.118  c6.718-6.74,15.077-15.13,29.589-17.969l2.451-0.479l1.604-1.913c4.446-5.309,15.554-10.082,25.69-13.288  c-2.161,2.886-4.025,5.887-5.103,8.749l-2.604,6.934l7.04,2.301c15.286,4.908,52.118,17.912,79.528,36.989  C452.46,205.364,434.629,218.698,394.921,219.634z"
   id="path5552" />
<g
   id="g5554">
	<path
   fill="#95C11F"
   d="M348.276,157.82c2.553-9.884,22.448-17.391,35.794-21.059c-5.416,5.333-12.681,13.552-13.486,19.943   L348.276,157.82z"
   id="path5556" />
	<path
   fill="#FFFFFF"
   d="M377.462,140.869c-4.736,5.402-7.568,10.003-8.557,13.917l-17.479,0.874   C355.358,149.687,366.775,144.434,377.462,140.869 M391.131,132.984c0,0-45.129,9.314-45.129,26.952l26.561-1.328   C371.305,149.79,391.131,132.984,391.131,132.984L391.131,132.984z"
   id="path5558" />
</g>
<g
   id="g5560">
	<path
   fill="#95C11F"
   d="M68.663,379.549c-2.001,0-6.371-7.235-7.938-12.328c-3.357-10.91,9.636-41.577,15.017-52.669   c0.932-1.356,7.875-11.721,9.998-22.327c0.226-1.131,0.453-2.63,0.74-4.527c1.442-9.544,4.126-27.308,13.378-42.595   c0.373-0.615,0.386-1.384,0.035-2.012c-0.352-0.628-1.013-1.019-1.733-1.023c-42.882-0.275-57.667-7.271-62.592-11.188h75.496   c0.464,0,0.914-0.161,1.272-0.457c6.211-5.118,13.544-8.632,21.798-10.443c25.298-5.554,62.188-9.629,91.828-12.903   c23.244-2.567,41.604-4.596,49.358-6.652c18.041-4.79,28.566-14.479,37.854-23.026l0.25-0.229c1.296-1.191,2.64-2.54,4.062-3.968   c7.204-7.229,16.171-16.226,32.2-19.359c0.449-0.088,0.855-0.327,1.149-0.679c6.941-8.286,24.222-13.924,33.887-16.543   c-3.718,3.966-8.581,9.637-11.318,14.772c-0.284,0.532-0.313,1.166-0.076,1.722c0.235,0.556,0.71,0.976,1.291,1.142   c2.319,0.663,56.51,16.345,91.914,42.843c-3.799,5.719-21.65,27.302-74.754,27.649c-0.46-1.012-1.211-2.593-2.254-4.57   c-0.35-0.663-1.035-1.067-1.769-1.067c-0.091,0-0.183,0.006-0.274,0.019l-2.199,0.304c-0.063,0.009-0.126,0.021-0.188,0.035   c-6.583,1.559-23.522,5.198-38.589,5.33c-0.083,0.001-0.167,0.007-0.249,0.018l-0.21,0.028c-0.271,0.037-0.532,0.129-0.767,0.27   c-14.859,8.966-28.716,25.77-40.071,48.594c-13.219,26.562-25.267,47.895-35.808,63.406c-0.269,0.396-0.484,0.713-0.646,0.957   c-2.361,3.542-4.149,23.169-4.641,29.101c-0.09,1.088,0.708,2.047,1.794,2.155c6.968,0.696,8.825,6.861,9.319,10.133h-15.897   c-5.799,0-7.885-12.291-8.17-16.698c0.02-2.629,0.288-44.311-1.43-51.184c-0.14-0.559-0.514-1.03-1.026-1.294   c-0.286-0.146-0.6-0.221-0.914-0.221c-0.249,0-0.499,0.047-0.736,0.141c-5.542,2.194-11.579,3.308-17.944,3.308   c-28.383,0-56.513-21.592-65.756-28.687c-2.984-2.291-3.368-2.585-4.253-2.585c-0.628,0-1.25,0.307-1.628,0.809   c-19.95,26.465-43.12,32.006-54.254,34.669c-5.059,1.21-7.598,1.817-8.212,3.968c-0.717,2.511-12.083,24.869-22.342,44.581   c-0.322,0.619-0.298,1.363,0.064,1.961c0.363,0.597,1.011,0.962,1.71,0.962c8.701,0,11.095,6.825,11.751,10.361H68.663z"
   id="path5562" />
	<path
   fill="#FFFFFF"
   d="M378.616,140.498c-2.625,3.152-5.22,6.652-6.979,9.953c-0.567,1.066-0.624,2.332-0.152,3.444   c0.473,1.112,1.422,1.951,2.583,2.283c2.271,0.649,54.584,15.788,89.705,41.369c-2.022,2.659-5.932,6.916-12.621,11.144   c-9.872,6.239-27.896,13.645-58.105,14.044c-0.451-0.946-1.035-2.129-1.754-3.491c-0.698-1.324-2.068-2.134-3.537-2.134   c-0.182,0-0.364,0.013-0.548,0.038l-2.199,0.304c-0.126,0.017-0.251,0.04-0.375,0.069c-6.518,1.543-23.282,5.146-38.146,5.276   c-0.167,0.002-0.334,0.014-0.499,0.036l-0.21,0.028c-0.542,0.073-1.063,0.256-1.532,0.539   c-15.186,9.162-29.304,26.25-40.828,49.414c-13.179,26.481-25.181,47.735-35.672,63.174c-0.273,0.401-0.492,0.725-0.656,0.971   c-2.464,3.696-4.171,20.411-4.97,30.046c-0.181,2.175,1.416,4.093,3.588,4.311c4.304,0.43,6.202,3.483,7.039,6.143h-13.418   c-3.353,0-5.762-8.682-6.169-14.757c0.037-5.19,0.259-44.611-1.49-51.609c-0.279-1.118-1.028-2.062-2.054-2.589   c-0.571-0.293-1.198-0.441-1.827-0.441c-0.499,0-0.999,0.093-1.473,0.281c-5.307,2.102-11.097,3.167-17.208,3.167   c-27.703,0-55.428-21.28-64.538-28.273c-3.233-2.481-3.906-2.998-5.471-2.998c-1.255,0-2.469,0.602-3.225,1.604   c-19.518,25.892-42.215,31.32-53.123,33.929c-5.447,1.303-8.735,2.089-9.666,5.348c-0.816,2.597-11.784,24.213-22.197,44.223   c-0.645,1.24-0.596,2.728,0.129,3.922c0.725,1.195,2.021,1.925,3.419,1.925c3.999,0,6.76,1.563,8.44,4.778   c0.276,0.528,0.504,1.063,0.691,1.583h-14.6c-1.665-0.98-5.074-6.825-6.333-10.917c-2.806-9.117,7.561-36.038,14.84-51.075   c1.261-1.854,8.085-12.252,10.224-22.94c0.235-1.177,0.465-2.696,0.756-4.62c1.421-9.405,4.066-26.912,13.112-41.857   c0.745-1.231,0.771-2.769,0.069-4.024s-2.026-2.037-3.465-2.047c-30.803-0.197-46.753-3.866-54.902-7.188h67.793   c0.928,0,1.828-0.323,2.544-0.913c5.964-4.915,13.014-8.291,20.955-10.033c25.194-5.531,62.024-9.601,91.618-12.869   c23.328-2.577,41.755-4.612,49.653-6.708c18.518-4.917,29.705-15.214,38.694-23.487l0.249-0.229   c1.328-1.222,2.687-2.585,4.125-4.028c7.012-7.036,15.738-15.792,31.167-18.809c0.899-0.176,1.71-0.655,2.299-1.357   C357.368,148.477,368.837,143.647,378.616,140.498 M391.131,132.984c0,0-31.439,6.49-41.831,18.895   c-19.938,3.898-29.613,16.811-37.232,23.818c-9.042,8.321-19.536,18.088-37.262,22.794c-17.729,4.703-96.601,9.766-141.103,19.536   c-9.187,2.016-16.617,5.889-22.641,10.854H31.315c0,0,3.875,14.783,66.831,15.188c-11.307,18.682-13.042,41.131-14.368,47.765   c-2.171,10.854-9.769,21.708-9.769,21.708s-19.538,40.16-15.196,54.269c1.274,4.141,5.985,13.74,9.85,13.74   c9.039,0,16.704,0,19.771,0c0,0-0.351-14.361-13.997-14.361c1.744-3.352,21.412-41.176,22.49-44.954   c1.13-3.955,34.607-1.458,62.142-37.983c0.006-0.008,0.017-0.012,0.03-0.012c1.276,0,35.37,31.271,70.009,31.271   c6.274,0,12.562-1.025,18.681-3.448c1.694,6.779,1.37,50.754,1.37,50.754s1.13,18.643,10.17,18.643c9.036,0,18.077,0,18.077,0   s0-12.993-11.3-14.123c0,0,2.053-24.769,4.312-28.157c2.259-3.391,15.08-21.378,36.581-64.581   c11.945-24.01,25.862-39.655,39.313-47.771l0.21-0.028c15.448-0.135,32.887-3.929,39.032-5.384l2.199-0.304   c1.808,3.428,2.72,5.642,2.72,5.642c64.263,0,78.692-30.165,78.692-30.165c-35.505-27.263-90.344-43.209-93.999-44.254   C379.813,143.616,391.131,132.984,391.131,132.984L391.131,132.984z"
   id="path5564" />
</g>
<g
   id="g5566">
	<path
   d="M323.505,248.401c-0.29-0.17-29.102-17.44-33.226-56.499l-0.087-0.823l15.423-10.975l0.021,2.722   c0.003,0.347,0.614,34.829,29.652,51.555l1.562,0.899l-1.241,1.306c-3.588,3.772-9.519,10.175-10.158,11.295l-0.71,1.243   L323.505,248.401z"
   id="path5568" />
	<path
   fill="#FFFFFF"
   d="M304.22,182.836c0,0,0.241,35.423,30.362,52.772c0,0-9.398,9.882-10.361,11.568   c0,0-28.436-16.627-32.532-55.424L304.22,182.836 M307.004,177.379l-4.428,3.147l-12.531,8.917l-1.35,0.96l0.174,1.647   c2.192,20.758,11.247,35.272,18.458,43.794c7.845,9.271,15.155,13.6,15.463,13.779l2.473,1.445l1.42-2.487   c0.626-0.997,5.657-6.503,9.953-11.021l2.483-2.61l-3.122-1.799c-11.829-6.813-20.291-17.306-25.15-31.184   c-3.671-10.485-3.792-19.07-3.792-19.155L307.004,177.379L307.004,177.379z"
   id="path5570" />
</g>
<g
   id="g5572">
	<path
   d="M372.706,218.373c-23.544,0-34.604-4.87-35.063-5.077l-0.878-0.396c-0.654-0.296-0.984-1.033-0.769-1.718l0.289-0.918   c7.691-24.485,26.96-24.769,27.153-24.769c0.78,0,1.413,0.63,1.417,1.41l0.011,2.17c0.004,0.78-0.624,1.417-1.404,1.424   c-0.611,0.006-14.721,0.347-21.63,19.004c5.087,1.668,15.028,3.988,30.944,3.988c3.558,0,7.279-0.119,11.061-0.356   c0.03-0.001,0.06-0.002,0.09-0.002c0.63,0,1.19,0.419,1.363,1.032l0.571,2.025c0.116,0.412,0.04,0.854-0.208,1.204   s-0.64,0.568-1.067,0.596C380.525,218.244,376.527,218.373,372.706,218.373L372.706,218.373z"
   id="path5574" />
	<path
   fill="#FFFFFF"
   d="M363.439,186.912l0.011,2.17c-0.676,0.006-16.394,0.38-23.429,21.295   c3.041,1.105,13.491,4.532,32.756,4.532c3.434,0,7.146-0.109,11.149-0.359l0.571,2.025c-4.238,0.266-8.169,0.381-11.792,0.381   c-23.206,0-33.967-4.721-34.479-4.952l-0.878-0.396l0.289-0.918C345,187.252,363.255,186.912,363.439,186.912 M363.439,184.077   c-0.204,0-20.506,0.295-28.506,25.763l-0.289,0.916c-0.431,1.369,0.229,2.845,1.537,3.435l0.878,0.396   c1.181,0.533,12.203,5.204,35.646,5.204c3.852,0,7.878-0.13,11.97-0.387c0.854-0.054,1.64-0.491,2.135-1.189   c0.495-0.699,0.648-1.585,0.416-2.409l-0.571-2.025c-0.347-1.228-1.466-2.065-2.727-2.065c-0.06,0-0.119,0.002-0.179,0.006   c-3.752,0.234-7.444,0.354-10.973,0.354c-14.35,0-23.745-1.897-29.071-3.473c6.728-16.373,19.214-16.681,19.769-16.685   c1.562-0.014,2.818-1.287,2.811-2.849l-0.011-2.17C366.266,185.337,364.999,184.077,363.439,184.077L363.439,184.077z"
   id="path5576" />
</g>
<g
   id="g5578">
	<path
   d="M386.712,222.875c-0.508,0-0.999-0.274-1.254-0.755c-4.265-8.052-13.539-22.817-27.736-31.249   c-0.465-0.276-0.732-0.793-0.689-1.331c0.043-0.539,0.389-1.007,0.892-1.206l2.388-0.944c0.168-0.066,0.345-0.099,0.521-0.099   c0.252,0,0.502,0.066,0.724,0.198c14.676,8.717,23.194,22.603,28.325,32.289c0.176,0.332,0.212,0.721,0.102,1.08   s-0.359,0.659-0.691,0.836l-1.918,1.016C387.164,222.821,386.936,222.875,386.712,222.875L386.712,222.875z"
   id="path5580" />
	<path
   fill="#FFFFFF"
   d="M360.833,188.708c14.948,8.879,23.354,23.349,27.796,31.733l-1.918,1.016   c-4.335-8.184-13.772-23.197-28.266-31.805L360.833,188.708 M360.833,185.873c-0.353,0-0.706,0.066-1.043,0.199l-2.388,0.944   c-1.005,0.397-1.696,1.332-1.783,2.41c-0.086,1.078,0.449,2.11,1.379,2.663c13.898,8.254,23.013,22.773,27.208,30.694   c0.509,0.96,1.491,1.508,2.507,1.508c0.448,0,0.901-0.105,1.324-0.33l1.918-1.016c0.665-0.352,1.162-0.953,1.383-1.672   c0.222-0.719,0.147-1.495-0.204-2.16c-5.211-9.837-13.871-23.944-28.854-32.844C361.837,186.006,361.336,185.873,360.833,185.873   L360.833,185.873z"
   id="path5582" />
</g>
<g
   id="g5584">
	<path
   fill="#FFFFFF"
   d="M319.661,247.821c-2.464-9.297-1.964-10-1.208-11.065c0.873-1.237,2.704-2.568,5.212-2.568   c0.803,0,1.629,0.138,2.454,0.408c2.123,0.698,3.736,2.161,4.43,4.015c0.486,1.299,0.429,2.56-0.162,3.551   c-0.127,0.217-0.38,0.646-5.522,6.813l-3.717,4.458L319.661,247.821z"
   id="path5586" />
	<path
   fill="#FFFFFF"
   d="M323.665,237.187c0.454,0,0.96,0.075,1.519,0.259c2.402,0.79,2.891,2.735,2.626,3.18   c-0.264,0.448-5.249,6.427-5.249,6.427s-2.104-7.938-1.661-8.561C321.238,238.011,322.165,237.187,323.665,237.187    M323.665,231.187c-3.104,0-5.971,1.438-7.669,3.847c-1.711,2.409-1.584,4.692,0.765,13.556l2.974,11.221l7.435-8.915   c5.3-6.355,5.537-6.76,5.813-7.228c1.033-1.734,1.177-3.972,0.378-6.108c-1.015-2.711-3.311-4.829-6.302-5.813   C325.926,231.375,324.786,231.187,323.665,231.187L323.665,231.187z"
   id="path5588" />
</g>
<g
   id="g5590">
	<path
   fill="#FFFFFF"
   d="M307.008,235.733c1.745-10.407,2.51-10.755,3.897-11.384c0.808-0.369,1.704-0.446,2.313-0.446   c2.221,0,4.355,0.974,5.857,2.671c1.922,2.174,2.311,4.64,2.034,6.223c-0.285,1.63-1.242,2.373-1.787,2.672   c-0.144,0.08-0.576,0.321-8.191,3.525l-5.023,2.114L307.008,235.733z"
   id="path5592" />
	<path
   fill="#FFFFFF"
   d="M313.218,226.903c1.021,0,2.466,0.364,3.611,1.659c1.674,1.894,1.508,4.025,1.053,4.274   c-0.452,0.252-7.915,3.393-7.915,3.393s1.48-8.832,2.178-9.148C312.365,226.981,312.747,226.903,313.218,226.903 M313.218,220.903   c-0.905,0-2.259,0.124-3.562,0.718c-3.174,1.44-4.002,4.042-5.606,13.616l-1.803,10.75l10.047-4.228   c7.768-3.269,8.196-3.508,8.509-3.682c1.718-0.939,2.891-2.64,3.262-4.765c0.507-2.896-0.543-6.24-2.74-8.725   C319.251,222.245,316.297,220.903,313.218,220.903L313.218,220.903z"
   id="path5594" />
</g>
<g
   id="g5596">
	<path
   fill="#FFFFFF"
   d="M300.818,212.416l-0.131-0.01c-0.603-0.051-1.064-0.089-8.851-3.705l-4.215-1.958l3.52-3.035   c6.457-5.567,7.463-5.567,8.436-5.567h0.241l0.268,0.04c1.996,0.326,5.041,2.521,5.573,6.382c0.377,2.728-0.69,5.078-1.815,6.368   c-1.069,1.228-2.172,1.485-2.909,1.485H300.818z"
   id="path5598" />
	<path
   fill="#FFFFFF"
   d="M299.577,201.14c0.01,0,0.021,0,0.029,0.002c0.754,0.123,2.735,1.324,3.081,3.83   c0.343,2.479-1.221,4.443-1.753,4.443c-0.005,0-0.011-0.001-0.016-0.001c-0.516-0.043-7.818-3.435-7.818-3.435   S298.713,201.14,299.577,201.14 M299.577,195.14c-2.15,0-3.784,0.596-10.395,6.296l-7.04,6.07l8.431,3.915   c8.27,3.841,8.731,3.88,9.848,3.973l0.248,0.021l0.266,0.001c1.113,0,3.266-0.327,5.171-2.515c2.019-2.315,2.962-5.586,2.525-8.749   c-0.698-5.061-4.673-8.379-8.058-8.932l-0.48-0.078L299.577,195.14L299.577,195.14z"
   id="path5600" />
</g>
<g
   id="g5602">
	<path
   fill="#FFFFFF"
   d="M296.468,199.185c-0.503,0-0.979-0.101-1.413-0.299c-0.629-0.283-1.055-0.476-6.577-6.813l-3.348-3.841   l4.983-1.063c1.372-0.293,5.996-1.249,7.86-1.249c0.473,0,1.183,0.045,1.886,0.433c2.552,1.41,3.692,4.073,3.049,7.124   C302.134,197.152,298.609,199.185,296.468,199.185L296.468,199.185z"
   id="path5604" />
	<path
   fill="#FFFFFF"
   d="M297.974,188.92c0.21,0,0.36,0.018,0.435,0.059c0.67,0.37,2.086,1.406,1.564,3.879   c-0.478,2.264-2.76,3.327-3.505,3.327c-0.069,0-0.125-0.009-0.165-0.027c-0.473-0.213-5.563-6.055-5.563-6.055   S296.282,188.92,297.974,188.92 M297.974,182.92c-2.023,0-6.187,0.823-8.487,1.314l-9.965,2.128l6.694,7.683   c5.953,6.831,6.408,7.036,7.623,7.583c0.797,0.364,1.692,0.557,2.629,0.557c3.689,0,8.323-3.093,9.376-8.09   c0.916-4.344-0.821-8.316-4.534-10.368C300.328,183.184,299.236,182.92,297.974,182.92L297.974,182.92z"
   id="path5606" />
</g>
<g
   id="g5608">
	<path
   fill="#FFFFFF"
   d="M295.153,225.408l2.217-4.358c4.455-8.765,5.303-8.904,6.706-9.138c0.205-0.034,0.454-0.058,0.736-0.058   c2.204,0,5.095,1.334,6.583,4.313c1.295,2.587,0.933,5.296,0.229,6.828c-0.681,1.482-1.7,2.013-2.436,2.197   c-0.408,0.104-0.845,0.216-9.124,0.216L295.153,225.408z"
   id="path5610" />
	<path
   fill="#FFFFFF"
   d="M304.812,214.854c0.917,0,2.874,0.603,3.899,2.654c1.132,2.261,0.251,4.648-0.252,4.774   c-0.486,0.124-7.955,0.126-8.396,0.126c-0.014,0-0.021,0-0.021,0s3.769-7.412,4.522-7.537   C304.635,214.86,304.718,214.854,304.812,214.854 M304.812,208.854c-0.423,0-0.839,0.033-1.236,0.1   c-3.107,0.516-4.603,2.321-8.881,10.735l-4.433,8.72h9.781c8.677,0,9.111-0.111,9.9-0.313c1.097-0.274,3.167-1.149,4.406-3.848   c1.028-2.239,1.496-5.891-0.273-9.427C312.017,210.701,307.939,208.854,304.812,208.854L304.812,208.854z"
   id="path5612" />
</g>
<g
   id="g5614">
	<path
   d="M393.112,224.87c-0.488,0-0.942-0.251-1.202-0.666l-2.712-4.34c-0.258-0.413-0.286-0.929-0.074-1.367   s0.634-0.737,1.117-0.792c0.389-0.044,38.903-4.577,45.643-20.427c2.156-5.072,0.718-10.948-4.277-17.463   c-0.401-0.523-0.389-1.256,0.032-1.765c0.276-0.335,0.681-0.515,1.094-0.515c0.214,0,0.431,0.048,0.633,0.149   c3.297,1.648,19.829,9.957,21.533,11.663c0.526,0.527,0.554,1.373,0.064,1.935c-1.301,1.492-2.983,4.302-2.466,5.593   c0.667,1.666,4.341,4.47,6.5,5.846c0.346,0.221,0.579,0.58,0.64,0.985s-0.057,0.817-0.323,1.13   c-0.659,0.772-16.717,18.946-66.17,20.033C393.132,224.87,393.122,224.87,393.112,224.87L393.112,224.87z"
   id="path5616" />
	<path
   fill="#FFFFFF"
   d="M432.731,178.953c0,0,19.536,9.768,21.164,11.397c0,0-3.801,4.342-2.714,7.053   c1.086,2.715,7.054,6.514,7.054,6.514s-15.736,18.451-65.123,19.536l-2.712-4.34C390.4,219.113,457.694,211.514,432.731,178.953    M432.732,176.118c-0.825,0-1.634,0.36-2.187,1.03c-0.841,1.018-0.867,2.481-0.064,3.529c4.728,6.166,6.067,11.415,4.098,16.048   c-5.332,12.535-33.928,18.378-44.497,19.571c-0.967,0.109-1.811,0.707-2.234,1.584c-0.423,0.876-0.367,1.909,0.148,2.734   l2.712,4.34c0.52,0.83,1.429,1.333,2.404,1.333c0.021,0,0.041-0.001,0.063-0.001c50.081-1.101,66.541-19.738,67.218-20.53   c0.532-0.625,0.768-1.449,0.646-2.261c-0.122-0.811-0.59-1.53-1.281-1.971c-2.46-1.568-5.507-4.08-5.944-5.175   c-0.117-0.636,0.995-2.739,2.215-4.133c0.982-1.123,0.927-2.814-0.127-3.87c-1.7-1.702-14.452-8.205-21.902-11.93   C433.594,176.215,433.162,176.118,432.732,176.118L432.732,176.118z"
   id="path5618" />
</g>
<g
   id="g5620">
	<path
   d="M345.694,229.347c-16.807,0-26.4-4.421-28.516-13.142c-5.538-22.847,13.735-39.743,13.931-39.911   c0.258-0.223,0.586-0.343,0.924-0.343c0.035,0,0.071,0.001,0.107,0.004c0.375,0.028,0.724,0.205,0.969,0.49l1.473,1.717   c0.508,0.593,0.441,1.485-0.15,1.996c-0.17,0.147-17.083,15.117-12.302,34.846c1.488,6.135,9.481,9.246,23.758,9.246   c0,0,0.41-0.001,0.412-0.001c0.779,0,1.412,0.629,1.417,1.408l0.014,2.262c0.003,0.376-0.145,0.738-0.409,1.006   s-0.625,0.419-1.001,0.42L345.694,229.347z"
   id="path5622" />
	<path
   fill="#FFFFFF"
   d="M332.033,177.369l1.473,1.717c-0.178,0.153-17.769,15.562-12.753,36.253   c1.67,6.887,10.162,10.329,25.135,10.329c0.138,0,0.273,0,0.412-0.001l0.014,2.262c-0.206,0.001-0.415,0.002-0.619,0.002   c-16.07,0-25.197-4.056-27.139-12.059C313.208,193.814,331.844,177.531,332.033,177.369 M332.033,174.534   c-0.676,0-1.332,0.242-1.849,0.686c-0.202,0.174-20.124,17.641-14.384,41.32c2.29,9.439,12.348,14.226,29.894,14.226l0.633-0.002   c0.752-0.004,1.473-0.307,2.002-0.842c0.528-0.534,0.823-1.258,0.819-2.011l-0.014-2.262c-0.01-1.559-1.276-2.817-2.835-2.817   c-0.004,0-0.008,0-0.012,0l-0.4,0.001c-9.307,0-20.744-1.416-22.38-8.162c-4.565-18.836,11.691-33.301,11.856-33.444   c1.172-1.023,1.306-2.806,0.293-3.986l-1.473-1.717c-0.49-0.571-1.187-0.924-1.937-0.98   C332.175,174.537,332.104,174.534,332.033,174.534L332.033,174.534z"
   id="path5624" />
</g>
<path
   fill="#FFFFFF"
   d="M384.43,215.492c0,0-35.293,1.172-45.758-4.478c0,0,5.222-19.1,20.915-22.586  C359.587,188.428,379.383,203.457,384.43,215.492z"
   id="path5626" />
<path
   fill="none"
   stroke="#000000"
   stroke-width="2.2615"
   d="M372.563,158.608c-1.258-8.818,18.568-25.624,18.568-25.624  s-45.129,9.314-45.129,26.952"
   id="path5628" />
<g
   id="g5630">
	<path
   d="M344.872,161.353c-0.783,0-1.417-0.634-1.417-1.417c0-19.168,42.335-28.452,47.162-29.447   c0.096-0.021,0.191-0.029,0.286-0.029c0.534,0,1.033,0.302,1.274,0.796l0.96,1.97c0.283,0.582,0.137,1.283-0.357,1.702   c-7.787,6.603-18.425,18.203-17.694,23.321c0.11,0.775-0.429,1.493-1.203,1.604l-2.238,0.319c-0.068,0.01-0.136,0.015-0.202,0.015   c-0.694,0-1.3-0.511-1.401-1.218c-0.859-6.021,5.43-14.218,12.13-21.058c-12.036,3.5-33.62,11.279-33.62,22.025   c0,0.783-0.634,1.417-1.417,1.417H344.872z"
   id="path5632" />
	<path
   fill="#FFFFFF"
   d="M390.903,131.876l0.96,1.97c-5.382,4.563-19.14,17.879-18.181,24.603l-2.238,0.319   c-1.009-7.07,9.919-18.321,15.634-23.664c-11.104,2.816-39.944,11.426-39.944,24.832h-2.262   C344.872,141.588,389.023,132.264,390.903,131.876 M390.904,129.042c-0.19,0-0.382,0.02-0.573,0.059   c-4.943,1.02-48.294,10.546-48.294,30.836c0,1.565,1.27,2.835,2.835,2.835h2.262c1.565,0,2.835-1.27,2.835-2.835   c0-7.496,12.932-14.346,27.597-19.136c-5.41,6.189-9.697,12.973-8.928,18.368c0.202,1.414,1.415,2.435,2.803,2.435   c0.134,0,0.269-0.01,0.404-0.028l2.238-0.319c1.55-0.222,2.627-1.657,2.406-3.207c-0.567-3.975,8.439-14.605,17.207-22.04   c0.988-0.838,1.283-2.239,0.715-3.404l-0.96-1.97C392.969,129.646,391.97,129.042,390.904,129.042L390.904,129.042z"
   id="path5634" />
</g>
<path
   fill="none"
   stroke="#000000"
   stroke-width="2.1708"
   d="M363.443,187.997c0,0-17.561,0.067-24.771,23.018  c0,0,14.281,6.448,45.758,4.478"
   id="path5636" />
<path
   fill="none"
   stroke="#000000"
   stroke-width="2.2615"
   stroke-linejoin="round"
   d="M332.769,178.227  c0,0-18.36,15.739-13.115,37.378c2.12,8.74,13.654,11.275,26.652,11.192"
   id="path5638" />
<path
   fill="none"
   stroke="#000000"
   stroke-width="2.1708"
   d="M362.541,191.435c0,0-15.444,13.184-16.1,21.706"
   id="path5640" />
<path
   fill="none"
   stroke="#000000"
   stroke-width="2.1708"
   d="M350.057,213.865c0,0,13.774-15.082,20.986-15.736"
   id="path5642" />
<path
   fill="none"
   stroke="#000000"
   stroke-width="2.1708"
   d="M373.395,200.66c0,0-7.033,6.785-10.313,14.653"
   id="path5644" />
<path
   fill="none"
   stroke="#000000"
   stroke-width="2.1708"
   d="M367.967,215.492c0,0,4.545-5.562,11.759-6.873"
   id="path5646" />
<path
   d="M458.132,188.844c-1.924,2.367-5.329,7.119-3.396,9.054c1.493,1.494,5.611,4.02,8.887,5.923  c4.072-4.171,5.543-7.234,5.543-7.234C465.66,193.898,461.957,191.316,458.132,188.844z"
   id="path5648" />
<path
   fill="none"
   d="M159.069,284.25c-0.056,0.076-0.114,0.146-0.174,0.222c0.209-0.003,0.416-0.016,0.629-0.015  C159.258,284.286,159.103,284.208,159.069,284.25z"
   id="path5650" />
<path
   stroke="#000000"
   stroke-width="2.1708"
   d="M266.106,367.335c4.911,0.49,7.688,3.225,9.256,6.158  c1.31,1.931,2.179,4.537,2.044,8.056h12.5c0.627-11.9-14.281-14.866-14.281-14.866s-0.751-17.874,2.381-24.137  c6.061-12.119,20.933-51.395,20.933-51.395s-0.382,0.463-1.057,1.278c-16.001,30.447-25.546,43.868-27.464,46.748  C268.159,342.567,266.106,367.335,266.106,367.335z"
   id="path5652" />
<path
   stroke="#000000"
   stroke-width="1.0854"
   d="M87.727,381.549h0.082C87.783,381.549,87.752,381.549,87.727,381.549  L87.727,381.549z"
   id="path5654" />
<path
   stroke="#000000"
   stroke-width="2.1708"
   d="M158.895,284.472c-27.503,36.287-60.841,33.814-61.968,37.762  c-1.079,3.778-20.746,41.603-22.49,44.954c13.646,0,13.997,14.361,13.997,14.361h10.972c0.597-15.108-12.238-15.95-12.238-15.95  l18.501-37.917c0,0,27.704-9.593,42.613-30.248c6.403-1.83,34.444,3.109,54.218,12.773c0,0-1.281-0.349-1.587-0.657  c-21.379-8.462-38.432-23.143-41.389-25.093C159.311,284.457,159.104,284.469,158.895,284.472z"
   id="path5656" />
<path
   fill="none"
   stroke="#000000"
   stroke-width="2.1708"
   d="M387.67,220.949c-4.392-8.29-13.95-23.488-28.67-32.23"
   id="path5658" />
<g
   id="g5660">
	<path
   d="M229.299,312.892c-13.803,0.001-36.815-5.268-68.063-30.372c-0.533-0.428-0.685-1.175-0.36-1.777   c0.253-0.469,0.738-0.745,1.248-0.745c0.145,0,0.291,0.022,0.435,0.069c0.308,0.099,31.003,9.916,52.036,9.917   c0.001,0,0.004,0,0.005,0c11.402,0,17.674-2.812,18.645-8.357c0.105-0.601,0.583-1.066,1.186-1.157   c0.07-0.011,0.142-0.016,0.212-0.016c0.525,0,1.017,0.293,1.262,0.772l13.025,25.504c0.327,0.642,0.121,1.428-0.479,1.826   C248.182,308.733,241.762,312.892,229.299,312.892L229.299,312.892z"
   id="path5662" />
	<path
   fill="#FFFFFF"
   d="M162.125,281.416c0,0,30.964,9.986,52.47,9.986c10.536,0,18.798-2.395,20.047-9.531l13.025,25.504   c0,0-6.188,4.101-18.367,4.101C215.032,311.475,192.539,305.85,162.125,281.416 M162.125,278.581c-1.02,0-1.99,0.553-2.495,1.49   c-0.648,1.203-0.346,2.698,0.72,3.555c31.567,25.36,54.919,30.685,68.95,30.685c12.886,0,19.651-4.386,19.933-4.572   c1.202-0.797,1.615-2.368,0.959-3.652l-13.025-25.504c-0.489-0.958-1.471-1.546-2.523-1.546c-0.14,0-0.281,0.011-0.423,0.032   c-1.206,0.182-2.16,1.113-2.37,2.313c-0.835,4.769-6.64,7.186-17.255,7.186c-20.804,0-51.294-9.751-51.6-9.85   C162.707,278.625,162.414,278.581,162.125,278.581L162.125,278.581z"
   id="path5664" />
</g>
<path
   fill="#FFFFFF"
   d="M459.379,191.062l6.513,4.113c0,0-8.914,0.801-8.341-1.028C458.122,192.32,459.379,191.062,459.379,191.062z  "
   id="path5666" />
<path
   fill="#243B67"
   stroke="#000000"
   stroke-width="2.2615"
   d="M317.632,137.978"
   id="path5668" />
<g
   id="g5670">
	<path
   fill="#FFFFFF"
   d="M298.197,191.36c-1.36,0-2.717-0.681-3.088-1.55c-0.081-0.187-0.281-0.644-0.872-8.486l-0.181-2.403   l1.964,1.397c6.113,4.349,6.357,5.072,6.475,5.42l0.063,0.173c0.301,0.795,1.003,2.656-1.565,4.503   C300.131,191.033,299.165,191.36,298.197,191.36L298.197,191.36z"
   id="path5672" />
	<path
   d="M295.365,181.239c0,0,5.814,4.137,6.059,4.86c0.247,0.725,0.962,1.921-1.091,3.396c-0.756,0.543-1.494,0.733-2.135,0.733   c-1.104,0-1.92-0.563-2.049-0.863C295.941,188.89,295.365,181.239,295.365,181.239 M292.748,176.601l0.362,4.808   c0.604,8.035,0.797,8.475,0.967,8.863c0.546,1.278,2.282,2.219,4.121,2.219c1.205,0,2.4-0.4,3.455-1.159   c3.272-2.353,2.287-4.963,1.964-5.82l-0.053-0.142c-0.222-0.658-0.477-1.412-6.888-5.974L292.748,176.601L292.748,176.601z"
   id="path5674" />
</g>
<g
   id="g5676">
	<path
   d="M387.131,177.833c-0.347,0-0.682-0.127-0.941-0.357c-1.454-1.285-5.872-4.616-8.83-4.616c-0.783,0-1.417-0.634-1.417-1.417   v-2.17c0-0.783,0.634-1.417,1.417-1.417c0.782,0,1.617,0.112,2.497,0.335c0.182-1.087,0.546-2.17,0.886-3.022   c-0.652-0.364-1.301-0.663-1.963-0.903c-0.354-0.129-0.641-0.392-0.8-0.732s-0.177-0.731-0.048-1.084l0.742-2.039   c0.21-0.576,0.753-0.934,1.332-0.934c0.161,0,0.324,0.028,0.484,0.086c5.461,1.986,9.056,6.313,11.435,9.175   c0.633,0.761,1.146,1.378,1.542,1.774c0.062,0.062,0.396,0.224,1.181,0.224c1.27,0,2.895-0.408,3.866-0.787   c0.165-0.064,0.34-0.097,0.515-0.097c0.194,0,0.389,0.04,0.569,0.119c0.345,0.151,0.614,0.433,0.751,0.783l0.789,2.023   c0.137,0.351,0.129,0.74-0.022,1.085s-0.434,0.614-0.784,0.751c-0.487,0.189-3.049,1.134-5.635,1.134   c-2.037,0-3.643-0.57-4.77-1.696c-0.1-0.1-0.202-0.207-0.306-0.319c-0.037,0-0.075-0.001-0.113-0.002   c0.003,0.003,0.006,0.005,0.007,0.006c0.584,0.521,0.637,1.415,0.117,2l-1.441,1.623c-0.25,0.281-0.603,0.452-0.979,0.474   C387.185,177.833,387.159,177.833,387.131,177.833L387.131,177.833z"
   id="path5678" />
	<path
   fill="#FFFFFF"
   d="M380.006,160.893c5.101,1.855,8.548,6.004,10.829,8.749c0.633,0.761,1.179,1.419,1.63,1.87   c0.468,0.467,1.272,0.639,2.183,0.639c1.539,0,3.377-0.492,4.381-0.884l0.789,2.023c-0.399,0.155-2.769,1.038-5.121,1.038   c-1.402,0-2.798-0.313-3.768-1.282c-0.212-0.212-0.436-0.459-0.667-0.723c-0.708-0.008-3.093-0.052-5.452-0.32   c2.108,1.334,3.638,2.678,3.763,2.789l-1.441,1.623c-0.056-0.05-5.654-4.974-9.771-4.974v-2.17c1.249,0,2.567,0.34,3.844,0.849   c-0.315-1.896,1.02-4.863,1.331-5.52c-1-0.659-2.083-1.237-3.271-1.669L380.006,160.893 M380.006,158.058   c-1.158,0-2.245,0.714-2.664,1.865l-0.742,2.039c-0.257,0.707-0.223,1.486,0.096,2.168c0.317,0.682,0.894,1.209,1.6,1.466   c0.229,0.083,0.457,0.175,0.684,0.273c-0.07,0.218-0.139,0.44-0.201,0.667c-0.485-0.066-0.959-0.1-1.418-0.1   c-1.565,0-2.835,1.27-2.835,2.835v2.17c0,1.565,1.27,2.835,2.835,2.835c2.104,0,5.883,2.492,7.894,4.262   c0.539,0.475,1.211,0.709,1.879,0.709c0.782,0,1.56-0.32,2.118-0.95l1.441-1.623c0.074-0.083,0.143-0.17,0.205-0.259   c1.088,0.497,2.358,0.748,3.8,0.748c2.768,0,5.405-0.942,6.148-1.231c0.701-0.272,1.265-0.813,1.567-1.501s0.319-1.47,0.046-2.171   l-0.789-2.023c-0.272-0.7-0.813-1.264-1.501-1.565c-0.363-0.159-0.751-0.239-1.14-0.239c-0.349,0-0.698,0.064-1.03,0.194   c-0.857,0.334-2.323,0.689-3.351,0.689c-0.173,0-0.297-0.01-0.382-0.021c-0.332-0.361-0.762-0.878-1.213-1.42l-0.038-0.046   c-2.477-2.979-6.219-7.482-12.04-9.601C380.656,158.113,380.329,158.058,380.006,158.058L380.006,158.058z"
   id="path5680" />
</g>
<path
   d="M304.22,182.836c0,0,0.241,35.423,30.362,52.772c0,0-9.398,9.882-10.361,11.568c0,0-28.436-16.627-32.532-55.424  L304.22,182.836z"
   id="path5682" />
<g
   id="g5684">
	<path
   fill="#FFFFFF"
   d="M308.852,236.042c1.58-9.427,2.271-9.74,2.826-9.991c0.394-0.18,0.941-0.279,1.54-0.279   c0.797,0,2.828,0.198,4.458,2.041c1.483,1.678,1.785,3.56,1.592,4.661c-0.143,0.816-0.537,1.187-0.843,1.354   c-0.463,0.258-6.255,2.7-8.02,3.442l-1.894,0.797L308.852,236.042z"
   id="path5686" />
	<path
   d="M313.218,226.903c1.021,0,2.466,0.364,3.611,1.659c1.674,1.894,1.508,4.025,1.053,4.274   c-0.452,0.252-7.915,3.393-7.915,3.393s1.48-8.832,2.178-9.148C312.365,226.981,312.747,226.903,313.218,226.903 M313.218,224.641   c-0.535,0-1.319,0.066-2.011,0.382c-1.077,0.488-1.791,0.813-3.471,10.832l-0.679,4.052l3.786-1.594   c5.028-2.115,7.767-3.294,8.139-3.501c0.509-0.278,1.18-0.884,1.399-2.143c0.247-1.414-0.111-3.629-1.858-5.605   C317.161,225.524,315.227,224.641,313.218,224.641L313.218,224.641z"
   id="path5688" />
</g>
<g
   id="g5690">
	<path
   fill="#FFFFFF"
   d="M300.832,210.542c-0.239-0.02-0.723-0.06-8.208-3.536l-1.589-0.737l1.327-1.145   c5.931-5.114,6.83-5.114,7.215-5.114h0.091l0.119,0.017c1.078,0.176,3.584,1.626,4.021,4.792c0.291,2.108-0.558,3.949-1.373,4.885   c-0.487,0.56-0.992,0.844-1.5,0.844L300.832,210.542z"
   id="path5692" />
	<path
   d="M299.577,201.14c0.01,0,0.021,0,0.029,0.002c0.754,0.123,2.735,1.324,3.081,3.83c0.343,2.479-1.221,4.443-1.753,4.443   c-0.005,0-0.011-0.001-0.016-0.001c-0.516-0.043-7.818-3.435-7.818-3.435S298.713,201.14,299.577,201.14 M299.577,198.878   c-0.76,0-1.704,0-7.953,5.389l-2.653,2.288l3.178,1.476c7.667,3.562,8.132,3.6,8.583,3.638l0.094,0.008h0.109   c0.85,0,1.641-0.414,2.353-1.231c1.018-1.168,1.983-3.3,1.641-5.782c-0.481-3.488-3.188-5.464-4.957-5.753l-0.181-0.029   L299.577,198.878L299.577,198.878z"
   id="path5694" />
</g>
<g
   id="g5696">
	<path
   fill="#FFFFFF"
   d="M298.201,223.539l0.835-1.643c4.027-7.922,4.789-8.048,5.346-8.14c0.121-0.021,0.266-0.033,0.431-0.033   c1.132,0,3.615,0.686,4.911,3.28c0.936,1.868,0.775,3.964,0.202,5.212c-0.298,0.649-0.699,1.041-1.191,1.164   c-0.167,0.043-0.626,0.16-8.67,0.16L298.201,223.539z"
   id="path5698" />
	<path
   d="M304.812,214.854c0.917,0,2.874,0.603,3.899,2.654c1.132,2.261,0.251,4.648-0.252,4.774   c-0.486,0.124-7.955,0.126-8.396,0.126c-0.014,0-0.021,0-0.021,0s3.769-7.412,4.522-7.537   C304.635,214.86,304.718,214.854,304.812,214.854 M304.812,212.592c-0.217,0-0.425,0.017-0.619,0.049   c-1.089,0.181-1.879,0.312-6.165,8.742l-1.671,3.287h3.687c8.207,0,8.651-0.113,8.976-0.196c0.568-0.143,1.375-0.57,1.934-1.786   c0.636-1.385,0.96-3.837-0.219-6.192C309.394,213.814,306.725,212.592,304.812,212.592L304.812,212.592z"
   id="path5700" />
</g>
<g
   id="g5702">
	<path
   fill="#FFFFFF"
   d="M331.818,246.647c-7.011-2.671-7.429-3.31-7.63-3.616l-0.109-0.159c-0.487-0.693-1.629-2.318,0.39-4.748   c0.942-1.134,2.206-1.758,3.559-1.758c0.983,0,1.882,0.34,2.287,0.865c0.125,0.158,0.433,0.55,2.977,7.994l0.779,2.28   L331.818,246.647z"
   id="path5704" />
	<path
   d="M328.027,237.497c0.701,0,1.244,0.234,1.392,0.425c0.32,0.407,2.802,7.669,2.802,7.669s-6.668-2.541-7.087-3.18   c-0.419-0.642-1.412-1.618,0.205-3.564C326.203,237.806,327.219,237.497,328.027,237.497 M328.027,235.235   c-1.694,0-3.267,0.77-4.428,2.166c-2.571,3.095-0.972,5.372-0.446,6.12c0.031,0.045,0.061,0.086,0.087,0.126   c0.387,0.591,0.823,1.255,8.175,4.057l4.504,1.717l-1.559-4.562c-2.605-7.626-2.902-8.003-3.164-8.336   C330.579,235.723,329.389,235.235,328.027,235.235L328.027,235.235z"
   id="path5706" />
</g>
<path
   fill="none"
   stroke="#000000"
   stroke-width="2.2615"
   d="M387.665,136.19"
   id="path5708" />
<path
   fill="none"
   stroke="#000000"
   stroke-width="2.2615"
   d="M387.665,136.19c6.909-2.124,12.148-3.206,12.148-3.206  s-14.501,12.292-17.913,21.367"
   id="path5710" />
<path
   fill="none"
   stroke="#000000"
   stroke-width="2.2615"
   d="M374.275,152.052c4.646-8.717,16.856-19.068,16.856-19.068  s-31.439,6.49-41.831,18.895c-19.938,3.898-29.613,16.811-37.232,23.818c-9.042,8.321-19.536,18.088-37.262,22.794  c-17.729,4.703-96.601,9.766-141.103,19.536c-9.187,2.016-16.617,5.889-22.641,10.854H31.315c0,0,3.875,14.783,66.831,15.188  c-11.307,18.682-13.042,41.131-14.368,47.765c-2.171,10.854-9.769,21.708-9.769,21.708s-19.538,40.16-15.196,54.269  c1.274,4.141,5.985,13.74,9.85,13.74c9.039,0,16.704,0,19.771,0c0,0-0.351-14.361-13.997-14.361  c1.744-3.352,21.412-41.176,22.49-44.954c1.13-3.955,34.607-1.458,62.142-37.983c0.64-0.85,48.442,43.762,88.72,27.812  c1.694,6.779,1.37,50.754,1.37,50.754s1.13,18.643,10.17,18.643c9.036,0,18.077,0,18.077,0s0-12.993-11.3-14.123  c0,0,2.053-24.769,4.312-28.157c2.259-3.391,15.08-21.378,36.581-64.581c11.945-24.01,25.862-39.655,39.313-47.771l0.21-0.028  c15.448-0.135,32.887-3.929,39.032-5.384l2.199-0.304c1.808,3.428,2.72,5.642,2.72,5.642c64.263,0,78.692-30.165,78.692-30.165  C433.661,169.324,377.93,153.097,374.275,152.052z"
   id="path5712" />
<g
   id="g5714">
	<path
   fill="#FFFFFF"
   d="M296.468,197.316c-0.233,0-0.447-0.044-0.636-0.13c-0.237-0.107-0.692-0.312-5.945-6.34l-1.262-1.448   l1.878-0.4c0.579-0.124,5.709-1.208,7.471-1.208c0.435,0,0.728,0.06,0.981,0.199c1.821,1.007,2.596,2.866,2.124,5.103   C300.495,195.865,297.767,197.316,296.468,197.316L296.468,197.316z"
   id="path5716" />
	<path
   d="M297.974,188.92c0.21,0,0.36,0.018,0.435,0.059c0.67,0.37,2.086,1.406,1.564,3.879c-0.478,2.264-2.76,3.327-3.505,3.327   c-0.069,0-0.125-0.009-0.165-0.027c-0.473-0.213-5.563-6.055-5.563-6.055S296.282,188.92,297.974,188.92 M297.974,186.659   c-1.838,0-6.742,1.026-7.706,1.232l-3.757,0.802l2.523,2.896c5.416,6.215,5.844,6.408,6.34,6.632   c0.325,0.148,0.697,0.227,1.094,0.227c1.665,0,4.999-1.712,5.718-5.122c0.572-2.716-0.431-5.08-2.684-6.325   C298.956,186.698,298.399,186.659,297.974,186.659L297.974,186.659z"
   id="path5718" />
</g>
<g
   id="g5720">
	<path
   fill="#FFFFFF"
   d="M321.467,247.342c-2.239-8.45-1.807-9.06-1.49-9.505c0.605-0.859,1.895-1.781,3.688-1.781   c0.604,0,1.234,0.106,1.871,0.315c2.243,0.737,3.028,2.269,3.263,2.894c0.163,0.438,0.379,1.272-0.018,1.939   c-0.268,0.454-3.468,4.313-5.353,6.572l-1.4,1.68L321.467,247.342z"
   id="path5722" />
	<path
   d="M323.665,237.187c0.454,0,0.96,0.075,1.519,0.259c2.402,0.79,2.891,2.735,2.626,3.18c-0.264,0.448-5.249,6.427-5.249,6.427   s-2.104-7.938-1.661-8.561C321.238,238.011,322.165,237.187,323.665,237.187 M323.665,234.925c-2.226,0-3.843,1.169-4.614,2.263   c-0.585,0.825-1.052,1.481,1.323,10.443l1.121,4.229l2.803-3.36c5.104-6.12,5.354-6.547,5.461-6.729   c0.467-0.784,0.504-1.819,0.099-2.903c-0.614-1.643-2.061-2.944-3.968-3.571C325.137,235.05,324.389,234.925,323.665,234.925   L323.665,234.925z"
   id="path5724" />
</g>
</svg>