<?xml version="1.0" encoding="UTF-8" standalone="no"?>
<!-- Created with Inkscape (http://www.inkscape.org/) -->

<svg
   xmlns:dc="http://purl.org/dc/elements/1.1/"
   xmlns:cc="http://creativecommons.org/ns#"
   xmlns:rdf="http://www.w3.org/1999/02/22-rdf-syntax-ns#"
   xmlns:svg="http://www.w3.org/2000/svg"
   xmlns="http://www.w3.org/2000/svg"
   xmlns:xlink="http://www.w3.org/1999/xlink"
   xmlns:sodipodi="http://sodipodi.sourceforge.net/DTD/sodipodi-0.dtd"
   xmlns:inkscape="http://www.inkscape.org/namespaces/inkscape"
   width="310"
   height="310"
   id="svg2"
   version="1.1"
   inkscape:version="0.48.5 r10040"
   inkscape:export-filename="/Users/anton/Desktop/favicon-310.png"
   inkscape:export-xdpi="90"
   inkscape:export-ydpi="90"
   sodipodi:docname="New document 1">
  <defs
     id="defs4">
    <linearGradient
       id="linearGradient5123">
      <stop
         id="stop5131"
         offset="0"
         style="stop-color:#0c9af7;stop-opacity:1;" />
      <stop
         style="stop-color:#ff8e00;stop-opacity:1;"
         offset="1"
         id="stop5127" />
    </linearGradient>
    <linearGradient
       inkscape:collect="always"
       xlink:href="#linearGradient5123"
       id="linearGradient5129"
       x1="-485.71429"
       y1="333.57143"
       x2="-97.142853"
       y2="333.57143"
       gradientUnits="userSpaceOnUse"
       gradientTransform="matrix(0.07256206,0,0,0.07926458,-124.84723,-5.4768963)" />
  </defs>
  <sodipodi:namedview
     id="base"
     pagecolor="#ffffff"
     bordercolor="#666666"
     borderopacity="1.0"
     inkscape:pageopacity="0.0"
     inkscape:pageshadow="2"
     inkscape:zoom="0.7"
     inkscape:cx="-54.928276"
     inkscape:cy="273.20153"
     inkscape:document-units="px"
     inkscape:current-layer="g4046"
     showgrid="false"
     inkscape:snap-page="true"
     inkscape:snap-center="true"
     inkscape:snap-grids="false"
     inkscape:window-width="1440"
     inkscape:window-height="802"
     inkscape:window-x="0"
     inkscape:window-y="0"
     inkscape:window-maximized="1"
     inkscape:snap-global="true"
     inkscape:snap-nodes="true"
     inkscape:snap-bbox="true"
     inkscape:bbox-paths="true"
     showguides="true"
     inkscape:guide-bbox="true">
    <sodipodi:guide
       orientation="0,1"
       position="87.142857,0"
       id="guide5135" />
    <sodipodi:guide
       orientation="0,1"
       position="131.42857,310"
       id="guide5137" />
    <sodipodi:guide
       orientation="0,1"
       position="385.71429,0"
       id="guide5139" />
    <sodipodi:guide
       orientation="0,1"
       position="87.142857,0"
       id="guide5141" />
  </sodipodi:namedview>
  <metadata
     id="metadata7">
    <rdf:RDF>
      <cc:Work
         rdf:about="">
        <dc:format>image/svg+xml</dc:format>
        <dc:type
           rdf:resource="http://purl.org/dc/dcmitype/StillImage" />
        <dc:title></dc:title>
      </cc:Work>
    </rdf:RDF>
  </metadata>
  <g
     inkscape:label="Layer 1"
     inkscape:groupmode="layer"
     id="layer1"
     transform="translate(0,-742.36218)">
    <g
       transform="translate(1960.9866,644.40214)"
       id="layer1-9"
       inkscape:label="Layer 1"
       style="fill:#808000">
      <g
         style="fill:#808000;display:inline"
         transform="matrix(10.994645,0,0,10.994645,-2129.33,-937.90526)"
         id="g4046">
        <rect
           style="fill:url(#linearGradient5129);fill-opacity:1;stroke:none"
           id="rect5121"
           width="28.195545"
           height="28.195545"
           x="-160.09166"
           y="6.8657274"
           rx="3"
           ry="3"
           transform="matrix(0,-1,1,0,0,0)" />
        <rect
           style="fill:#0c9af7;fill-opacity:1;stroke:none"
           id="rect5117"
           width="28.195541"
           height="28.195549"
           x="15.311402"
           y="94.215439"
           rx="4"
           ry="4" />
        <path
           style="fill:#ffffff"
           id="path4050"
           d="m 34.315797,97.062073 c 0,0 -0.686402,5.077317 -1.068328,8.033827 -0.66943,-2.77924 -1.86149,-7.678719 -1.86149,-7.678719 l -4.9381,0.640447 c 0,0 -0.703807,5.843912 -1.094005,9.283442 -0.6526,-3.26111 -1.791571,-8.884287 -1.791571,-8.884287 l -5.198765,0.766304 5.272744,22.609113 4.418516,-2.45418 c 0,0 0.919648,-7.68081 1.354375,-11.06481 0.730347,2.99001 2.223688,9.17881 2.223688,9.17881 l 4.484517,-2.23559 3.470728,-18.786891 -5.272309,0.592534 z"
           inkscape:connector-curvature="0"
           inkscape:export-filename="/Users/anton/Desktop/favicon-310.png"
           inkscape:export-xdpi="90"
           inkscape:export-ydpi="90" />
        <path
           inkscape:export-ydpi="90"
           inkscape:export-xdpi="90"
           inkscape:export-filename="/Users/anton/Desktop/favicon-310.png"
           inkscape:connector-curvature="0"
           d="m 67.669019,103.52892 c 0,0 -0.621769,4.59926 -0.967733,7.27738 -0.606394,-2.51755 -1.686207,-6.95571 -1.686207,-6.95571 l -4.473118,0.58014 c 0,0 -0.637534,5.29366 -0.990991,8.40931 -0.59115,-2.95403 -1.622872,-8.04774 -1.622872,-8.04774 l -4.709238,0.69415 4.77625,20.48021 4.002459,-2.22308 c 0,0 0.833051,-6.95758 1.226844,-10.02292 0.661577,2.70846 2.014301,8.3145 2.014301,8.3145 l 4.062245,-2.02509 3.143917,-17.01789 -4.775857,0.53674 z"
           id="path5119"
           style="fill:#ff8e00;fill-opacity:1" />
        <path
           style="fill:#ff8e00;fill-opacity:1"
           id="path5145"
           d="m 3.1576334,96.964716 c 0,0 -0.708195,5.238534 -1.102248,8.288924 -0.690684,-2.8675 -1.92059206,-7.922534 -1.92059206,-7.922534 l -5.09488394,0.66078 c 0,0 -0.726152,6.029454 -1.128739,9.578184 -0.67332,-3.36464 -1.848453,-9.166364 -1.848453,-9.166364 l -5.3638254,0.79064 5.4401524,23.326954 4.558803,-2.5321 c 0,0 0.948847,-7.92467 1.397377,-11.41611 0.7535359,3.08494 2.29428994,9.47023 2.29428994,9.47023 l 4.62689906,-2.30657 3.580924,-19.383374 -5.439704,0.61134 z"
           inkscape:connector-curvature="0"
           inkscape:export-filename="/Users/anton/Desktop/favicon-310.png"
           inkscape:export-xdpi="90"
           inkscape:export-ydpi="90" />
        <path
           inkscape:export-ydpi="90"
           inkscape:export-xdpi="90"
           inkscape:export-filename="/Users/anton/Desktop/favicon-310.png"
           inkscape:connector-curvature="0"
           d="m 3.6047429,96.100471 c 0,0 -0.708195,5.238529 -1.102248,8.288919 -0.690684,-2.8675 -1.92059202,-7.922536 -1.92059202,-7.922536 l -5.09488398,0.66078 c 0,0 -0.726152,6.029456 -1.128739,9.578186 -0.67332,-3.36464 -1.848453,-9.166358 -1.848453,-9.166358 l -5.3638249,0.790634 5.4401519,23.326954 4.558803,-2.5321 c 0,0 0.948847,-7.92467 1.397377,-11.41611 0.75353598,3.08494 2.29428998,9.47023 2.29428998,9.47023 l 4.62689902,-2.30657 3.580924,-19.383376 -5.439704,0.611347 z"
           id="path5143"
           style="fill:#ffffff" />
      </g>
    </g>
  </g>
</svg>
