<?xml version="1.0" encoding="UTF-8" standalone="no"?>
<!-- Created with Inkscape (http://www.inkscape.org/) -->

<svg
   xmlns:dc="http://purl.org/dc/elements/1.1/"
   xmlns:cc="http://creativecommons.org/ns#"
   xmlns:rdf="http://www.w3.org/1999/02/22-rdf-syntax-ns#"
   xmlns:svg="http://www.w3.org/2000/svg"
   xmlns="http://www.w3.org/2000/svg"
   xmlns:sodipodi="http://sodipodi.sourceforge.net/DTD/sodipodi-0.dtd"
   xmlns:inkscape="http://www.inkscape.org/namespaces/inkscape"
   width="3753.7368"
   height="2087.938"
   id="svg9865"
   version="1.1"
   inkscape:version="0.48.5 r10040"
   sodipodi:docname="WAF.svg">
  <defs
     id="defs9867" />
  <sodipodi:namedview
     id="base"
     pagecolor="#ffffff"
     bordercolor="#666666"
     borderopacity="1.0"
     inkscape:pageopacity="0.0"
     inkscape:pageshadow="2"
     inkscape:zoom="0.20543385"
     inkscape:cx="1718.5457"
     inkscape:cy="1408.9785"
     inkscape:document-units="px"
     inkscape:current-layer="g4046"
     showgrid="false"
     fit-margin-top="0"
     fit-margin-left="0"
     fit-margin-right="0"
     fit-margin-bottom="0"
     inkscape:window-width="939"
     inkscape:window-height="856"
     inkscape:window-x="43"
     inkscape:window-y="0"
     inkscape:window-maximized="0" />
  <metadata
     id="metadata9870">
    <rdf:RDF>
      <cc:Work
         rdf:about="">
        <dc:format>image/svg+xml</dc:format>
        <dc:type
           rdf:resource="http://purl.org/dc/dcmitype/StillImage" />
        <dc:title></dc:title>
      </cc:Work>
    </rdf:RDF>
  </metadata>
  <g
     inkscape:label="Layer 1"
     inkscape:groupmode="layer"
     id="layer1"
     transform="translate(1590.5264,708.10618)">
    <g
       id="g4046"
       transform="matrix(10.994645,0,0,10.994645,-2129.33,-937.90526)"
       style="display:inline">
      <path
         inkscape:connector-curvature="0"
         d="m 158.98,40.042 c 0,0 -4.732,35.003 -7.365,55.385 C 147,76.267 138.782,42.49 138.782,42.49 l -34.043,4.415 c 0,0 -4.852,40.288 -7.542,64 C 92.698,88.423 84.846,49.657 84.846,49.657 l -35.84,5.283 36.35,155.866 30.461,-16.919 c 0,0 6.34,-52.951 9.337,-76.28 5.035,20.613 15.33,63.278 15.33,63.278 L 171.4,165.473 195.327,35.957 158.98,40.042 z"
         id="path4050"
         style="fill:#ffffff" />
      <path
         inkscape:connector-curvature="0"
         d="m 225.533,32.874 -43.161,127.352 35.131,-15.999 c 0,0 4.388,-15.114 5.465,-18.758 3.167,-1.19 21.714,-7.998 26.307,-9.642 0.713,3.764 2.609,13.869 2.609,13.869 l 35.568,-13.889 -23.396,-86.461 -38.523,3.528 z m 15.184,39.899 c 1.628,7.786 2.797,13.396 3.576,17.154 -3.332,0.923 -6.414,1.783 -10.723,2.995 1.936,-5.555 4.083,-11.622 7.147,-20.149 z"
         id="path4056"
         style="fill:#ffffff" />
      <path
         inkscape:connector-curvature="0"
         d="m 305.93,26.022 -17.946,89.583 34.637,-12.432 c 0,0 6.918,-26.238 8.034,-30.377 4.537,-1.034 36.41,-7.952 36.41,-7.952 l 7.119,-19.113 c 0,0 -30.673,4.58 -37.663,5.69 0.745,-2.669 1.169,-4.187 1.715,-6.127 4.928,-0.636 44.39,-5.38 44.39,-5.38 l 7.795,-19.013 -84.491,5.121 z"
         id="path4062"
         style="fill:#ffffff" />
    </g>
  </g>
</svg>
