<?xml version="1.0" encoding="UTF-8" standalone="no"?>
<!-- Created with Inkscape (http://www.inkscape.org/) -->

<svg
   xmlns:dc="http://purl.org/dc/elements/1.1/"
   xmlns:cc="http://creativecommons.org/ns#"
   xmlns:rdf="http://www.w3.org/1999/02/22-rdf-syntax-ns#"
   xmlns:svg="http://www.w3.org/2000/svg"
   xmlns="http://www.w3.org/2000/svg"
   xmlns:sodipodi="http://sodipodi.sourceforge.net/DTD/sodipodi-0.dtd"
   xmlns:inkscape="http://www.inkscape.org/namespaces/inkscape"
   width="3876.7705"
   height="1929.7725"
   id="svg9865"
   version="1.1"
   inkscape:version="0.48.5 r10040"
   sodipodi:docname="WAF.svg">
  <defs
     id="defs9867" />
  <sodipodi:namedview
     id="base"
     pagecolor="#ffffff"
     bordercolor="#666666"
     borderopacity="1.0"
     inkscape:pageopacity="0.0"
     inkscape:pageshadow="2"
     inkscape:zoom="0.10271693"
     inkscape:cx="3973.1069"
     inkscape:cy="1530.1305"
     inkscape:document-units="px"
     inkscape:current-layer="layer1"
     showgrid="false"
     fit-margin-top="0"
     fit-margin-left="0"
     fit-margin-right="0"
     fit-margin-bottom="0"
     inkscape:window-width="1440"
     inkscape:window-height="802"
     inkscape:window-x="0"
     inkscape:window-y="0"
     inkscape:window-maximized="1"
     inkscape:snap-page="true" />
  <metadata
     id="metadata9870">
    <rdf:RDF>
      <cc:Work
         rdf:about="">
        <dc:format>image/svg+xml</dc:format>
        <dc:type
           rdf:resource="http://purl.org/dc/dcmitype/StillImage" />
        <dc:title></dc:title>
      </cc:Work>
    </rdf:RDF>
  </metadata>
  <g
     inkscape:label="Layer 1"
     inkscape:groupmode="layer"
     id="layer1"
     transform="translate(1642.762,611.13548)">
    <g
       id="g4046"
       transform="matrix(10.994645,0,0,10.994645,-2129.33,-937.90526)"
       style="display:inline">
      <path
         inkscape:connector-curvature="0"
         d="m 200.9771,29.956489 -9.64262,0.137306 -29.07015,0.585446 -5.48678,0.139807 -1.49289,6.64811 -7.22592,32.856445 -4.91611,-31.950952 -1.11001,-7.136279 -5.76332,0.181436 -28.84499,1.06333 -5.27418,0.224196 -1.45667,6.929209 -7.837475,38.244955 -4.129866,-36.164345 -0.970353,-8.360837 -6.125466,0.297051 -28.951875,1.563048 -8.423426,0.50434 1.827227,12.137409 21.634558,148.695096 1.215339,8.68886 6.081085,-2.86914 26.494732,-12.09422 4.37968,-1.93749 1.27897,-6.28198 11.31769,-53.74711 6.70225,43.58203 1.15701,7.63207 5.98451,-2.50203 26.85172,-10.84432 4.41121,-1.71902 1.45337,-5.66792 32.71493,-118.122384 3.21782,-10.712117 0,0 z m -50.02577,59.423215 11.14674,-49.945878 28.95885,-0.986365 0,0 0,0 -32.35913,119.421359 -26.95567,10.4631 L 119.79078,90.774275 100.80173,181.14961 74.2037,192.86668 52.936085,45.504624 l 0,0 0,0 28.840172,-1.971028 6.567352,57.118614 0,0 1.468553,13.08232 0,0 1.046683,9.38304 1.882542,-9.56654 0,0 2.632478,-13.20193 0,0 12.094395,-58.342704 28.73585,-1.466072 7.64059,49.496278 0,0 1.5994,10.550278 0,0 1.27686,8.45023 1.88007,-8.79696 0,0 2.3503,-10.860446 0,0 0,0 z"
         id="path4052"
         style="fill:#ffffff" />
      <path
         inkscape:connector-curvature="0"
         d="m 268.07709,29.782312 -5.4958,-0.0366 -33.77429,-0.0249 -4.46616,0.0232 -2.18049,4.462702 -49.7052,114.156846 -5.74952,14.89192 12.08211,-4.58894 28.24258,-10.23079 4.01642,-1.39743 1.77296,-4.61492 5.26498,-13.50712 21.8042,-6.11552 0.7866,7.69178 0.652,6.44682 6.27323,-1.99262 29.40579,-8.91408 8.02006,-2.30418 -1.26621,-7.27005 -14.67834,-81.283099 -1.00492,-5.393022 0,0 z M 178.38212,150.6269 228.384,37.556233 l 33.64958,-0.442406 14.94016,82.236823 0,0 0,0 -29.51484,8.51035 -1.40412,-13.94297 -32.27494,8.5467 -7.04732,18.32598 -28.3504,9.83619 0,0 0,0 0,0 z m 61.80366,-88.370304 -16.67657,36.870129 6.92667,-1.393877 0,0 0.90763,-0.180451 0,0 5.79516,-1.142209 0,0 0.0612,-0.01184 0,0 6.94217,-1.340364 -3.95629,-32.801393 0,0 z"
         id="path4058"
         style="fill:#ffffff" />
      <path
         inkscape:connector-curvature="0"
         d="m 396.86034,33.17377 -9.3243,-0.405584 -77.12278,-2.406705 -5.99899,-0.114683 -1.65803,5.561123 -23.21537,80.946679 -2.55706,9.28515 9.15795,-2.63057 28.4129,-7.72321 5.01923,-1.29376 1.63932,-4.60124 8.95878,-24.692461 31.62278,-4.351972 5.17898,-0.660876 1.96013,-4.150315 5.98596,-12.512185 3.13213,-6.439924 1.08515,-0.03784 5.43122,-0.182688 2.10771,-4.115636 6.57271,-12.648772 3.61158,-6.824536 0,0 z m -110.71571,83.67689 23.53731,-79.78007 76.83061,1.350023 0,0 0,0 -6.51229,12.869712 -44.87457,1.327829 -4.59475,12.4513 7.09559,-0.574539 0,0 0.22334,-0.01807 0,0 30.42731,-2.198855 0,0 0,0 -5.92968,12.722737 -37.1081,4.639437 -10.57544,29.874736 -28.51933,7.33576 0,0 0,0 0,0 z"
         id="path4064"
         style="fill:#ffffff" />
    </g>
  </g>
</svg>
