<svg
   xmlns:dc="http://purl.org/dc/elements/1.1/"
   xmlns:cc="http://creativecommons.org/ns#"
   xmlns:rdf="http://www.w3.org/1999/02/22-rdf-syntax-ns#"
   xmlns:svg="http://www.w3.org/2000/svg"
   xmlns="http://www.w3.org/2000/svg"
   xmlns:sodipodi="http://sodipodi.sourceforge.net/DTD/sodipodi-0.dtd"
   xmlns:inkscape="http://www.inkscape.org/namespaces/inkscape"
   width="104"
   height="52"
   viewBox="20 -5 60 60"
   id="svg9865"
   version="1.1"
   inkscape:version="0.48.5 r10040"
   sodipodi:docname="waf.svg">
  <defs
     id="defs9867" />
     <filter id="dropshadow" height="130%">
      <feGaussianBlur in="SourceAlpha" stdDeviation="3"/>
      <feOffset dx="2" dy="2" result="offsetblur"/>
      <feMerge>
        <feMergeNode/>
        <feMergeNode in="SourceGraphic"/>
      </feMerge>
    </filter>
  <sodipodi:namedview
     id="base"
     pagecolor="#ffffff"
     bordercolor="#666666"
     borderopacity="1.0"
     inkscape:pageopacity="0.0"
     inkscape:pageshadow="2"
     inkscape:zoom="5.6723037"
     inkscape:cx="76.154618"
     inkscape:cy="22.373108"
     inkscape:document-units="px"
     inkscape:current-layer="layer1"
     showgrid="false"
     fit-margin-top="0"
     fit-margin-left="0"
     fit-margin-right="0"
     fit-margin-bottom="0"
     inkscape:window-width="1440"
     inkscape:window-height="802"
     inkscape:window-x="0"
     inkscape:window-y="0"
     inkscape:window-maximized="1"
     inkscape:snap-page="true"
     showguides="true"
     inkscape:guide-bbox="true"
     inkscape:snap-bbox="true"
     inkscape:object-paths="true"
     inkscape:snap-intersection-paths="false"
     height="184.25px"
     inkscape:bbox-paths="true" />
  <metadata
     id="metadata9870">
    <rdf:RDF>
      <cc:Work
         rdf:about="">
        <dc:format>image/svg+xml</dc:format>
        <dc:type
           rdf:resource="http://purl.org/dc/dcmitype/StillImage" />
        <dc:title />
      </cc:Work>
    </rdf:RDF>
  </metadata>
  <g
     inkscape:label="Layer 1"
     inkscape:groupmode="layer"
     id="layer1"
     transform="translate(1593.6349,-1135.8007)">
    <path
       style="fill:none;stroke:none"
       d="m -1515.7338,1137.9022 -6.9085,23.4168 8.371,-2.1532 3.1034,-8.7689 10.8921,-1.3615 1.7403,-3.7342 -8.9307,0.6449 -0.065,0.01 -2.0832,0.1685 1.349,-3.6549 13.1713,-0.3896 1.9113,-3.7775 -22.5509,-0.3963 z m -13.9855,0.012 -9.8768,0.1301 -14.6763,33.1878 8.3209,-2.8866 2.0689,-5.3793 9.4731,-2.5086 0.4121,4.0928 8.6629,-2.4986 -4.3848,-24.1376 z m -20.8332,0.3913 -8.4994,0.2894 -3.272,14.6605 -0.6899,3.1877 -0.5523,2.582 -0.3746,-2.4802 -0.4688,-3.0968 -2.2434,-14.5278 -8.4343,0.4297 -3.5498,17.1249 -0.7726,3.8751 -0.5523,2.8081 -0.3078,-2.7548 -0.4304,-3.8392 -1.928,-16.7653 -8.4653,0.5781 6.2428,43.2531 7.807,-3.4388 5.5737,-26.527 3.5072,22.7644 7.9122,-3.0708 9.498,-35.0523 z m 14.4202,6.9886 1.1613,9.6273 -2.0372,0.3938 -0.019,0.01 -1.7011,0.3353 -0.2662,0.053 -2.033,0.4087 4.8946,-10.822 z"
       id="path3426"
       inkscape:connector-curvature="0" />
    <path
       style="fill:#ffffff"
       d="m -1539.4655,1135.8007 -1.3115,0.01 -0.6399,1.3098 -14.5895,33.5072 -1.687,4.3707 3.5457,-1.3465 8.29,-3.0033 1.1789,-0.4097 0.5205,-1.3548 1.5451,-3.9644 6.4004,-1.7953 0.2303,2.2575 0.1919,1.8929 1.8412,-0.5856 8.6245,-2.6138 2.6881,-0.7725 8.3392,-2.2667 1.4733,-0.3795 0.4814,-1.3507 2.6295,-7.2481 9.282,-1.2773 1.5201,-0.1935 0.5748,-1.218 1.7569,-3.6732 0.9194,-1.8896 0.3187,-0.011 1.5942,-0.053 0.6191,-1.2079 1.9288,-3.7125 1.0603,-2.0031 -2.7372,-0.1193 -22.6368,-0.7066 -1.7612,-0.034 -0.4863,1.6327 -6.0442,21.0751 -3.8393,-21.2612 -0.2953,-1.5826 -1.6135,-0.011 -9.9126,-0.01 z m -8.1691,0.069 -2.8299,0.04 -8.5328,0.1719 -1.6101,0.041 -0.4388,1.9513 -2.1207,9.6441 -1.4424,-9.3779 -0.3262,-2.0949 -1.692,0.053 -8.466,0.3121 -1.5484,0.066 -0.4271,2.034 -2.3009,11.2258 -1.2122,-10.6151 -0.2845,-2.4545 -1.7978,0.088 -8.4978,0.4589 -2.4727,0.1477 0.5364,3.5631 6.3503,43.6443 0.3563,2.5504 1.7853,-0.8427 7.7762,-3.5497 1.2855,-0.5681 0.3755,-1.8446 3.322,-15.7751 1.9672,12.7918 0.3395,2.24 1.757,-0.7342 7.8813,-3.1827 1.2947,-0.5047 0.4263,-1.6635 9.6024,-34.6711 0.9444,-3.1443 z m 31.9071,2.0881 22.5509,0.3964 -1.9113,3.7774 -13.1713,0.3897 -1.349,3.6549 2.0832,-0.1686 0.065,-0.01 8.9308,-0.6448 -1.7403,3.7341 -10.8921,1.3615 -3.1035,8.7689 -8.3709,2.1532 6.9085,-23.4168 z m -13.9856,0.012 4.3849,24.1378 -8.663,2.4986 -0.4121,-4.093 -9.473,2.5087 -2.069,5.3793 -8.3209,2.8865 14.6763,-33.1877 9.8768,-0.1302 z m -20.8331,0.3913 -9.4981,35.0523 -7.9121,3.071 -3.5072,-22.7645 -5.5738,26.527 -7.8069,3.4388 -6.2428,-43.2531 8.4653,-0.5781 1.9279,16.7653 0.4305,3.8392 0.3078,2.7548 0.5523,-2.8081 0.7725,-3.8752 3.5498,-17.1249 8.4344,-0.4296 2.2433,14.5278 0.4689,3.0968 0.3745,2.4803 0.5523,-2.582 0.69,-3.1878 3.2719,-14.6605 8.4995,-0.2895 z m 14.4202,6.9887 -4.8946,10.822 2.0331,-0.4088 0.2661,-0.053 1.701,-0.3353 0.019,-0.01 2.0373,-0.3938 -1.1612,-9.6274 z"
       id="path4052-0"
       inkscape:connector-curvature="0" />
  </g>
</svg>
