<svg
   xmlns:dc="http://purl.org/dc/elements/1.1/"
   xmlns:cc="http://creativecommons.org/ns#"
   xmlns:rdf="http://www.w3.org/1999/02/22-rdf-syntax-ns#"
   xmlns:svg="http://www.w3.org/2000/svg"
   xmlns="http://www.w3.org/2000/svg"
   xmlns:sodipodi="http://sodipodi.sourceforge.net/DTD/sodipodi-0.dtd"
   xmlns:inkscape="http://www.inkscape.org/namespaces/inkscape"
   version="1.1"
   id="Laag_1"
   x="0px"
   y="0px"
   width="485.24298"
   height="250"
   viewBox="0 0 485.24297 455.31249"
   enable-background="new 0 0 481.89 481.89"
   xml:space="preserve"
   inkscape:version="0.48.5 r10040"
   sodipodi:docname="waf_full_logo.svg"
   inkscape:export-filename="/home/anton/Owncloud/waf/graphics/WAF_LOGO.png"
   inkscape:export-xdpi="99.919067"
   inkscape:export-ydpi="99.919067"><metadata
     id="metadata3365"><rdf:RDF><cc:Work
         rdf:about=""><dc:format>image/svg+xml</dc:format><dc:type
           rdf:resource="http://purl.org/dc/dcmitype/StillImage" /><dc:title /></cc:Work></rdf:RDF></metadata><defs
     id="defs3363" /><sodipodi:namedview
     pagecolor="#ffffff"
     bordercolor="#666666"
     borderopacity="1"
     objecttolerance="10"
     gridtolerance="10"
     guidetolerance="10"
     inkscape:pageopacity="0"
     inkscape:pageshadow="2"
     inkscape:window-width="1440"
     inkscape:window-height="802"
     id="namedview3361"
     showgrid="false"
     inkscape:zoom="0.64"
     inkscape:cx="912.55329"
     inkscape:cy="206.82344"
     inkscape:window-x="0"
     inkscape:window-y="0"
     inkscape:window-maximized="1"
     inkscape:current-layer="Laag_1"
     fit-margin-top="0"
     fit-margin-left="0"
     fit-margin-right="0"
     fit-margin-bottom="0"
     showguides="true"
     inkscape:guide-bbox="true" /><path
     class="waf_logo"
     style="font-size:medium;font-style:normal;font-variant:normal;font-weight:normal;font-stretch:normal;text-indent:0;text-align:start;text-decoration:none;line-height:normal;letter-spacing:normal;word-spacing:normal;text-transform:none;direction:ltr;block-progression:tb;writing-mode:lr-tb;text-anchor:start;baseline-shift:baseline;color:#000000;fill:#ffffff;fill-opacity:1;stroke:none;stroke-width:33.1776886;marker:none;visibility:visible;display:inline;overflow:visible;enable-background:accumulate;font-family:Sans;-inkscape-font-specification:Sans"
     d="M 227.65625,0 C 178.59384,0 133.08487,15.596918 95.875,42.09375 l 0.4375,2.125 6.65625,33.125 c 0.30806,-0.255588 0.62784,-0.496278 0.9375,-0.75 l 4.15625,-35.46875 0.875,-7.03125 5.21875,-0.65625 28.65625,-3.53125 5.71875,-0.65625 1.71875,7 2.65625,11 C 155.5737,46.147009 158.27411,45.111784 161,44.125 l 1.28125,-9.8125 0.90625,-6.75 5.46875,-0.59375 28.90625,-3.0625 9.59375,-0.9375 -2.25,10.8125 c 6.99543,-0.807709 14.1091,-1.229638 21.3125,-1.28125 L 228.625,25.375 230.4375,20.75 234.875,20.34375 268.53125,17.5 274,17.0625 l 1.46875,5.3125 4.65625,17.21875 c 8.05327,2.233388 15.9048,4.95461 23.5,8.15625 l 5.4375,-27.625 0.96875,-4.6875 C 284.46843,5.4795563 256.70128,0 227.65625,0 z"
     id="path4019"
     inkscape:connector-curvature="0" /><path
     class="waf_logo"
     style="font-size:medium;font-style:normal;font-variant:normal;font-weight:normal;font-stretch:normal;text-indent:0;text-align:start;text-decoration:none;line-height:normal;letter-spacing:normal;word-spacing:normal;text-transform:none;direction:ltr;block-progression:tb;writing-mode:lr-tb;text-anchor:start;baseline-shift:baseline;color:#000000;fill:#ffffff;fill-opacity:1;stroke:none;stroke-width:33.1776886;marker:none;visibility:visible;display:inline;overflow:visible;enable-background:accumulate;font-family:Sans;-inkscape-font-specification:Sans"
     d="m 377.65625,56.53125 -0.84375,2.25 -5.09375,1.09375 -31.125,7.03125 -0.3125,1.21875 c 49.97731,35.30354 82.53125,93.53192 82.53125,159.53125 0,107.98918 -87.16707,195.1875 -195.15625,195.1875 -107.98919,0 -195.21875,-87.19832 -195.21875,-195.1875 0,-42.23914 13.352078,-81.28666 36.0625,-113.1875 L 59.1875,74.6875 C 22.435553,115.13107 -1.4983501e-7,168.82685 -1.4983501e-7,227.65625 -1.4983501e-7,353.1926 102.11989,455.3125 227.65625,455.3125 c 125.53635,0 227.65625,-102.1199 227.65625,-227.65625 0,-68.13056 -30.08167,-129.370917 -77.65625,-171.125 z"
     id="circle3071"
     inkscape:connector-curvature="0" /><path
     class="waf_logo"
     d="m 480.70797,182.61357 c -25.441,-19.534 -60.758,-33.496 -80.95,-40.487 3.569,-4.484 8.516,-9.295 11.867,-12.144 l 4.736,-8.571 -2.237,-3.333 c -1.731,0.356 -3.626,0.747 -5.516,1.138 -0.57,-1.1 -1.938,-3.262 -1.938,-3.262 l -9.719,1.742 c -3.311,0.682 -31.454,6.822 -44.103,19.478 -17.28,4.097 -27.635,14.335 -34.534,21.261 l -3.775,3.691 -0.265,0.242 c -1.747,1.611 -3.551,3.265 -5.441,4.911 l -14.736,-10.038 0.712,20.16 c -4.244,2.368 -9.02,4.418 -14.568,5.891 -7.099,1.883 -26.072,3.98 -48.043,6.407 -29.851,3.299 -66.995,7.402 -92.758,13.058 -8.737,1.917 -16.56,5.565 -23.404,10.69 -4.29,0 -86.614999,0 -86.614999,0 l 2.317,8.846 c 1.476,5.63 10.623,18.281 62.338,20.209 -5.979,13.91 -8.166,27.929 -9.304,35.46 l -0.668,4.107 c -1.844,9.224 -8.565,18.956 -8.636,19.055 l -0.313,0.449 -0.246,0.504 c -3.033,6.236 -16.475,34.879 -16.475,52.622 0,2.521 0.27,4.821 0.882,6.808 0.234,0.764 5.882,18.718 16.592,18.718 l 37.523999,0.002 0.271,-6.774 c 0.017,-0.43 0.026,-0.854 0.026,-1.271 0,-9.54 -4.39,-15.565 -9.56,-18.861 4.171,-8.552 12.16,-24.926 13.867,-28.425 7.41,-2.98 27.797,-12.333 41.242,-29.193 7.127,-0.022 28.604,3.67 46.265,12.303 0,0 0.155,-0.215 0.163,-0.224 15.695,6.187 30.148,7.852 43.134,5.067 0.358,7.7 0.543,19.986 0.543,32.402 0,3.062 -0.013,6.129 -0.032,9.134 l -0.004,0.241 0.015,0.238 c 0.707,11.658 5.64,25.271 17.213,25.271 h 18.069 l 12.508,0.092 h 6.695 l 0.352,-6.685 c 0.018,-0.382 0.03,-0.761 0.03,-1.13 0,-10.347 -7.654,-16.374 -14.391,-19.247 0.027,-6.672 0.616,-13.629 1.722,-15.842 6.15,-12.3 20.61,-50.433 21.223,-52.052 0,0 0.5,-1.318 0.974,-2.569 2.123,-4.161 6.803,-13.342 6.803,-13.342 5.18,-10.407 10.439,-18.633 15.485,-25.136 l 15.76,5.828 -5.394,-17.286 c 3.385,-3.153 6.538,-5.551 9.336,-7.361 13.291,-0.346 27.375,-2.988 35.281,-4.733 0.111,0.25 0.171,0.393 0.175,0.397 l 1.806,4.349 4.711,0.01 c 67.93,0 84.388,-32.782 85.054,-34.177 l 2.469,-5.157 -4.535,-3.481 z m -78.54,28.642 c -0.291,-0.578 -0.577,-1.152 -0.928,-1.814 l -2.306,-4.377 -7.435,1.028 -0.327,0.078 c -5.001,1.186 -22.49,5.064 -37.465,5.192 l -0.446,0.004 -2.1,0.285 -1.249,0.754 c -15.683,9.464 -30.2,26.984 -41.986,50.67 l -11.619,22.786 c 0,0 0.723,0.348 0.965,0.465 -4.389,11.417 -13.902,35.829 -18.33,44.686 -2.727,5.449 -3.229,15.504 -3.229,22.198 0,2.303 0.058,4.208 0.109,5.39 l 0.227,5.468 5.402,1.148 c 0.132,0.027 1.354,0.3 2.837,0.896 -0.687,-0.003 -16.694,-0.082 -17.359,-0.086 -1.448,-1.253 -3.12,-6.937 -3.467,-11.868 0.018,-2.326 0.035,-5.694 0.035,-9.67 0,-14.606 -0.236,-36.989 -1.618,-42.517 l -1.955,-7.813 -7.487,2.967 c -11.718,4.639 -25.744,3.793 -41.685,-2.518 0,0 -0.127,0.188 -0.133,0.196 -20.533,-9.746 -48.259,-15.04 -57.031,-12.533 l -2.351,0.671 -1.432,1.984 c -13.374,18.534 -38.951,27.623 -39.207,27.712 l -2.741,0.956 -1.284,2.613 -23.040999,47.235 c 0,0 10.037,0.788 10.293,0.809 1.148,0.122 2.671,0.574 3.872,1.865 -0.603,0 -17.868,-0.002 -20.288,-0.002 -1.459,-1.666 -3.73,-5.909 -4.605,-8.757 -0.243,-0.783 -0.355,-1.772 -0.355,-2.938 0,-9.274 7.193,-29.69 14.945,-45.738 1.624,-2.422 8.366,-12.937 10.547,-23.843 l 0.784,-4.767 c 1.386999,-9.194 3.972999,-26.308 12.703999,-40.728 l 6.435,-10.631 -12.424,-0.078 c -9.540999,-0.061 -17.563999,-0.465 -24.378999,-1.075 18.542,0 39.782999,0 39.782999,0 l 1.953,-1.611 c 5.586,-4.605 12.203,-7.771 19.668,-9.408 25.032,-5.496 61.765,-9.555 91.281,-12.813 23.463,-2.593 41.995,-4.641 50.115,-6.796 19.242,-5.105 30.734,-15.682 39.968,-24.177 l 0.265,-0.242 4.218,-4.118 c 6.718,-6.74 15.077,-15.13 29.589,-17.969 l 2.451,-0.479 1.604,-1.913 c 4.446,-5.309 15.554,-10.082 25.69,-13.288 -2.161,2.886 -4.025,5.887 -5.103,8.749 l -2.604,6.934 7.04,2.301 c 15.286,4.908 52.118,17.912 79.528,36.989 -6.8,7.268 -24.631,20.602 -64.339,21.538 z"
     id="path3187"
     inkscape:connector-curvature="0"
     style="fill:#ffffff"
     inkscape:export-filename="/media/Owncloud/waf/graphics/WAF_LOGO.PNG"
     inkscape:export-xdpi="150"
     inkscape:export-ydpi="150" /><path
     style="fill:#95c11f"
     inkscape:connector-curvature="0"
     id="path3191"
     d="m 355.52297,149.44156 c 2.553,-9.884 22.448,-17.391 35.794,-21.059 -5.416,5.333 -12.681,13.552 -13.486,19.943 l -22.308,1.116 z"
     class="waf_logo" /><path
     style="fill:#ffffff"
     inkscape:connector-curvature="0"
     id="path3193"
     d="m 384.70897,132.49056 c -4.736,5.402 -7.568,10.003 -8.557,13.917 l -17.479,0.874 c 3.932,-5.973 15.349,-11.226 26.036,-14.791 m 13.669,-7.885 c 0,0 -45.129,9.314 -45.129,26.952 l 26.561,-1.328 c -1.258,-8.818 18.568,-25.624 18.568,-25.624 l 0,0 z"
     class="waf_logo" /><path
     inkscape:connector-curvature="0"
     style="fill:#6c7073;fill-opacity:1"
     id="path3197"
     d="m 75.909971,371.17056 c -2.001,0 -6.371,-7.235 -7.938,-12.328 -3.357,-10.91 9.636,-41.577 15.017,-52.669 0.932,-1.356 7.875,-11.721 9.998,-22.327 0.226,-1.131 0.453,-2.63 0.74,-4.527 1.442,-9.544 4.126,-27.308 13.377999,-42.595 0.373,-0.615 0.386,-1.384 0.035,-2.012 -0.352,-0.628 -1.013,-1.019 -1.733,-1.023 -42.881999,-0.275 -57.666999,-7.271 -62.591999,-11.188 h 75.495999 c 0.464,0 0.914,-0.161 1.272,-0.457 6.211,-5.118 13.544,-8.632 21.798,-10.443 25.298,-5.554 62.188,-9.629 91.828,-12.903 23.244,-2.567 41.604,-4.596 49.358,-6.652 18.041,-4.79 28.566,-14.479 37.854,-23.026 l 0.25,-0.229 c 1.296,-1.191 2.64,-2.54 4.062,-3.968 7.204,-7.229 16.171,-16.226 32.2,-19.359 0.449,-0.088 0.855,-0.327 1.149,-0.679 6.941,-8.286 24.222,-13.924 33.887,-16.543 -3.718,3.966 -8.581,9.637 -11.318,14.772 -0.284,0.532 -0.313,1.166 -0.076,1.722 0.235,0.556 0.71,0.976 1.291,1.142 2.319,0.663 56.51,16.345 91.914,42.843 -3.799,5.719 -21.65,27.302 -74.754,27.649 -0.46,-1.012 -1.211,-2.593 -2.254,-4.57 -0.35,-0.663 -1.035,-1.067 -1.769,-1.067 -0.091,0 -0.183,0.006 -0.274,0.019 l -2.199,0.304 c -0.063,0.009 -0.126,0.021 -0.188,0.035 -6.583,1.559 -23.522,5.198 -38.589,5.33 -0.083,0.001 -0.167,0.007 -0.249,0.018 l -0.21,0.028 c -0.271,0.037 -0.532,0.129 -0.767,0.27 -14.859,8.966 -28.716,25.77 -40.071,48.594 -13.219,26.562 -25.267,47.895 -35.808,63.406 -0.269,0.396 -0.484,0.713 -0.646,0.957 -2.361,3.542 -4.149,23.169 -4.641,29.101 -0.09,1.088 0.708,2.047 1.794,2.155 6.968,0.696 8.825,6.861 9.319,10.133 h -15.897 c -5.799,0 -7.885,-12.291 -8.17,-16.698 0.02,-2.629 0.288,-44.311 -1.43,-51.184 -0.14,-0.559 -0.514,-1.03 -1.026,-1.294 -0.286,-0.146 -0.6,-0.221 -0.914,-0.221 -0.249,0 -0.499,0.047 -0.736,0.141 -5.542,2.194 -11.579,3.308 -17.944,3.308 -28.383,0 -56.513,-21.592 -65.756,-28.687 -2.984,-2.291 -3.368,-2.585 -4.253,-2.585 -0.628,0 -1.25,0.307 -1.628,0.809 -19.95,26.465 -43.12,32.006 -54.254,34.669 -5.059,1.21 -7.598,1.817 -8.212,3.968 -0.717,2.511 -12.082999,24.869 -22.341999,44.581 -0.322,0.619 -0.298,1.363 0.064,1.961 0.363,0.597 1.011,0.962 1.71,0.962 8.701,0 11.095,6.825 11.751,10.361 h -17.527 z"
     class="waf_logo" /><path
     style="fill:#ffffff"
     inkscape:connector-curvature="0"
     id="path3199"
     d="m 385.86297,132.11956 c -2.625,3.152 -5.22,6.652 -6.979,9.953 -0.567,1.066 -0.624,2.332 -0.152,3.444 0.473,1.112 1.422,1.951 2.583,2.283 2.271,0.649 54.584,15.788 89.705,41.369 -2.022,2.659 -5.932,6.916 -12.621,11.144 -9.872,6.239 -27.896,13.645 -58.105,14.044 -0.451,-0.946 -1.035,-2.129 -1.754,-3.491 -0.698,-1.324 -2.068,-2.134 -3.537,-2.134 -0.182,0 -0.364,0.013 -0.548,0.038 l -2.199,0.304 c -0.126,0.017 -0.251,0.04 -0.375,0.069 -6.518,1.543 -23.282,5.146 -38.146,5.276 -0.167,0.002 -0.334,0.014 -0.499,0.036 l -0.21,0.028 c -0.542,0.073 -1.063,0.256 -1.532,0.539 -15.186,9.162 -29.304,26.25 -40.828,49.414 -13.179,26.481 -25.181,47.735 -35.672,63.174 -0.273,0.401 -0.492,0.725 -0.656,0.971 -2.464,3.696 -4.171,20.411 -4.97,30.046 -0.181,2.175 1.416,4.093 3.588,4.311 4.304,0.43 6.202,3.483 7.039,6.143 h -13.418 c -3.353,0 -5.762,-8.682 -6.169,-14.757 0.037,-5.19 0.259,-44.611 -1.49,-51.609 -0.279,-1.118 -1.028,-2.062 -2.054,-2.589 -0.571,-0.293 -1.198,-0.441 -1.827,-0.441 -0.499,0 -0.999,0.093 -1.473,0.281 -5.307,2.102 -11.097,3.167 -17.208,3.167 -27.703,0 -55.428,-21.28 -64.538,-28.273 -3.233,-2.481 -3.906,-2.998 -5.471,-2.998 -1.255,0 -2.469,0.602 -3.225,1.604 -19.518,25.892 -42.215,31.32 -53.123,33.929 -5.447,1.303 -8.735,2.089 -9.666,5.348 -0.815999,2.597 -11.783999,24.213 -22.196999,44.223 -0.645,1.24 -0.596,2.728 0.129,3.922 0.725,1.195 2.021,1.925 3.419,1.925 3.999,0 6.76,1.563 8.44,4.778 0.276,0.528 0.504,1.063 0.691,1.583 h -14.6 c -1.665,-0.98 -5.074,-6.825 -6.333,-10.917 -2.806,-9.117 7.561,-36.038 14.84,-51.075 1.261,-1.854 8.085,-12.252 10.224,-22.94 0.235,-1.177 0.465,-2.696 0.756,-4.62 1.421,-9.405 4.066,-26.912 13.111999,-41.857 0.745,-1.231 0.771,-2.769 0.069,-4.024 -0.702,-1.255 -2.026,-2.037 -3.465,-2.047 -30.802999,-0.197 -46.752999,-3.866 -54.901999,-7.188 h 67.792999 c 0.928,0 1.828,-0.323 2.544,-0.913 5.964,-4.915 13.014,-8.291 20.955,-10.033 25.194,-5.531 62.024,-9.601 91.618,-12.869 23.328,-2.577 41.755,-4.612 49.653,-6.708 18.518,-4.917 29.705,-15.214 38.694,-23.487 l 0.249,-0.229 c 1.328,-1.222 2.687,-2.585 4.125,-4.028 7.012,-7.036 15.738,-15.792 31.167,-18.809 0.899,-0.176 1.71,-0.655 2.299,-1.357 5.002,-5.974 16.471,-10.804 26.25,-13.953 m 12.515,-7.514 c 0,0 -31.439,6.49 -41.831,18.895 -19.938,3.898 -29.613,16.811 -37.232,23.818 -9.042,8.321 -19.536,18.088 -37.262,22.794 -17.729,4.703 -96.601,9.766 -141.103,19.536 -9.187,2.016 -16.617,5.889 -22.641,10.854 H 38.561971 c 0,0 3.875,14.783 66.830999,15.188 -11.306999,18.682 -13.041999,41.131 -14.367999,47.765 -2.171,10.854 -9.769,21.708 -9.769,21.708 0,0 -19.538,40.16 -15.196,54.269 1.274,4.141 5.985,13.74 9.85,13.74 9.039,0 16.704,0 19.771,0 0,0 -0.351,-14.361 -13.997,-14.361 1.744,-3.352 21.411999,-41.176 22.489999,-44.954 1.13,-3.955 34.607,-1.458 62.142,-37.983 0.006,-0.008 0.017,-0.012 0.03,-0.012 1.276,0 35.37,31.271 70.009,31.271 6.274,0 12.562,-1.025 18.681,-3.448 1.694,6.779 1.37,50.754 1.37,50.754 0,0 1.13,18.643 10.17,18.643 9.036,0 18.077,0 18.077,0 0,0 0,-12.993 -11.3,-14.123 0,0 2.053,-24.769 4.312,-28.157 2.259,-3.391 15.08,-21.378 36.581,-64.581 11.945,-24.01 25.862,-39.655 39.313,-47.771 l 0.21,-0.028 c 15.448,-0.135 32.887,-3.929 39.032,-5.384 l 2.199,-0.304 c 1.808,3.428 2.72,5.642 2.72,5.642 64.263,0 78.692,-30.165 78.692,-30.165 -35.505,-27.263 -90.344,-43.209 -93.999,-44.254 4.647,-8.72 15.965,-19.352 15.965,-19.352 l 0,0 z"
     class="waf_logo" /><path
     inkscape:connector-curvature="0"
     id="path3203"
     d="m 330.75197,240.02256 c -0.29,-0.17 -29.102,-17.44 -33.226,-56.499 l -0.087,-0.823 15.423,-10.975 0.021,2.722 c 0.003,0.347 0.614,34.829 29.652,51.555 l 1.562,0.899 -1.241,1.306 c -3.588,3.772 -9.519,10.175 -10.158,11.295 l -0.71,1.243 -1.236,-0.723 z"
     class="waf_logo" /><path
     style="fill:#ffffff"
     inkscape:connector-curvature="0"
     id="path3205"
     d="m 311.46697,174.45756 c 0,0 0.241,35.423 30.362,52.772 0,0 -9.398,9.882 -10.361,11.568 0,0 -28.436,-16.627 -32.532,-55.424 l 12.531,-8.916 m 2.784,-5.457 -4.428,3.147 -12.531,8.917 -1.35,0.96 0.174,1.647 c 2.192,20.758 11.247,35.272 18.458,43.794 7.845,9.271 15.155,13.6 15.463,13.779 l 2.473,1.445 1.42,-2.487 c 0.626,-0.997 5.657,-6.503 9.953,-11.021 l 2.483,-2.61 -3.122,-1.799 c -11.829,-6.813 -20.291,-17.306 -25.15,-31.184 -3.671,-10.485 -3.792,-19.07 -3.792,-19.155 l -0.051,-5.433 0,0 z"
     class="waf_logo" /><path
     inkscape:connector-curvature="0"
     id="path3209"
     d="m 379.95297,209.99456 c -23.544,0 -34.604,-4.87 -35.063,-5.077 l -0.878,-0.396 c -0.654,-0.296 -0.984,-1.033 -0.769,-1.718 l 0.289,-0.918 c 7.691,-24.485 26.96,-24.769 27.153,-24.769 0.78,0 1.413,0.63 1.417,1.41 l 0.011,2.17 c 0.004,0.78 -0.624,1.417 -1.404,1.424 -0.611,0.006 -14.721,0.347 -21.63,19.004 5.087,1.668 15.028,3.988 30.944,3.988 3.558,0 7.279,-0.119 11.061,-0.356 0.03,-0.001 0.06,-0.002 0.09,-0.002 0.63,0 1.19,0.419 1.363,1.032 l 0.571,2.025 c 0.116,0.412 0.04,0.854 -0.208,1.204 -0.248,0.35 -0.64,0.568 -1.067,0.596 -4.061,0.254 -8.059,0.383 -11.88,0.383 l 0,0 z"
     class="waf_logo" /><path
     style="fill:#ffffff"
     inkscape:connector-curvature="0"
     id="path3211"
     d="m 370.68597,178.53356 0.011,2.17 c -0.676,0.006 -16.394,0.38 -23.429,21.295 3.041,1.105 13.491,4.532 32.756,4.532 3.434,0 7.146,-0.109 11.149,-0.359 l 0.571,2.025 c -4.238,0.266 -8.169,0.381 -11.792,0.381 -23.206,0 -33.967,-4.721 -34.479,-4.952 l -0.878,-0.396 0.289,-0.918 c 7.363,-23.438 25.618,-23.778 25.802,-23.778 m 0,-2.835 c -0.204,0 -20.506,0.295 -28.506,25.763 l -0.289,0.916 c -0.431,1.369 0.229,2.845 1.537,3.435 l 0.878,0.396 c 1.181,0.533 12.203,5.204 35.646,5.204 3.852,0 7.878,-0.13 11.97,-0.387 0.854,-0.054 1.64,-0.491 2.135,-1.189 0.495,-0.699 0.648,-1.585 0.416,-2.409 l -0.571,-2.025 c -0.347,-1.228 -1.466,-2.065 -2.727,-2.065 -0.06,0 -0.119,0.002 -0.179,0.006 -3.752,0.234 -7.444,0.354 -10.973,0.354 -14.35,0 -23.745,-1.897 -29.071,-3.473 6.728,-16.373 19.214,-16.681 19.769,-16.685 1.562,-0.014 2.818,-1.287 2.811,-2.849 l -0.011,-2.17 c -0.008,-1.562 -1.275,-2.822 -2.835,-2.822 l 0,0 z"
     class="waf_logo" /><path
     inkscape:connector-curvature="0"
     id="path3215"
     d="m 393.95897,214.49656 c -0.508,0 -0.999,-0.274 -1.254,-0.755 -4.265,-8.052 -13.539,-22.817 -27.736,-31.249 -0.465,-0.276 -0.732,-0.793 -0.689,-1.331 0.043,-0.539 0.389,-1.007 0.892,-1.206 l 2.388,-0.944 c 0.168,-0.066 0.345,-0.099 0.521,-0.099 0.252,0 0.502,0.066 0.724,0.198 14.676,8.717 23.194,22.603 28.325,32.289 0.176,0.332 0.212,0.721 0.102,1.08 -0.11,0.359 -0.359,0.659 -0.691,0.836 l -1.918,1.016 c -0.212,0.111 -0.44,0.165 -0.664,0.165 l 0,0 z"
     class="waf_logo" /><path
     style="fill:#ffffff"
     inkscape:connector-curvature="0"
     id="path3217"
     d="m 368.07997,180.32956 c 14.948,8.879 23.354,23.349 27.796,31.733 l -1.918,1.016 c -4.335,-8.184 -13.772,-23.197 -28.266,-31.805 l 2.388,-0.944 m 0,-2.835 c -0.353,0 -0.706,0.066 -1.043,0.199 l -2.388,0.944 c -1.005,0.397 -1.696,1.332 -1.783,2.41 -0.086,1.078 0.449,2.11 1.379,2.663 13.898,8.254 23.013,22.773 27.208,30.694 0.509,0.96 1.491,1.508 2.507,1.508 0.448,0 0.901,-0.105 1.324,-0.33 l 1.918,-1.016 c 0.665,-0.352 1.162,-0.953 1.383,-1.672 0.222,-0.719 0.147,-1.495 -0.204,-2.16 -5.211,-9.837 -13.871,-23.944 -28.854,-32.844 -0.443,-0.263 -0.944,-0.396 -1.447,-0.396 l 0,0 z"
     class="waf_logo" /><path
     style="fill:#ffffff"
     inkscape:connector-curvature="0"
     id="path3221"
     d="m 326.90797,239.44256 c -2.464,-9.297 -1.964,-10 -1.208,-11.065 0.873,-1.237 2.704,-2.568 5.212,-2.568 0.803,0 1.629,0.138 2.454,0.408 2.123,0.698 3.736,2.161 4.43,4.015 0.486,1.299 0.429,2.56 -0.162,3.551 -0.127,0.217 -0.38,0.646 -5.522,6.813 l -3.717,4.458 -1.487,-5.612 z"
     class="waf_logo" /><path
     style="fill:#ffffff"
     inkscape:connector-curvature="0"
     id="path3223"
     d="m 330.91197,228.80856 c 0.454,0 0.96,0.075 1.519,0.259 2.402,0.79 2.891,2.735 2.626,3.18 -0.264,0.448 -5.249,6.427 -5.249,6.427 0,0 -2.104,-7.938 -1.661,-8.561 0.338,-0.481 1.265,-1.305 2.765,-1.305 m 0,-6 c -3.104,0 -5.971,1.438 -7.669,3.847 -1.711,2.409 -1.584,4.692 0.765,13.556 l 2.974,11.221 7.435,-8.915 c 5.3,-6.355 5.537,-6.76 5.813,-7.228 1.033,-1.734 1.177,-3.972 0.378,-6.108 -1.015,-2.711 -3.311,-4.829 -6.302,-5.813 -1.133,-0.372 -2.273,-0.56 -3.394,-0.56 l 0,0 z"
     class="waf_logo" /><path
     style="fill:#ffffff"
     inkscape:connector-curvature="0"
     id="path3227"
     d="m 314.25497,227.35456 c 1.745,-10.407 2.51,-10.755 3.897,-11.384 0.808,-0.369 1.704,-0.446 2.313,-0.446 2.221,0 4.355,0.974 5.857,2.671 1.922,2.174 2.311,4.64 2.034,6.223 -0.285,1.63 -1.242,2.373 -1.787,2.672 -0.144,0.08 -0.576,0.321 -8.191,3.525 l -5.023,2.114 0.9,-5.375 z"
     class="waf_logo" /><path
     style="fill:#ffffff"
     inkscape:connector-curvature="0"
     id="path3229"
     d="m 320.46497,218.52456 c 1.021,0 2.466,0.364 3.611,1.659 1.674,1.894 1.508,4.025 1.053,4.274 -0.452,0.252 -7.915,3.393 -7.915,3.393 0,0 1.48,-8.832 2.178,-9.148 0.22,-0.1 0.602,-0.178 1.073,-0.178 m 0,-6 c -0.905,0 -2.259,0.124 -3.562,0.718 -3.174,1.44 -4.002,4.042 -5.606,13.616 l -1.803,10.75 10.047,-4.228 c 7.768,-3.269 8.196,-3.508 8.509,-3.682 1.718,-0.939 2.891,-2.64 3.262,-4.765 0.507,-2.896 -0.543,-6.24 -2.74,-8.725 -2.074,-2.342 -5.028,-3.684 -8.107,-3.684 l 0,0 z"
     class="waf_logo" /><path
     style="fill:#ffffff"
     inkscape:connector-curvature="0"
     id="path3233"
     d="m 308.06497,204.03756 -0.131,-0.01 c -0.603,-0.051 -1.064,-0.089 -8.851,-3.705 l -4.215,-1.958 3.52,-3.035 c 6.457,-5.567 7.463,-5.567 8.436,-5.567 h 0.241 l 0.268,0.04 c 1.996,0.326 5.041,2.521 5.573,6.382 0.377,2.728 -0.69,5.078 -1.815,6.368 -1.069,1.228 -2.172,1.485 -2.909,1.485 h -0.117 z"
     class="waf_logo" /><path
     style="fill:#ffffff"
     inkscape:connector-curvature="0"
     id="path3235"
     d="m 306.82397,192.76156 c 0.01,0 0.021,0 0.029,0.002 0.754,0.123 2.735,1.324 3.081,3.83 0.343,2.479 -1.221,4.443 -1.753,4.443 -0.005,0 -0.011,-0.001 -0.016,-0.001 -0.516,-0.043 -7.818,-3.435 -7.818,-3.435 0,0 5.613,-4.839 6.477,-4.839 m 0,-6 c -2.15,0 -3.784,0.596 -10.395,6.296 l -7.04,6.07 8.431,3.915 c 8.27,3.841 8.731,3.88 9.848,3.973 l 0.248,0.021 0.266,0.001 c 1.113,0 3.266,-0.327 5.171,-2.515 2.019,-2.315 2.962,-5.586 2.525,-8.749 -0.698,-5.061 -4.673,-8.379 -8.058,-8.932 l -0.48,-0.078 -0.516,-0.002 0,0 z"
     class="waf_logo" /><path
     style="fill:#ffffff"
     inkscape:connector-curvature="0"
     id="path3239"
     d="m 303.71497,190.80656 c -0.503,0 -0.979,-0.101 -1.413,-0.299 -0.629,-0.283 -1.055,-0.476 -6.577,-6.813 l -3.348,-3.841 4.983,-1.063 c 1.372,-0.293 5.996,-1.249 7.86,-1.249 0.473,0 1.183,0.045 1.886,0.433 2.552,1.41 3.692,4.073 3.049,7.124 -0.774,3.675 -4.299,5.708 -6.44,5.708 l 0,0 z"
     class="waf_logo" /><path
     style="fill:#ffffff"
     inkscape:connector-curvature="0"
     id="path3241"
     d="m 305.22097,180.54156 c 0.21,0 0.36,0.018 0.435,0.059 0.67,0.37 2.086,1.406 1.564,3.879 -0.478,2.264 -2.76,3.327 -3.505,3.327 -0.069,0 -0.125,-0.009 -0.165,-0.027 -0.473,-0.213 -5.563,-6.055 -5.563,-6.055 0,0 5.542,-1.183 7.234,-1.183 m 0,-6 c -2.023,0 -6.187,0.823 -8.487,1.314 l -9.965,2.128 6.694,7.683 c 5.953,6.831 6.408,7.036 7.623,7.583 0.797,0.364 1.692,0.557 2.629,0.557 3.689,0 8.323,-3.093 9.376,-8.09 0.916,-4.344 -0.821,-8.316 -4.534,-10.368 -0.982,-0.543 -2.074,-0.807 -3.336,-0.807 l 0,0 z"
     class="waf_logo" /><path
     style="fill:#ffffff"
     inkscape:connector-curvature="0"
     id="path3245"
     d="m 302.39997,217.02956 2.217,-4.358 c 4.455,-8.765 5.303,-8.904 6.706,-9.138 0.205,-0.034 0.454,-0.058 0.736,-0.058 2.204,0 5.095,1.334 6.583,4.313 1.295,2.587 0.933,5.296 0.229,6.828 -0.681,1.482 -1.7,2.013 -2.436,2.197 -0.408,0.104 -0.845,0.216 -9.124,0.216 l -4.911,0 z"
     class="waf_logo" /><path
     style="fill:#ffffff"
     inkscape:connector-curvature="0"
     id="path3247"
     d="m 312.05897,206.47556 c 0.917,0 2.874,0.603 3.899,2.654 1.132,2.261 0.251,4.648 -0.252,4.774 -0.486,0.124 -7.955,0.126 -8.396,0.126 -0.014,0 -0.021,0 -0.021,0 0,0 3.769,-7.412 4.522,-7.537 0.071,-0.011 0.154,-0.017 0.248,-0.017 m 0,-6 c -0.423,0 -0.839,0.033 -1.236,0.1 -3.107,0.516 -4.603,2.321 -8.881,10.735 l -4.433,8.72 h 9.781 c 8.677,0 9.111,-0.111 9.9,-0.313 1.097,-0.274 3.167,-1.149 4.406,-3.848 1.028,-2.239 1.496,-5.891 -0.273,-9.427 -2.059,-4.12 -6.137,-5.967 -9.264,-5.967 l 0,0 z"
     class="waf_logo" /><path
     style="fill:#ffffff;fill-opacity:1"
     inkscape:connector-curvature="0"
     id="path3251"
     d="m 400.35897,216.49156 c -0.488,0 -0.942,-0.251 -1.202,-0.666 l -2.712,-4.34 c -0.258,-0.413 -0.286,-0.929 -0.074,-1.367 0.212,-0.438 0.634,-0.737 1.117,-0.792 0.389,-0.044 38.903,-4.577 45.643,-20.427 2.156,-5.072 0.718,-10.948 -4.277,-17.463 -0.401,-0.523 -0.389,-1.256 0.032,-1.765 0.276,-0.335 0.681,-0.515 1.094,-0.515 0.214,0 0.431,0.048 0.633,0.149 3.297,1.648 19.829,9.957 21.533,11.663 0.526,0.527 0.554,1.373 0.064,1.935 -1.301,1.492 -2.983,4.302 -2.466,5.593 0.667,1.666 4.341,4.47 6.5,5.846 0.346,0.221 0.579,0.58 0.64,0.985 0.061,0.405 -0.057,0.817 -0.323,1.13 -0.659,0.772 -16.717,18.946 -66.17,20.033 -0.012,0.001 -0.022,0.001 -0.032,0.001 l 0,0 z"
     class="waf_logo" /><path
     style="fill:#ffffff;fill-opacity:1"
     inkscape:connector-curvature="0"
     id="path3253"
     d="m 439.97797,170.57456 c 0,0 19.536,9.768 21.164,11.397 0,0 -3.801,4.342 -2.714,7.053 1.086,2.715 7.054,6.514 7.054,6.514 0,0 -15.736,18.451 -65.123,19.536 l -2.712,-4.34 c 0,0 67.294,-7.599 42.331,-40.16 m 10e-4,-2.835 c -0.825,0 -1.634,0.36 -2.187,1.03 -0.841,1.018 -0.867,2.481 -0.064,3.529 4.728,6.166 6.067,11.415 4.098,16.048 -5.332,12.535 -33.928,18.378 -44.497,19.571 -0.967,0.109 -1.811,0.707 -2.234,1.584 -0.423,0.876 -0.367,1.909 0.148,2.734 l 2.712,4.34 c 0.52,0.83 1.429,1.333 2.404,1.333 0.021,0 0.041,-0.001 0.063,-0.001 50.081,-1.101 66.541,-19.738 67.218,-20.53 0.532,-0.625 0.768,-1.449 0.646,-2.261 -0.122,-0.811 -0.59,-1.53 -1.281,-1.971 -2.46,-1.568 -5.507,-4.08 -5.944,-5.175 -0.117,-0.636 0.995,-2.739 2.215,-4.133 0.982,-1.123 0.927,-2.814 -0.127,-3.87 -1.7,-1.702 -14.452,-8.205 -21.902,-11.93 -0.406,-0.201 -0.838,-0.298 -1.268,-0.298 l 0,0 z"
     class="waf_logo" /><path
     inkscape:connector-curvature="0"
     id="path3257"
     d="m 352.94097,220.96856 c -16.807,0 -26.4,-4.421 -28.516,-13.142 -5.538,-22.847 13.735,-39.743 13.931,-39.911 0.258,-0.223 0.586,-0.343 0.924,-0.343 0.035,0 0.071,10e-4 0.107,0.004 0.375,0.028 0.724,0.205 0.969,0.49 l 1.473,1.717 c 0.508,0.593 0.441,1.485 -0.15,1.996 -0.17,0.147 -17.083,15.117 -12.302,34.846 1.488,6.135 9.481,9.246 23.758,9.246 0,0 0.41,-10e-4 0.412,-10e-4 0.779,0 1.412,0.629 1.417,1.408 l 0.014,2.262 c 0.003,0.376 -0.145,0.738 -0.409,1.006 -0.264,0.268 -0.625,0.419 -1.001,0.42 l -0.627,0.002 z"
     class="waf_logo" /><path
     style="fill:#ffffff"
     inkscape:connector-curvature="0"
     id="path3259"
     d="m 339.27997,168.99056 1.473,1.717 c -0.178,0.153 -17.769,15.562 -12.753,36.253 1.67,6.887 10.162,10.329 25.135,10.329 0.138,0 0.273,0 0.412,-0.001 l 0.014,2.262 c -0.206,0.001 -0.415,0.002 -0.619,0.002 -16.07,0 -25.197,-4.056 -27.139,-12.059 -5.348,-22.058 13.288,-38.341 13.477,-38.503 m 0,-2.835 c -0.676,0 -1.332,0.242 -1.849,0.686 -0.202,0.174 -20.124,17.641 -14.384,41.32 2.29,9.439 12.348,14.226 29.894,14.226 l 0.633,-0.002 c 0.752,-0.004 1.473,-0.307 2.002,-0.842 0.528,-0.534 0.823,-1.258 0.819,-2.011 l -0.014,-2.262 c -0.01,-1.559 -1.276,-2.817 -2.835,-2.817 -0.004,0 -0.008,0 -0.012,0 l -0.4,10e-4 c -9.307,0 -20.744,-1.416 -22.38,-8.162 -4.565,-18.836 11.691,-33.301 11.856,-33.444 1.172,-1.023 1.306,-2.806 0.293,-3.986 l -1.473,-1.717 c -0.49,-0.571 -1.187,-0.924 -1.937,-0.98 -0.071,-0.007 -0.142,-0.01 -0.213,-0.01 l 0,0 z"
     class="waf_logo" /><path
     class="waf_logo"
     d="m 391.67697,207.11357 c 0,0 -35.293,1.172 -45.758,-4.478 0,0 5.222,-19.1 20.915,-22.586 0,0 19.796,15.029 24.843,27.064 z"
     id="path3261"
     inkscape:connector-curvature="0"
     style="fill:#ffffff"
     inkscape:export-filename="/media/Owncloud/waf/graphics/WAF_LOGO.PNG"
     inkscape:export-xdpi="150"
     inkscape:export-ydpi="150" /><path
     class="waf_logo"
     d="m 379.80997,150.22957 c -1.258,-8.818 18.568,-25.624 18.568,-25.624 0,0 -45.129,9.314 -45.129,26.952"
     id="path3263"
     inkscape:connector-curvature="0"
     style="fill:none;stroke:#000000;stroke-width:2.26149988"
     inkscape:export-filename="/media/Owncloud/waf/graphics/WAF_LOGO.PNG"
     inkscape:export-xdpi="150"
     inkscape:export-ydpi="150" /><path
     style="fill:#6c7073;fill-opacity:1"
     inkscape:connector-curvature="0"
     id="path3267"
     d="m 352.11897,152.97456 c -0.783,0 -1.417,-0.634 -1.417,-1.417 0,-19.168 42.335,-28.452 47.162,-29.447 0.096,-0.021 0.191,-0.029 0.286,-0.029 0.534,0 1.033,0.302 1.274,0.796 l 0.96,1.97 c 0.283,0.582 0.137,1.283 -0.357,1.702 -7.787,6.603 -18.425,18.203 -17.694,23.321 0.11,0.775 -0.429,1.493 -1.203,1.604 l -2.238,0.319 c -0.068,0.01 -0.136,0.015 -0.202,0.015 -0.694,0 -1.3,-0.511 -1.401,-1.218 -0.859,-6.021 5.43,-14.218 12.13,-21.058 -12.036,3.5 -33.62,11.279 -33.62,22.025 0,0.783 -0.634,1.417 -1.417,1.417 h -2.263 z"
     class="waf_logo" /><path
     style="fill:#ffffff"
     inkscape:connector-curvature="0"
     id="path3269"
     d="m 398.14997,123.49756 0.96,1.97 c -5.382,4.563 -19.14,17.879 -18.181,24.603 l -2.238,0.319 c -1.009,-7.07 9.919,-18.321 15.634,-23.664 -11.104,2.816 -39.944,11.426 -39.944,24.832 h -2.262 c 0,-18.348 44.151,-27.672 46.031,-28.06 m 10e-4,-2.834 c -0.19,0 -0.382,0.02 -0.573,0.059 -4.943,1.02 -48.294,10.546 -48.294,30.836 0,1.565 1.27,2.835 2.835,2.835 h 2.262 c 1.565,0 2.835,-1.27 2.835,-2.835 0,-7.496 12.932,-14.346 27.597,-19.136 -5.41,6.189 -9.697,12.973 -8.928,18.368 0.202,1.414 1.415,2.435 2.803,2.435 0.134,0 0.269,-0.01 0.404,-0.028 l 2.238,-0.319 c 1.55,-0.222 2.627,-1.657 2.406,-3.207 -0.567,-3.975 8.439,-14.605 17.207,-22.04 0.988,-0.838 1.283,-2.239 0.715,-3.404 l -0.96,-1.97 c -0.482,-0.99 -1.481,-1.594 -2.547,-1.594 l 0,0 z"
     class="waf_logo" /><path
     class="waf_logo"
     d="m 370.68997,179.61857 c 0,0 -17.561,0.067 -24.771,23.018 0,0 14.281,6.448 45.758,4.478"
     id="path3271"
     inkscape:connector-curvature="0"
     style="fill:none;stroke:#6c7073;stroke-width:2.17079997;stroke-opacity:1"
     inkscape:export-filename="/media/Owncloud/waf/graphics/WAF_LOGO.PNG"
     inkscape:export-xdpi="150"
     inkscape:export-ydpi="150" /><path
     class="waf_logo"
     d="m 340.01597,169.84857 c 0,0 -18.36,15.739 -13.115,37.378 2.12,8.74 13.654,11.275 26.652,11.192"
     id="path3273"
     inkscape:connector-curvature="0"
     style="fill:none;stroke:#6c7073;stroke-width:2.26149988;stroke-linejoin:round;stroke-opacity:1"
     inkscape:export-filename="/media/Owncloud/waf/graphics/WAF_LOGO.PNG"
     inkscape:export-xdpi="150"
     inkscape:export-ydpi="150" /><path
     class="waf_logo"
     d="m 369.78797,183.05657 c 0,0 -15.444,13.184 -16.1,21.706"
     id="path3275"
     inkscape:connector-curvature="0"
     style="fill:none;stroke:#6c7073;stroke-width:2.17079997;stroke-opacity:1"
     inkscape:export-filename="/media/Owncloud/waf/graphics/WAF_LOGO.PNG"
     inkscape:export-xdpi="150"
     inkscape:export-ydpi="150" /><path
     class="waf_logo"
     d="m 357.30397,205.48657 c 0,0 13.774,-15.082 20.986,-15.736"
     id="path3277"
     inkscape:connector-curvature="0"
     style="fill:none;stroke:#6c7073;stroke-width:2.17079997;stroke-opacity:1"
     inkscape:export-filename="/media/Owncloud/waf/graphics/WAF_LOGO.PNG"
     inkscape:export-xdpi="150"
     inkscape:export-ydpi="150" /><path
     class="waf_logo"
     d="m 380.64197,192.28157 c 0,0 -7.033,6.785 -10.313,14.653"
     id="path3279"
     inkscape:connector-curvature="0"
     style="fill:none;stroke:#6c7073;stroke-width:2.17079997;stroke-opacity:1"
     inkscape:export-filename="/media/Owncloud/waf/graphics/WAF_LOGO.PNG"
     inkscape:export-xdpi="150"
     inkscape:export-ydpi="150" /><path
     class="waf_logo"
     d="m 375.21397,207.11357 c 0,0 4.545,-5.562 11.759,-6.873"
     id="path3281"
     inkscape:connector-curvature="0"
     style="fill:none;stroke:#6c7073;stroke-width:2.17079997;stroke-opacity:1"
     inkscape:export-filename="/media/Owncloud/waf/graphics/WAF_LOGO.PNG"
     inkscape:export-xdpi="150"
     inkscape:export-ydpi="150" /><path
     class="waf_logo"
     d="m 465.37897,180.46557 c -1.924,2.367 -5.329,7.119 -3.396,9.054 1.493,1.494 5.611,4.02 8.887,5.923 4.072,-4.171 5.543,-7.234 5.543,-7.234 -3.506,-2.689 -7.209,-5.271 -11.034,-7.743 z"
     id="path3283"
     inkscape:connector-curvature="0"
     inkscape:export-filename="/media/Owncloud/waf/graphics/WAF_LOGO.PNG"
     inkscape:export-xdpi="150"
     inkscape:export-ydpi="150"
     style="fill:#6c7073;fill-opacity:1" /><path
     class="waf_logo"
     d="m 166.31597,275.87157 c -0.056,0.076 -0.114,0.146 -0.174,0.222 0.209,-0.003 0.416,-0.016 0.629,-0.015 -0.266,-0.171 -0.421,-0.249 -0.455,-0.207 z"
     id="path3285"
     inkscape:connector-curvature="0"
     style="fill:none"
     inkscape:export-filename="/media/Owncloud/waf/graphics/WAF_LOGO.PNG"
     inkscape:export-xdpi="150"
     inkscape:export-ydpi="150" /><path
     class="waf_logo"
     d="m 273.35297,358.95657 c 4.911,0.49 7.688,3.225 9.256,6.158 1.31,1.931 2.179,4.537 2.044,8.056 h 12.5 c 0.627,-11.9 -14.281,-14.866 -14.281,-14.866 0,0 -0.751,-17.874 2.381,-24.137 6.061,-12.119 20.933,-51.395 20.933,-51.395 0,0 -0.382,0.463 -1.057,1.278 -16.001,30.447 -25.546,43.868 -27.464,46.748 -2.259,3.39 -4.312,28.158 -4.312,28.158 z"
     id="path3287"
     inkscape:connector-curvature="0"
     style="fill:#ffffff;fill-opacity:1;stroke:#6c7073;stroke-width:2.17079997;stroke-opacity:1"
     inkscape:export-filename="/media/Owncloud/waf/graphics/WAF_LOGO.PNG"
     inkscape:export-xdpi="150"
     inkscape:export-ydpi="150" /><path
     class="waf_logo"
     d="m 94.973971,373.17057 h 0.082 c -0.026,0 -0.057,0 -0.082,0 l 0,0 z"
     id="path3289"
     inkscape:connector-curvature="0"
     style="stroke:#000000;stroke-width:1.08539999"
     inkscape:export-filename="/media/Owncloud/waf/graphics/WAF_LOGO.PNG"
     inkscape:export-xdpi="150"
     inkscape:export-ydpi="150" /><path
     class="waf_logo"
     d="m 166.14197,276.09357 c -27.503,36.287 -60.841,33.814 -61.968,37.762 -1.079,3.778 -20.745999,41.603 -22.489999,44.954 13.646,0 13.997,14.361 13.997,14.361 h 10.971999 c 0.597,-15.108 -12.237999,-15.95 -12.237999,-15.95 l 18.500999,-37.917 c 0,0 27.704,-9.593 42.613,-30.248 6.403,-1.83 34.444,3.109 54.218,12.773 0,0 -1.281,-0.349 -1.587,-0.657 -21.379,-8.462 -38.432,-23.143 -41.389,-25.093 -0.213,0 -0.42,0.012 -0.629,0.015 z"
     id="path3291"
     inkscape:connector-curvature="0"
     style="fill:#ffffff;fill-opacity:1;stroke:#6c7073;stroke-width:2.17079997;stroke-opacity:1"
     inkscape:export-filename="/media/Owncloud/waf/graphics/WAF_LOGO.PNG"
     inkscape:export-xdpi="150"
     inkscape:export-ydpi="150" /><path
     class="waf_logo"
     d="m 394.91697,212.57057 c -4.392,-8.29 -13.95,-23.488 -28.67,-32.23"
     id="path3293"
     inkscape:connector-curvature="0"
     style="fill:none;stroke:#6c7073;stroke-width:2.17079997;stroke-opacity:1"
     inkscape:export-filename="/media/Owncloud/waf/graphics/WAF_LOGO.PNG"
     inkscape:export-xdpi="150"
     inkscape:export-ydpi="150" /><path
     style="fill:#ffffff;fill-opacity:1"
     inkscape:connector-curvature="0"
     id="path3297"
     d="m 236.54597,304.51356 c -13.803,0.001 -36.815,-5.268 -68.063,-30.372 -0.533,-0.428 -0.685,-1.175 -0.36,-1.777 0.253,-0.469 0.738,-0.745 1.248,-0.745 0.145,0 0.291,0.022 0.435,0.069 0.308,0.099 31.003,9.916 52.036,9.917 0.001,0 0.004,0 0.005,0 11.402,0 17.674,-2.812 18.645,-8.357 0.105,-0.601 0.583,-1.066 1.186,-1.157 0.07,-0.011 0.142,-0.016 0.212,-0.016 0.525,0 1.017,0.293 1.262,0.772 l 13.025,25.504 c 0.327,0.642 0.121,1.428 -0.479,1.826 -0.269,0.177 -6.689,4.336 -19.152,4.336 l 0,0 z"
     class="waf_logo" /><path
     style="fill:#ffffff;fill-opacity:1"
     inkscape:connector-curvature="0"
     id="path3299"
     d="m 169.37197,273.03756 c 0,0 30.964,9.986 52.47,9.986 10.536,0 18.798,-2.395 20.047,-9.531 l 13.025,25.504 c 0,0 -6.188,4.101 -18.367,4.101 -14.268,-10e-4 -36.761,-5.626 -67.175,-30.06 m 0,-2.835 c -1.02,0 -1.99,0.553 -2.495,1.49 -0.648,1.203 -0.346,2.698 0.72,3.555 31.567,25.36 54.919,30.685 68.95,30.685 12.886,0 19.651,-4.386 19.933,-4.572 1.202,-0.797 1.615,-2.368 0.959,-3.652 l -13.025,-25.504 c -0.489,-0.958 -1.471,-1.546 -2.523,-1.546 -0.14,0 -0.281,0.011 -0.423,0.032 -1.206,0.182 -2.16,1.113 -2.37,2.313 -0.835,4.769 -6.64,7.186 -17.255,7.186 -20.804,0 -51.294,-9.751 -51.6,-9.85 -0.289,-0.093 -0.582,-0.137 -0.871,-0.137 l 0,0 z"
     class="waf_logo" /><path
     class="waf_logo"
     d="m 466.62597,182.68357 6.513,4.113 c 0,0 -8.914,0.801 -8.341,-1.028 0.571,-1.827 1.828,-3.085 1.828,-3.085 z"
     id="path3301"
     inkscape:connector-curvature="0"
     style="fill:#ffffff"
     inkscape:export-filename="/media/Owncloud/waf/graphics/WAF_LOGO.PNG"
     inkscape:export-xdpi="150"
     inkscape:export-ydpi="150" /><path
     class="waf_logo"
     d="M 324.87897,129.59957"
     id="path3303"
     inkscape:connector-curvature="0"
     style="fill:#243b67;stroke:#000000;stroke-width:2.26149988"
     inkscape:export-filename="/media/Owncloud/waf/graphics/WAF_LOGO.PNG"
     inkscape:export-xdpi="150"
     inkscape:export-ydpi="150" /><path
     style="fill:#ffffff"
     inkscape:connector-curvature="0"
     id="path3307"
     d="m 305.44397,182.98156 c -1.36,0 -2.717,-0.681 -3.088,-1.55 -0.081,-0.187 -0.281,-0.644 -0.872,-8.486 l -0.181,-2.403 1.964,1.397 c 6.113,4.349 6.357,5.072 6.475,5.42 l 0.063,0.173 c 0.301,0.795 1.003,2.656 -1.565,4.503 -0.862,0.619 -1.828,0.946 -2.796,0.946 l 0,0 z"
     class="waf_logo" /><path
     style="fill:#6c7073;fill-opacity:1"
     inkscape:connector-curvature="0"
     id="path3309"
     d="m 302.61197,172.86056 c 0,0 5.814,4.137 6.059,4.86 0.247,0.725 0.962,1.921 -1.091,3.396 -0.756,0.543 -1.494,0.733 -2.135,0.733 -1.104,0 -1.92,-0.563 -2.049,-0.863 -0.208,-0.475 -0.784,-8.126 -0.784,-8.126 m -2.617,-4.638 0.362,4.808 c 0.604,8.035 0.797,8.475 0.967,8.863 0.546,1.278 2.282,2.219 4.121,2.219 1.205,0 2.4,-0.4 3.455,-1.159 3.272,-2.353 2.287,-4.963 1.964,-5.82 l -0.053,-0.142 c -0.222,-0.658 -0.477,-1.412 -6.888,-5.974 l -3.928,-2.795 0,0 z"
     class="waf_logo" /><path
     style="fill:#6c7073;fill-opacity:1"
     inkscape:connector-curvature="0"
     id="path3313"
     d="m 394.37797,169.45456 c -0.347,0 -0.682,-0.127 -0.941,-0.357 -1.454,-1.285 -5.872,-4.616 -8.83,-4.616 -0.783,0 -1.417,-0.634 -1.417,-1.417 v -2.17 c 0,-0.783 0.634,-1.417 1.417,-1.417 0.782,0 1.617,0.112 2.497,0.335 0.182,-1.087 0.546,-2.17 0.886,-3.022 -0.652,-0.364 -1.301,-0.663 -1.963,-0.903 -0.354,-0.129 -0.641,-0.392 -0.8,-0.732 -0.159,-0.34 -0.177,-0.731 -0.048,-1.084 l 0.742,-2.039 c 0.21,-0.576 0.753,-0.934 1.332,-0.934 0.161,0 0.324,0.028 0.484,0.086 5.461,1.986 9.056,6.313 11.435,9.175 0.633,0.761 1.146,1.378 1.542,1.774 0.062,0.062 0.396,0.224 1.181,0.224 1.27,0 2.895,-0.408 3.866,-0.787 0.165,-0.064 0.34,-0.097 0.515,-0.097 0.194,0 0.389,0.04 0.569,0.119 0.345,0.151 0.614,0.433 0.751,0.783 l 0.789,2.023 c 0.137,0.351 0.129,0.74 -0.022,1.085 -0.151,0.345 -0.434,0.614 -0.784,0.751 -0.487,0.189 -3.049,1.134 -5.635,1.134 -2.037,0 -3.643,-0.57 -4.77,-1.696 -0.1,-0.1 -0.202,-0.207 -0.306,-0.319 -0.037,0 -0.075,-10e-4 -0.113,-0.002 0.003,0.003 0.006,0.005 0.007,0.006 0.584,0.521 0.637,1.415 0.117,2 l -1.441,1.623 c -0.25,0.281 -0.603,0.452 -0.979,0.474 -0.027,0 -0.053,0 -0.081,0 l 0,0 z"
     class="waf_logo" /><path
     style="fill:#ffffff"
     inkscape:connector-curvature="0"
     id="path3315"
     d="m 387.25297,152.51456 c 5.101,1.855 8.548,6.004 10.829,8.749 0.633,0.761 1.179,1.419 1.63,1.87 0.468,0.467 1.272,0.639 2.183,0.639 1.539,0 3.377,-0.492 4.381,-0.884 l 0.789,2.023 c -0.399,0.155 -2.769,1.038 -5.121,1.038 -1.402,0 -2.798,-0.313 -3.768,-1.282 -0.212,-0.212 -0.436,-0.459 -0.667,-0.723 -0.708,-0.008 -3.093,-0.052 -5.452,-0.32 2.108,1.334 3.638,2.678 3.763,2.789 l -1.441,1.623 c -0.056,-0.05 -5.654,-4.974 -9.771,-4.974 v -2.17 c 1.249,0 2.567,0.34 3.844,0.849 -0.315,-1.896 1.02,-4.863 1.331,-5.52 -1,-0.659 -2.083,-1.237 -3.271,-1.669 l 0.741,-2.038 m 0,-2.835 c -1.158,0 -2.245,0.714 -2.664,1.865 l -0.742,2.039 c -0.257,0.707 -0.223,1.486 0.096,2.168 0.317,0.682 0.894,1.209 1.6,1.466 0.229,0.083 0.457,0.175 0.684,0.273 -0.07,0.218 -0.139,0.44 -0.201,0.667 -0.485,-0.066 -0.959,-0.1 -1.418,-0.1 -1.565,0 -2.835,1.27 -2.835,2.835 v 2.17 c 0,1.565 1.27,2.835 2.835,2.835 2.104,0 5.883,2.492 7.894,4.262 0.539,0.475 1.211,0.709 1.879,0.709 0.782,0 1.56,-0.32 2.118,-0.95 l 1.441,-1.623 c 0.074,-0.083 0.143,-0.17 0.205,-0.259 1.088,0.497 2.358,0.748 3.8,0.748 2.768,0 5.405,-0.942 6.148,-1.231 0.701,-0.272 1.265,-0.813 1.567,-1.501 0.302,-0.688 0.319,-1.47 0.046,-2.171 l -0.789,-2.023 c -0.272,-0.7 -0.813,-1.264 -1.501,-1.565 -0.363,-0.159 -0.751,-0.239 -1.14,-0.239 -0.349,0 -0.698,0.064 -1.03,0.194 -0.857,0.334 -2.323,0.689 -3.351,0.689 -0.173,0 -0.297,-0.01 -0.382,-0.021 -0.332,-0.361 -0.762,-0.878 -1.213,-1.42 l -0.038,-0.046 c -2.477,-2.979 -6.219,-7.482 -12.04,-9.601 -0.319,-0.115 -0.646,-0.17 -0.969,-0.17 l 0,0 z"
     class="waf_logo" /><path
     class="waf_logo"
     d="m 311.46697,174.45757 c 0,0 0.241,35.423 30.362,52.772 0,0 -9.398,9.882 -10.361,11.568 0,0 -28.436,-16.627 -32.532,-55.424 l 12.531,-8.916 z"
     id="path3317"
     inkscape:connector-curvature="0"
     inkscape:export-filename="/media/Owncloud/waf/graphics/WAF_LOGO.PNG"
     inkscape:export-xdpi="150"
     inkscape:export-ydpi="150"
     style="fill:#6c7073;fill-opacity:1;stroke:#6c7073;stroke-width:1;stroke-opacity:1" /><path
     style="fill:#ffffff;stroke:none"
     inkscape:connector-curvature="0"
     id="path3321"
     d="m 316.09897,227.66356 c 1.58,-9.427 2.271,-9.74 2.826,-9.991 0.394,-0.18 0.941,-0.279 1.54,-0.279 0.797,0 2.828,0.198 4.458,2.041 1.483,1.678 1.785,3.56 1.592,4.661 -0.143,0.816 -0.537,1.187 -0.843,1.354 -0.463,0.258 -6.255,2.7 -8.02,3.442 l -1.894,0.797 0.341,-2.025 z"
     class="waf_logo" /><path
     style="fill:#6c7073;fill-opacity:1;stroke:none"
     inkscape:connector-curvature="0"
     id="path3323"
     d="m 320.46497,218.52456 c 1.021,0 2.466,0.364 3.611,1.659 1.674,1.894 1.508,4.025 1.053,4.274 -0.452,0.252 -7.915,3.393 -7.915,3.393 0,0 1.48,-8.832 2.178,-9.148 0.22,-0.1 0.602,-0.178 1.073,-0.178 m 0,-2.262 c -0.535,0 -1.319,0.066 -2.011,0.382 -1.077,0.488 -1.791,0.813 -3.471,10.832 l -0.679,4.052 3.786,-1.594 c 5.028,-2.115 7.767,-3.294 8.139,-3.501 0.509,-0.278 1.18,-0.884 1.399,-2.143 0.247,-1.414 -0.111,-3.629 -1.858,-5.605 -1.362,-1.54 -3.296,-2.423 -5.305,-2.423 l 0,0 z"
     class="waf_logo" /><path
     class="waf_logo"
     style="fill:#ffffff"
     inkscape:connector-curvature="0"
     id="path3327"
     d="m 308.07897,202.16357 c -0.239,-0.02 -0.723,-0.06 -8.208,-3.536 l -1.589,-0.737 1.327,-1.145 c 5.931,-5.114 6.83,-5.114 7.215,-5.114 h 0.091 l 0.119,0.017 c 1.078,0.176 3.584,1.626 4.021,4.792 0.291,2.108 -0.558,3.949 -1.373,4.885 -0.487,0.56 -0.992,0.844 -1.5,0.844 l -0.103,-0.006 z" /><path
     class="waf_logo"
     inkscape:connector-curvature="0"
     id="path3329"
     d="m 306.82397,192.76157 c 0.01,0 0.021,0 0.029,0.002 0.754,0.123 2.735,1.324 3.081,3.83 0.343,2.479 -1.221,4.443 -1.753,4.443 -0.005,0 -0.011,-0.001 -0.016,-0.001 -0.516,-0.043 -7.818,-3.435 -7.818,-3.435 0,0 5.613,-4.839 6.477,-4.839 m 0,-2.262 c -0.76,0 -1.704,0 -7.953,5.389 l -2.653,2.288 3.178,1.476 c 7.667,3.562 8.132,3.6 8.583,3.638 l 0.094,0.008 h 0.109 c 0.85,0 1.641,-0.414 2.353,-1.231 1.018,-1.168 1.983,-3.3 1.641,-5.782 -0.481,-3.488 -3.188,-5.464 -4.957,-5.753 l -0.181,-0.029 -0.214,-0.004 0,0 z"
     style="fill:#6c7073;fill-opacity:1" /><path
     style="fill:#ffffff"
     inkscape:connector-curvature="0"
     id="path3333"
     d="m 305.44797,215.16056 0.835,-1.643 c 4.027,-7.922 4.789,-8.048 5.346,-8.14 0.121,-0.021 0.266,-0.033 0.431,-0.033 1.132,0 3.615,0.686 4.911,3.28 0.936,1.868 0.775,3.964 0.202,5.212 -0.298,0.649 -0.699,1.041 -1.191,1.164 -0.167,0.043 -0.626,0.16 -8.67,0.16 l -1.864,0 z"
     class="waf_logo" /><path
     style="fill:#6c7073;fill-opacity:1"
     inkscape:connector-curvature="0"
     id="path3335"
     d="m 312.05897,206.47556 c 0.917,0 2.874,0.603 3.899,2.654 1.132,2.261 0.251,4.648 -0.252,4.774 -0.486,0.124 -7.955,0.126 -8.396,0.126 -0.014,0 -0.021,0 -0.021,0 0,0 3.769,-7.412 4.522,-7.537 0.071,-0.011 0.154,-0.017 0.248,-0.017 m 0,-2.262 c -0.217,0 -0.425,0.017 -0.619,0.049 -1.089,0.181 -1.879,0.312 -6.165,8.742 l -1.671,3.287 h 3.687 c 8.207,0 8.651,-0.113 8.976,-0.196 0.568,-0.143 1.375,-0.57 1.934,-1.786 0.636,-1.385 0.96,-3.837 -0.219,-6.192 -1.341,-2.682 -4.01,-3.904 -5.923,-3.904 l 0,0 z"
     class="waf_logo" /><path
     style="fill:#ffffff"
     inkscape:connector-curvature="0"
     id="path3339"
     d="m 339.06497,238.26856 c -7.011,-2.671 -7.429,-3.31 -7.63,-3.616 l -0.109,-0.159 c -0.487,-0.693 -1.629,-2.318 0.39,-4.748 0.942,-1.134 2.206,-1.758 3.559,-1.758 0.983,0 1.882,0.34 2.287,0.865 0.125,0.158 0.433,0.55 2.977,7.994 l 0.779,2.28 -2.253,-0.858 z"
     class="waf_logo" /><path
     style="fill:#6c7073;fill-opacity:1"
     inkscape:connector-curvature="0"
     id="path3341"
     d="m 335.27397,229.11856 c 0.701,0 1.244,0.234 1.392,0.425 0.32,0.407 2.802,7.669 2.802,7.669 0,0 -6.668,-2.541 -7.087,-3.18 -0.419,-0.642 -1.412,-1.618 0.205,-3.564 0.864,-1.041 1.88,-1.35 2.688,-1.35 m 0,-2.262 c -1.694,0 -3.267,0.77 -4.428,2.166 -2.571,3.095 -0.972,5.372 -0.446,6.12 0.031,0.045 0.061,0.086 0.087,0.126 0.387,0.591 0.823,1.255 8.175,4.057 l 4.504,1.717 -1.559,-4.562 c -2.605,-7.626 -2.902,-8.003 -3.164,-8.336 -0.617,-0.8 -1.807,-1.288 -3.169,-1.288 l 0,0 z"
     class="waf_logo" /><path
     class="waf_logo"
     d="M 394.91197,127.81157"
     id="path3343"
     inkscape:connector-curvature="0"
     style="fill:none;stroke:#000000;stroke-width:2.26149988"
     inkscape:export-filename="/media/Owncloud/waf/graphics/WAF_LOGO.PNG"
     inkscape:export-xdpi="150"
     inkscape:export-ydpi="150" /><path
     class="waf_logo"
     d="m 394.91197,127.81157 c 6.909,-2.124 12.148,-3.206 12.148,-3.206 0,0 -14.501,12.292 -17.913,21.367"
     id="path3345"
     inkscape:connector-curvature="0"
     style="fill:none;stroke:#6c7073;stroke-width:2.26149988;stroke-opacity:1"
     inkscape:export-filename="/media/Owncloud/waf/graphics/WAF_LOGO.PNG"
     inkscape:export-xdpi="150"
     inkscape:export-ydpi="150" /><path
     style="fill:none;stroke:#6c7073;stroke-width:2.26099992;stroke-miterlimit:4;stroke-opacity:1;stroke-dasharray:none"
     d="m 398.375,124.59375 c 0,0 -31.4205,6.50125 -41.8125,18.90625 -19.938,3.898 -29.631,16.8055 -37.25,23.8125 -9.042,8.321 -19.524,18.1065 -37.25,22.8125 -17.729,4.703 -96.623,9.76125 -141.125,19.53125 -9.187,2.016 -16.601,5.87875 -22.625,10.84375 l -79.75,0 c 0,0 3.88775,14.7825 66.84375,15.1875 -11.306999,18.682 -13.049,41.14725 -14.375,47.78125 -2.171,10.854 -9.78125,21.6875 -9.78125,21.6875 0,0 -19.5295,40.17225 -15.1875,54.28125 1.274,4.141 5.97875,13.75 9.84375,13.75 l 19.78125,0 c 0,0 -0.354,-14.375 -14,-14.375 1.744,-3.352 21.422,-41.19075 22.5,-44.96875 1.13,-3.955 34.59,-1.44375 62.125,-37.96875 0.64,-0.85 48.44075,43.7625 88.71875,27.8125 1.694,6.779 1.375,50.75 1.375,50.75 0,0 1.11625,18.65625 10.15625,18.65625 l 18.09375,0 c 0,0 -0.0125,-12.995 -11.3125,-14.125 0,0 2.0535,-24.76825 4.3125,-28.15625 2.259,-3.391 15.09275,-21.39075 36.59375,-64.59375 11.945,-24.01 25.8615,-39.66525 39.3125,-47.78125 l 0.21875,0 c 15.448,-0.135 32.88625,-3.95125 39.03125,-5.40625 L 395,212.75 c 1.808,3.428 2.71875,5.625 2.71875,5.625 64.263,0 78.6875,-30.15625 78.6875,-30.15625 -35.504,-27.267 -91.22,-43.48625 -94.875,-44.53125 4.646,-8.717 16.84375,-19.09375 16.84375,-19.09375 z"
     id="path3347"
     inkscape:connector-curvature="0" /><path
     class="waf_logo"
     style="fill:#ffffff"
     inkscape:connector-curvature="0"
     id="path3351"
     d="m 303.71497,188.93757 c -0.233,0 -0.447,-0.044 -0.636,-0.13 -0.237,-0.107 -0.692,-0.312 -5.945,-6.34 l -1.262,-1.448 1.878,-0.4 c 0.579,-0.124 5.709,-1.208 7.471,-1.208 0.435,0 0.728,0.06 0.981,0.199 1.821,1.007 2.596,2.866 2.124,5.103 -0.584,2.773 -3.312,4.224 -4.611,4.224 l 0,0 z" /><path
     class="waf_logo"
     inkscape:connector-curvature="0"
     id="path3353"
     d="m 305.22097,180.54157 c 0.21,0 0.36,0.018 0.435,0.059 0.67,0.37 2.086,1.406 1.564,3.879 -0.478,2.264 -2.76,3.327 -3.505,3.327 -0.069,0 -0.125,-0.009 -0.165,-0.027 -0.473,-0.213 -5.563,-6.055 -5.563,-6.055 0,0 5.542,-1.183 7.234,-1.183 m 0,-2.261 c -1.838,0 -6.742,1.026 -7.706,1.232 l -3.757,0.802 2.523,2.896 c 5.416,6.215 5.844,6.408 6.34,6.632 0.325,0.148 0.697,0.227 1.094,0.227 1.665,0 4.999,-1.712 5.718,-5.122 0.572,-2.716 -0.431,-5.08 -2.684,-6.325 -0.546,-0.303 -1.103,-0.342 -1.528,-0.342 l 0,0 z"
     style="fill:#6c7073;fill-opacity:1" /><path
     style="fill:#ffffff"
     inkscape:connector-curvature="0"
     id="path3357"
     d="m 328.71397,238.96356 c -2.239,-8.45 -1.807,-9.06 -1.49,-9.505 0.605,-0.859 1.895,-1.781 3.688,-1.781 0.604,0 1.234,0.106 1.871,0.315 2.243,0.737 3.028,2.269 3.263,2.894 0.163,0.438 0.379,1.272 -0.018,1.939 -0.268,0.454 -3.468,4.313 -5.353,6.572 l -1.4,1.68 -0.561,-2.114 z"
     class="waf_logo" /><path
     style="fill:#6c7073;fill-opacity:1"
     inkscape:connector-curvature="0"
     id="path3359"
     d="m 330.91197,228.80856 c 0.454,0 0.96,0.075 1.519,0.259 2.402,0.79 2.891,2.735 2.626,3.18 -0.264,0.448 -5.249,6.427 -5.249,6.427 0,0 -2.104,-7.938 -1.661,-8.561 0.338,-0.481 1.265,-1.305 2.765,-1.305 m 0,-2.262 c -2.226,0 -3.843,1.169 -4.614,2.263 -0.585,0.825 -1.052,1.481 1.323,10.443 l 1.121,4.229 2.803,-3.36 c 5.104,-6.12 5.354,-6.547 5.461,-6.729 0.467,-0.784 0.504,-1.819 0.099,-2.903 -0.614,-1.643 -2.061,-2.944 -3.968,-3.571 -0.753,-0.247 -1.501,-0.372 -2.225,-0.372 l 0,0 z"
     class="waf_logo" /><path
     class="waf_logo"
     d="m 149.81897,414.46085 -12.774,10.12 -2.271,-1.232 0.777,-9.496 -7.619,5.789 -2.288,-1.242 1.624,-16.165 4.064,2.2 -1.206,8.673 7.004,-5.527 2.806,1.522 -0.867,8.854 6.732,-5.677 4.018,2.181 z"
     id="path3101"
     inkscape:connector-curvature="0"
     style="fill:#6c7073;fill-opacity:1" /><path
     class="waf_logo"
     d="m 160.55497,434.55985 -4.23,-1.725 0.015,-3.233 -5.95,-2.424 -2.271,2.313 -4.228,-1.725 11.643,-11.231 4.566,1.865 0.455,16.16 z m -4.193,-7.725 0.032,-5.82 -4.066,4.176 4.034,1.644 z"
     id="path3105"
     inkscape:connector-curvature="0"
     style="fill:#6c7073;fill-opacity:1" /><path
     class="waf_logo"
     d="m 177.77197,438.74685 c -0.343,0.022 -0.635,0.037 -0.875,0.047 -0.241,0.011 -0.47,0.015 -0.69,0.016 -0.22,0 -0.534,-0.009 -0.942,-0.029 -0.692,-0.046 -1.373,-0.126 -2.041,-0.242 -0.666,-0.116 -1.357,-0.28 -2.075,-0.5 -1.439,-0.432 -2.686,-1.096 -3.747,-1.988 -1.06,-0.895 -1.793,-2.001 -2.19,-3.326 -0.401,-1.325 -0.356,-2.791 0.13,-4.397 0.31,-1.036 0.808,-1.996 1.487,-2.88 0.679,-0.887 1.5,-1.509 2.454,-1.874 0.79,-0.305 1.556,-0.49 2.292,-0.553 0.735,-0.063 1.432,-0.046 2.086,0.055 0.653,0.101 1.355,0.266 2.113,0.494 1.247,0.378 2.249,0.781 3.001,1.212 0.757,0.436 1.571,0.949 2.443,1.546 l -1.012,3.353 c -0.524,-0.568 -1.109,-1.085 -1.75,-1.553 -0.638,-0.467 -1.494,-0.863 -2.563,-1.186 -1.231,-0.373 -2.288,-0.438 -3.168,-0.195 -0.88,0.245 -1.563,0.647 -2.048,1.207 -0.485,0.56 -0.819,1.142 -1.003,1.748 -0.216,0.714 -0.247,1.425 -0.096,2.127 0.152,0.707 0.511,1.341 1.074,1.909 0.564,0.569 1.322,0.997 2.279,1.284 0.544,0.162 1.145,0.266 1.8,0.309 l 0.503,-1.665 -1.92,-0.58 0.86,-2.852 5.651,1.708 -2.053,6.805 z"
     id="path3109"
     inkscape:connector-curvature="0"
     style="fill:#6c7073;fill-opacity:1" /><path
     class="waf_logo"
     d="m 193.89497,443.36785 -10.916,-2.295 3.044,-14.479 10.739,2.259 -0.61,2.904 -6.372,-1.339 -0.559,2.652 6.08,1.278 -0.614,2.913 -6.079,-1.278 -0.649,3.093 6.549,1.377 -0.613,2.915 z"
     id="path3113"
     inkscape:connector-curvature="0"
     style="fill:#6c7073;fill-opacity:1" /><path
     class="waf_logo"
     d="m 214.83497,446.14785 -3.943,-0.461 -6.662,-9.079 -0.96,8.185 -4.392,-0.516 1.724,-14.694 3.935,0.462 6.646,9.034 0.953,-8.144 4.424,0.52 -1.725,14.693 z"
     id="path3117"
     inkscape:connector-curvature="0"
     style="fill:#6c7073;fill-opacity:1" /><path
     class="waf_logo"
     d="m 225.18297,446.57585 -4.458,-0.183 0.603,-14.783 4.458,0.182 -0.603,14.784 z"
     id="path3121"
     inkscape:connector-curvature="0"
     style="fill:#6c7073;fill-opacity:1" /><path
     class="waf_logo"
     d="m 247.06797,446.25885 -3.971,0.137 -7.952,-7.972 0.279,8.234 -4.416,0.153 -0.506,-14.788 3.96,-0.135 7.928,7.931 -0.281,-8.195 4.45,-0.151 0.509,14.786 z"
     id="path3125"
     inkscape:connector-curvature="0"
     style="fill:#6c7073;fill-opacity:1" /><path
     class="waf_logo"
     d="m 266.55197,442.84085 c -0.304,0.163 -0.56,0.298 -0.773,0.402 -0.216,0.107 -0.423,0.21 -0.623,0.3 -0.202,0.092 -0.49,0.214 -0.873,0.364 -0.649,0.245 -1.302,0.452 -1.957,0.622 -0.658,0.17 -1.355,0.305 -2.096,0.403 -1.488,0.198 -2.9,0.108 -4.235,-0.265 -1.336,-0.375 -2.458,-1.086 -3.369,-2.125 -0.911,-1.039 -1.478,-2.394 -1.699,-4.061 -0.141,-1.072 -0.087,-2.148 0.169,-3.237 0.253,-1.085 0.74,-1.991 1.461,-2.719 0.596,-0.603 1.215,-1.085 1.858,-1.449 0.644,-0.361 1.285,-0.631 1.924,-0.811 0.635,-0.177 1.345,-0.318 2.129,-0.422 1.291,-0.172 2.368,-0.218 3.233,-0.135 0.866,0.081 1.819,0.214 2.863,0.399 l 0.463,3.468 c -0.715,-0.298 -1.46,-0.528 -2.234,-0.693 -0.775,-0.16 -1.719,-0.168 -2.824,-0.02 -1.278,0.17 -2.267,0.547 -2.968,1.132 -0.701,0.586 -1.158,1.233 -1.366,1.943 -0.211,0.71 -0.276,1.378 -0.19,2.005 0.098,0.741 0.36,1.4 0.792,1.979 0.426,0.579 1.017,1.01 1.766,1.295 0.749,0.285 1.616,0.36 2.602,0.229 0.565,-0.075 1.157,-0.229 1.771,-0.462 l -0.229,-1.724 -1.988,0.263 -0.393,-2.951 5.851,-0.777 0.935,7.047 z"
     id="path3129"
     inkscape:connector-curvature="0"
     style="fill:#6c7073;fill-opacity:1" /><path
     class="waf_logo"
     d="m 283.09197,440.41085 -10.891,2.414 -3.2,-14.448 10.711,-2.373 0.645,2.898 -6.357,1.408 0.586,2.646 6.065,-1.345 0.644,2.909 -6.065,1.345 0.684,3.084 6.536,-1.448 0.642,2.91 z"
     id="path3133"
     inkscape:connector-curvature="0"
     style="fill:#6c7073;fill-opacity:1" /><path
     class="waf_logo"
     d="m 303.33197,434.28085 -3.78,1.21 -9.819,-5.512 2.51,7.848 -4.21,1.346 -4.506,-14.09 3.773,-1.208 9.785,5.479 -2.496,-7.808 4.242,-1.355 4.501,14.09 z"
     id="path3137"
     inkscape:connector-curvature="0"
     style="fill:#6c7073;fill-opacity:1" /><path
     class="waf_logo"
     d="m 327.69897,416.15985 c 0.556,1.14 0.814,2.215 0.781,3.226 -0.033,1.008 -0.289,1.918 -0.763,2.727 -0.47,0.808 -1.062,1.514 -1.772,2.112 -0.708,0.6 -1.467,1.095 -2.274,1.487 -1.125,0.547 -2.314,0.888 -3.566,1.024 -1.252,0.134 -2.46,-0.085 -3.627,-0.656 -1.165,-0.57 -2.105,-1.597 -2.826,-3.074 l -3.579,-7.342 4.004,-1.949 3.07,6.306 c 0.428,0.875 0.907,1.539 1.439,1.988 0.531,0.448 1.088,0.697 1.668,0.743 0.58,0.045 1.18,-0.083 1.789,-0.381 0.59,-0.287 1.048,-0.671 1.375,-1.156 0.327,-0.484 0.477,-1.071 0.453,-1.763 -0.024,-0.693 -0.252,-1.478 -0.678,-2.354 l -3.08,-6.324 4.011,-1.954 3.575,7.34 z"
     id="path3141"
     inkscape:connector-curvature="0"
     style="fill:#6c7073;fill-opacity:1" /><path
     class="waf_logo"
     d="m 345.12397,413.53785 -9.633,5.791 -7.623,-12.68 3.824,-2.299 5.796,9.642 5.811,-3.493 1.825,3.039 z"
     id="path3145"
     inkscape:connector-curvature="0"
     style="fill:#6c7073;fill-opacity:1" /><path
     class="waf_logo"
     d="m 351.94297,395.19185 -4.443,3.109 6.422,9.174 -3.646,2.551 -6.421,-9.172 -4.444,3.109 -2.063,-2.945 12.532,-8.774 2.063,2.948 z"
     id="path3149"
     inkscape:connector-curvature="0"
     style="fill:#6c7073;fill-opacity:1" /><path
     class="waf_logo"
     d="m 365.50297,398.56185 -3.469,2.806 -9.302,-11.505 3.468,-2.808 9.303,11.507 z"
     id="path3153"
     inkscape:connector-curvature="0"
     style="fill:#6c7073;fill-opacity:1" /><path
     class="waf_logo"
     d="m 382.55497,383.06285 -3.238,3.068 -5.897,-6.222 0.493,6.372 -0.255,0.243 -6.342,-0.828 5.896,6.221 -3.145,2.981 -10.181,-10.735 2.938,-2.783 7.119,0.9 -0.503,-7.172 2.936,-2.783 10.179,10.738 z"
     id="path3157"
     inkscape:connector-curvature="0"
     style="fill:#6c7073;fill-opacity:1" /><path
     class="waf_logo"
     d="m 397.10797,366.47285 -2.976,3.465 -3.063,-1.042 -4.186,4.876 1.474,2.888 -2.976,3.463 -6.961,-14.602 3.215,-3.744 15.473,4.696 z m -8.656,1.525 -5.508,-1.875 2.668,5.182 2.84,-3.307 z"
     id="path3161"
     inkscape:connector-curvature="0"
     style="fill:#6c7073;fill-opacity:1" /><path
     class="waf_logo"
     d="m 397.46097,346.86785 -3.183,4.389 9.066,6.571 -2.612,3.604 -9.068,-6.569 -3.182,4.391 -2.913,-2.112 8.979,-12.385 2.913,2.111 z"
     id="path3165"
     inkscape:connector-curvature="0"
     style="fill:#6c7073;fill-opacity:1" /><path
     class="waf_logo"
     d="m 414.81097,339.92285 -5.774,9.545 -12.657,-7.654 5.675,-9.389 2.539,1.534 -3.366,5.571 2.318,1.402 3.214,-5.316 2.549,1.541 -3.215,5.318 2.705,1.634 3.462,-5.729 2.55,1.543 z"
     id="path3169"
     inkscape:connector-curvature="0"
     style="fill:#6c7073;fill-opacity:1" /><path
     class="waf_logo"
     d="m 416.74297,310.24285 -2.203,4.954 10.23,4.552 -1.809,4.068 -10.231,-4.555 -2.206,4.957 -3.285,-1.465 6.219,-13.975 3.285,1.464 z"
     id="path3173"
     inkscape:connector-curvature="0"
     style="fill:#6c7073;fill-opacity:1" /><path
     class="waf_logo"
     d="m 432.28097,299.80485 -3.659,10.538 -13.975,-4.855 3.6,-10.366 2.804,0.974 -2.137,6.15 2.563,0.89 2.037,-5.867 2.813,0.977 -2.039,5.869 2.988,1.035 2.193,-6.322 2.812,0.977 z"
     id="path3177"
     inkscape:connector-curvature="0"
     style="fill:#6c7073;fill-opacity:1" /><path
     class="waf_logo"
     d="m 437.76197,279.20185 -1.117,4.431 -3.201,0.436 -1.571,6.234 2.61,1.922 -1.115,4.432 -12.75,-9.958 1.206,-4.784 15.938,-2.713 z m -7.065,5.233 -5.766,0.782 4.701,3.44 1.065,-4.222 z"
     id="path3181"
     inkscape:connector-curvature="0"
     style="fill:#6c7073;fill-opacity:1" /><path
     class="waf_logo"
     d="m 440.99197,258.16085 -0.639,4.416 -8.483,-1.224 4.338,4.69 -0.053,0.35 -5.487,3.285 8.484,1.223 -0.62,4.291 -14.644,-2.114 0.578,-4.003 6.143,-3.709 -4.84,-5.314 0.579,-4.004 14.644,2.113 z"
     id="path3185"
     inkscape:connector-curvature="0"
     style="fill:#6c7073;fill-opacity:1" /><flowRoot
     xml:space="preserve"
     id="flowRoot3918"
     style="font-size:40px;font-style:normal;font-weight:normal;line-height:125%;letter-spacing:0px;word-spacing:0px;fill:#000000;fill-opacity:1;stroke:none;font-family:Sans"
     transform="translate(4.2019713,4.2205663)"><flowRegion
       id="flowRegion3920"><rect
         id="rect3922"
         width="203.8051"
         height="45.359062"
         x="-39.145493"
         y="437.56796" /></flowRegion><flowPara
       id="flowPara3924" /></flowRoot><path
     style="fill:#ffffff"
     d="m 408.28125,13.406251 -9.3125,0.40625 -77.0625,4.15625 -6,0.40625 -1.15625,5.6875 -14.40625,73.28125 -19.21875,-71.0625 -1.4375,-5.28125 -5.5,0.4375 -33.65625,2.84375 -4.4375,0.40625 -1.78125,4.625 L 194.5,147.28125 190.03125,162.59375 201.6875,157 l 27.25,-12.59375 3.875,-1.71875 1.375,-4.75 4.09375,-13.90625 21.21875,-7.96875 1.4375,7.59375 1.1875,6.375 6.09375,-2.5 28.53125,-11.40625 0,0.0312 7.8125,-3 1.0625,-0.40625 27.65625,-10.125 4.90625,-1.71875 1.25,-4.718749 6.8125,-25.375 31.125,-7 5.125,-1.125 1.59375,-4.28125 4.90625,-12.9687 2.5625,-6.6875 1.09375,-0.125 5.375,-0.65625 1.75,-4.28125 5.46875,-13.15625 3.03125,-7.125 z m -9.875,6.125 -5.375,13.375 -44.59375,5.125 -3.53125,12.8125 7.03125,-1.1875 0.21875,-0.03125 30.125,-4.78125 -4.84375,13.1875 -36.5625,7.78125 -8,30.65625 -27.78125,9.749999 16.65625,-81.499999 76.65625,-5.1875 z m -185.5625,7.34375 -9.59375,0.96875 -28.9375,3.03125 -5.4375,0.625 -0.9375,6.75 -4.40625,33.34375 -7.59375,-31.40625 -1.71875,-7.03125 -5.75,0.6875 -28.625,3.5 -5.25,0.6875 -0.84375,7.03125 -4.5625,38.75 -7.1875,-35.6875 -1.6875,-8.25 -6.09375,0.84375 -28.6875,4 -8.375,1.21875 2.875,11.9375 34.1875,146.312499 1.96875,8.5625 5.8125,-3.375 25.375,-14.3125 4.1875,-2.28125 0.75,-6.375 L 139,131.875 l 10.375,42.875 1.8125,7.5 5.75,-3 25.84375,-13.09375 4.25,-2.09375 0.96875,-5.75 22.53125,-120.499999 2.3125,-10.9375 z m 61.4375,1.9375 21.875,80.656249 -28.6875,11 L 264.875,106.6875 233.46875,117.96875 228,136.8125 l -27.40625,12.21875 40.1875,-116.906249 33.5,-3.3125 z m -70.625,7.375 -22.0625,121.718749 -25.96875,12.71875 -18.5,-76.249999 -11.25,91.656249 -25.5,13.9375 -33.71875,-144.999999 28.5625,-4.4375 11.40625,56.374999 2.5625,12.90625 1.84375,9.25 1.0625,-9.6875 1.5,-13.375 7.09375,-59.156249 28.5,-3.90625 11.84375,48.65625 2.46875,10.374999 2,8.3125 1.125,-8.9375 1.40625,-10.999999 6.875,-50.71875 28.75,-3.4375 z m 51,19.53125 -13.5,38.15625 6.78125,-1.96875 0.90625,-0.25 5.6875,-1.65625 0.0312,0 6.8125,-1.9375 -6.71875,-32.34375 z"
     id="path4023"
     inkscape:connector-curvature="0" /></svg>
