<?xml version="1.0" encoding="UTF-8" standalone="no"?>
<!-- Generator: Adobe Illustrator 15.0.2, SVG Export Plug-In . SVG Version: 6.00 Build 0)  -->

<svg
   xmlns:dc="http://purl.org/dc/elements/1.1/"
   xmlns:cc="http://creativecommons.org/ns#"
   xmlns:rdf="http://www.w3.org/1999/02/22-rdf-syntax-ns#"
   xmlns:svg="http://www.w3.org/2000/svg"
   xmlns="http://www.w3.org/2000/svg"
   xmlns:xlink="http://www.w3.org/1999/xlink"
   xmlns:sodipodi="http://sodipodi.sourceforge.net/DTD/sodipodi-0.dtd"
   xmlns:inkscape="http://www.inkscape.org/namespaces/inkscape"
   version="1.1"
   id="Laag_1"
   x="0px"
   y="0px"
   width="466.50854"
   height="447.44458"
   viewBox="0 0 466.50854 447.44456"
   enable-background="new 0 0 481.89 481.89"
   xml:space="preserve"
   inkscape:version="0.48.5 r10040"
   sodipodi:docname="WAF_FULL_OUTLINE.svg"><metadata
     id="metadata3286"><rdf:RDF><cc:Work
         rdf:about=""><dc:format>image/svg+xml</dc:format><dc:type
           rdf:resource="http://purl.org/dc/dcmitype/StillImage" /><dc:title></dc:title></cc:Work></rdf:RDF></metadata><defs
     id="defs3284"><linearGradient
       inkscape:collect="always"
       id="linearGradient4440"><stop
         style="stop-color:#ffb380;stop-opacity:1;"
         offset="0"
         id="stop4442" /><stop
         style="stop-color:#ffb380;stop-opacity:0;"
         offset="1"
         id="stop4444" /></linearGradient><linearGradient
       inkscape:collect="always"
       xlink:href="#linearGradient4440"
       id="linearGradient4463"
       gradientUnits="userSpaceOnUse"
       x1="-94.21096"
       y1="269.28366"
       x2="-40.427692"
       y2="323.78885" /><clipPath
       clipPathUnits="userSpaceOnUse"
       id="clipPath4702"><circle
         d="m 410.73801,241.01401 c 0,102.37647 -82.99253,185.369 -185.36901,185.369 C 122.99253,426.38301 40,343.39048 40,241.01401 40,138.63753 122.99253,55.645004 225.369,55.645004 c 102.37648,0 185.36901,82.992526 185.36901,185.369006 z"
         cx="225.369"
         cy="241.01401"
         r="185.369"
         id="circle4704"
         sodipodi:cx="225.369"
         sodipodi:cy="241.01401"
         sodipodi:rx="185.369"
         sodipodi:ry="185.369"
         transform="matrix(0.59821634,0,0,-0.56385238,-3657.5369,3052.3922)"
         style="fill:#b1dffc;fill-opacity:1" /></clipPath></defs><sodipodi:namedview
     pagecolor="#ffffff"
     bordercolor="#666666"
     borderopacity="1"
     objecttolerance="10"
     gridtolerance="10"
     guidetolerance="10"
     inkscape:pageopacity="0"
     inkscape:pageshadow="2"
     inkscape:window-width="1440"
     inkscape:window-height="802"
     id="namedview3282"
     showgrid="false"
     inkscape:zoom="0.34629728"
     inkscape:cx="435.1551"
     inkscape:cy="50.32304"
     inkscape:window-x="0"
     inkscape:window-y="0"
     inkscape:window-maximized="1"
     inkscape:current-layer="Laag_1"
     inkscape:snap-bbox="true"
     inkscape:snap-bbox-midpoints="true"
     fit-margin-top="0"
     fit-margin-left="0"
     fit-margin-right="0"
     fit-margin-bottom="0" /><g
     id="g4552"
     transform="matrix(0.93937515,0,0,0.93937515,649.54419,148.91574)"><path
       transform="matrix(1.2474486,0,0,1.2474486,235.7072,-127.9603)"
       d="m -361.41753,166.41541 c 0,105.44125 -85.47703,190.91828 -190.91829,190.91828 -105.44126,0 -190.91828,-85.47703 -190.91828,-190.91828 0,-105.441264 85.47702,-190.918294 190.91828,-190.918294 105.44126,0 190.91829,85.47703 190.91829,190.918294 z"
       sodipodi:ry="190.91829"
       sodipodi:rx="190.91829"
       sodipodi:cy="166.41541"
       sodipodi:cx="-552.33582"
       id="path4550"
       style="fill:#ffffff;fill-opacity:1;stroke:none"
       sodipodi:type="arc" /><path
       sodipodi:type="arc"
       style="fill:#ffffff;fill-opacity:1;stroke:none"
       id="path4563"
       sodipodi:cx="-552.33582"
       sodipodi:cy="166.41541"
       sodipodi:rx="190.91829"
       sodipodi:ry="190.91829"
       d="m -361.41753,166.41541 c 0,105.44125 -85.47703,190.91828 -190.91829,190.91828 -105.44126,0 -190.91828,-85.47703 -190.91828,-190.91828 0,-105.441264 85.47702,-190.918294 190.91828,-190.918294 105.44126,0 190.91829,85.47703 190.91829,190.918294 z"
       transform="matrix(1.2474486,0,0,1.2474486,235.7072,-127.9603)" /></g><circle
     cx="225.869"
     cy="240.63901"
     r="180.923"
     id="circle2996"
     style="fill:#ffffff;fill-opacity:0;stroke:none"
     sodipodi:cx="225.869"
     sodipodi:cy="240.63901"
     sodipodi:rx="180.923"
     sodipodi:ry="180.923"
     transform="translate(-2.1467246,-16.916721)" /><g
     id="g2998"
     transform="translate(-2.1467246,-16.916721)"><g
       id="g3000"><path
         d="m 158.98,40.042 c 0,0 -4.732,35.003 -7.365,55.385 C 147,76.267 138.782,42.49 138.782,42.49 l -34.043,4.415 c 0,0 -4.852,40.288 -7.542,64 C 92.698,88.423 84.846,49.657 84.846,49.657 l -35.84,5.283 36.35,155.866 30.461,-16.919 c 0,0 6.34,-52.951 9.337,-76.28 5.035,20.613 15.33,63.278 15.33,63.278 L 171.4,165.473 195.327,35.957 158.98,40.042 z"
         id="path3002"
         inkscape:connector-curvature="0" /><path
         d="m 199.919,31.336 -9.596,0.957 -28.915,3.056 -5.455,0.606 -0.922,6.751 -4.405,33.352 -7.616,-31.417 -1.713,-7.016 -5.727,0.671 -28.65,3.513 -5.236,0.672 -0.862,7.028 -4.556,38.773 -7.191,-35.682 -1.678,-8.248 -6.078,0.817 -28.714,4.02 -8.35,1.219 2.853,11.938 34.204,146.316 1.95,8.554 5.815,-3.376 25.37,-14.304 4.199,-2.303 0.74,-6.368 6.705,-54.515 10.385,42.854 1.802,7.506 5.75,-3.002 25.832,-13.089 4.249,-2.088 0.966,-5.771 22.549,-120.477 2.295,-10.947 0,0 z m -44.79,63.463 6.858,-50.713 28.77,-3.446 0,0 0,0 -22.084,121.741 -25.968,12.718 L 124.2,98.839 112.967,190.502 87.462,204.439 53.737,59.42 l 0,0 0,0 28.568,-4.417 11.402,56.353 0,0 2.576,12.91 0,0 1.841,9.26 1.062,-9.692 0,0 1.5,-13.378 0,0 7.088,-59.16 28.507,-3.905 11.823,48.667 0,0 2.491,10.376 0,0 1.991,8.311 1.125,-8.925 0,0 1.418,-11.021 0,0 0,0 z"
         id="path3004"
         inkscape:connector-curvature="0"
         style="fill:#ffffff" /></g><g
       id="g3006"><path
         d="m 225.533,32.874 -43.161,127.352 35.131,-15.999 c 0,0 4.388,-15.114 5.465,-18.758 3.167,-1.19 21.714,-7.998 26.307,-9.642 0.713,3.764 2.609,13.869 2.609,13.869 l 35.568,-13.889 -23.396,-86.461 -38.523,3.528 z m 15.184,39.899 c 1.628,7.786 2.797,13.396 3.576,17.154 -3.332,0.923 -6.414,1.783 -10.723,2.995 1.936,-5.555 4.083,-11.622 7.147,-20.149 z"
         id="path3008"
         inkscape:connector-curvature="0" /><path
         d="m 266.761,25.455 -5.479,0.431 -33.654,2.848 -4.448,0.403 -1.793,4.632 -39.815,117.971 -4.462,15.327 11.648,-5.6 27.27,-12.596 3.883,-1.734 1.374,-4.749 4.097,-13.906 21.205,-7.948 1.438,7.597 1.198,6.368 6.081,-2.519 28.541,-11.383 7.795,-2.978 -1.88,-7.136 -21.539,-79.74 -1.46,-5.288 0,0 z m -79.091,128.036 40.203,-116.914 33.49,-3.303 21.881,80.668 0,0 0,0 -28.684,10.99 -2.585,-13.773 -31.431,11.261 -5.463,18.859 -27.411,12.212 0,0 0,0 0,0 z m 54.063,-93.307 -13.48,38.155 6.783,-1.978 0,0 0.889,-0.257 0,0 5.677,-1.631 0,0 0.06,-0.017 0,0 6.803,-1.926 -6.732,-32.346 0,0 z"
         id="path3010"
         inkscape:connector-curvature="0"
         style="fill:#ffffff" /></g><g
       id="g3012"><path
         d="m 305.93,26.022 -17.946,89.583 34.637,-12.432 c 0,0 6.918,-26.238 8.034,-30.377 4.537,-1.034 36.41,-7.952 36.41,-7.952 l 7.119,-19.113 c 0,0 -30.673,4.58 -37.663,5.69 0.745,-2.669 1.169,-4.187 1.715,-6.127 4.928,-0.636 44.39,-5.38 44.39,-5.38 l 7.795,-19.013 -84.491,5.121 z"
         id="path3014"
         inkscape:connector-curvature="0" /><path
         d="m 395.366,17.88 -9.325,0.389 -77.048,4.162 -5.987,0.396 -1.179,5.682 -16.246,82.628 -1.758,9.469 8.901,-3.4 27.653,-10.112 4.891,-1.716 1.242,-4.724 6.826,-25.365 31.138,-7.026 5.104,-1.099 1.6,-4.302 4.9,-12.976 2.573,-6.683 1.078,-0.13 5.396,-0.644 1.75,-4.28 5.473,-13.162 3.018,-7.107 0,0 z m -103.197,92.791 16.666,-81.493 76.667,-5.19 0,0 0,0 -5.394,13.377 -44.599,5.14 -3.519,12.797 7.021,-1.176 0,0 0.221,-0.037 0,0 30.13,-4.779 0,0 0,0 -4.826,13.181 -36.579,7.779 -7.996,30.666 -27.792,9.735 0,0 0,0 0,0 z"
         id="path3016"
         inkscape:connector-curvature="0"
         style="fill:#ffffff" /></g></g><g
     id="g3018"
     style="fill:#000000;fill-opacity:1"
     transform="translate(-2.1467246,-16.916721)"><g
       id="g3020"
       style="fill:#000000;fill-opacity:1"><path
         d="m 142.572,417.383 -12.774,10.12 -2.271,-1.232 0.777,-9.496 -7.619,5.789 -2.288,-1.242 1.624,-16.165 4.064,2.2 -1.206,8.673 7.004,-5.527 2.806,1.522 -0.867,8.854 6.732,-5.677 4.018,2.181 z"
         id="path3022"
         style="fill:#000000;fill-opacity:1"
         inkscape:connector-curvature="0" /></g><g
       id="g3024"
       style="fill:#000000;fill-opacity:1"><path
         d="m 153.308,437.482 -4.23,-1.725 0.015,-3.233 -5.95,-2.424 -2.271,2.313 -4.228,-1.725 11.643,-11.231 4.566,1.865 0.455,16.16 z m -4.193,-7.725 0.032,-5.82 -4.066,4.176 4.034,1.644 z"
         id="path3026"
         style="fill:#000000;fill-opacity:1"
         inkscape:connector-curvature="0" /></g><g
       id="g3028"
       style="fill:#000000;fill-opacity:1"><path
         d="m 170.525,441.669 c -0.343,0.022 -0.635,0.037 -0.875,0.047 -0.241,0.011 -0.47,0.015 -0.69,0.016 -0.22,0 -0.534,-0.009 -0.942,-0.029 -0.692,-0.046 -1.373,-0.126 -2.041,-0.242 -0.666,-0.116 -1.357,-0.28 -2.075,-0.5 -1.439,-0.432 -2.686,-1.096 -3.747,-1.988 -1.06,-0.895 -1.793,-2.001 -2.19,-3.326 -0.401,-1.325 -0.356,-2.791 0.13,-4.397 0.31,-1.036 0.808,-1.996 1.487,-2.88 0.679,-0.887 1.5,-1.509 2.454,-1.874 0.79,-0.305 1.556,-0.49 2.292,-0.553 0.735,-0.063 1.432,-0.046 2.086,0.055 0.653,0.101 1.355,0.266 2.113,0.494 1.247,0.378 2.249,0.781 3.001,1.212 0.757,0.436 1.571,0.949 2.443,1.546 l -1.012,3.353 c -0.524,-0.568 -1.109,-1.085 -1.75,-1.553 -0.638,-0.467 -1.494,-0.863 -2.563,-1.186 -1.231,-0.373 -2.288,-0.438 -3.168,-0.195 -0.88,0.245 -1.563,0.647 -2.048,1.207 -0.485,0.56 -0.819,1.142 -1.003,1.748 -0.216,0.714 -0.247,1.425 -0.096,2.127 0.152,0.707 0.511,1.341 1.074,1.909 0.564,0.569 1.322,0.997 2.279,1.284 0.544,0.162 1.145,0.266 1.8,0.309 l 0.503,-1.665 -1.92,-0.58 0.86,-2.852 5.651,1.708 -2.053,6.805 z"
         id="path3030"
         style="fill:#000000;fill-opacity:1"
         inkscape:connector-curvature="0" /></g><g
       id="g3032"
       style="fill:#000000;fill-opacity:1"><path
         d="m 186.648,446.29 -10.916,-2.295 3.044,-14.479 10.739,2.259 -0.61,2.904 -6.372,-1.339 -0.559,2.652 6.08,1.278 -0.614,2.913 -6.079,-1.278 -0.649,3.093 6.549,1.377 -0.613,2.915 z"
         id="path3034"
         style="fill:#000000;fill-opacity:1"
         inkscape:connector-curvature="0" /></g><g
       id="g3036"
       style="fill:#000000;fill-opacity:1"><path
         d="m 207.588,449.07 -3.943,-0.461 -6.662,-9.079 -0.96,8.185 -4.392,-0.516 1.724,-14.694 3.935,0.462 6.646,9.034 0.953,-8.144 4.424,0.52 -1.725,14.693 z"
         id="path3038"
         style="fill:#000000;fill-opacity:1"
         inkscape:connector-curvature="0" /></g><g
       id="g3040"
       style="fill:#000000;fill-opacity:1"><path
         d="m 217.936,449.498 -4.458,-0.183 0.603,-14.783 4.458,0.182 -0.603,14.784 z"
         id="path3042"
         style="fill:#000000;fill-opacity:1"
         inkscape:connector-curvature="0" /></g><g
       id="g3044"
       style="fill:#000000;fill-opacity:1"><path
         d="m 239.821,449.181 -3.971,0.137 -7.952,-7.972 0.279,8.234 -4.416,0.153 -0.506,-14.788 3.96,-0.135 7.928,7.931 -0.281,-8.195 4.45,-0.151 0.509,14.786 z"
         id="path3046"
         style="fill:#000000;fill-opacity:1"
         inkscape:connector-curvature="0" /></g><g
       id="g3048"
       style="fill:#000000;fill-opacity:1"><path
         d="m 259.305,445.763 c -0.304,0.163 -0.56,0.298 -0.773,0.402 -0.216,0.107 -0.423,0.21 -0.623,0.3 -0.202,0.092 -0.49,0.214 -0.873,0.364 -0.649,0.245 -1.302,0.452 -1.957,0.622 -0.658,0.17 -1.355,0.305 -2.096,0.403 -1.488,0.198 -2.9,0.108 -4.235,-0.265 -1.336,-0.375 -2.458,-1.086 -3.369,-2.125 -0.911,-1.039 -1.478,-2.394 -1.699,-4.061 -0.141,-1.072 -0.087,-2.148 0.169,-3.237 0.253,-1.085 0.74,-1.991 1.461,-2.719 0.596,-0.603 1.215,-1.085 1.858,-1.449 0.644,-0.361 1.285,-0.631 1.924,-0.811 0.635,-0.177 1.345,-0.318 2.129,-0.422 1.291,-0.172 2.368,-0.218 3.233,-0.135 0.866,0.081 1.819,0.214 2.863,0.399 l 0.463,3.468 c -0.715,-0.298 -1.46,-0.528 -2.234,-0.693 -0.775,-0.16 -1.719,-0.168 -2.824,-0.02 -1.278,0.17 -2.267,0.547 -2.968,1.132 -0.701,0.586 -1.158,1.233 -1.366,1.943 -0.211,0.71 -0.276,1.378 -0.19,2.005 0.098,0.741 0.36,1.4 0.792,1.979 0.426,0.579 1.017,1.01 1.766,1.295 0.749,0.285 1.616,0.36 2.602,0.229 0.565,-0.075 1.157,-0.229 1.771,-0.462 l -0.229,-1.724 -1.988,0.263 -0.393,-2.951 5.851,-0.777 0.935,7.047 z"
         id="path3050"
         style="fill:#000000;fill-opacity:1"
         inkscape:connector-curvature="0" /></g><g
       id="g3052"
       style="fill:#000000;fill-opacity:1"><path
         d="m 275.845,443.333 -10.891,2.414 -3.2,-14.448 10.711,-2.373 0.645,2.898 -6.357,1.408 0.586,2.646 6.065,-1.345 0.644,2.909 -6.065,1.345 0.684,3.084 6.536,-1.448 0.642,2.91 z"
         id="path3054"
         style="fill:#000000;fill-opacity:1"
         inkscape:connector-curvature="0" /></g><g
       id="g3056"
       style="fill:#000000;fill-opacity:1"><path
         d="m 296.085,437.203 -3.78,1.21 -9.819,-5.512 2.51,7.848 -4.21,1.346 -4.506,-14.09 3.773,-1.208 9.785,5.479 -2.496,-7.808 4.242,-1.355 4.501,14.09 z"
         id="path3058"
         style="fill:#000000;fill-opacity:1"
         inkscape:connector-curvature="0" /></g><g
       id="g3060"
       style="fill:#000000;fill-opacity:1"><path
         d="m 320.452,419.082 c 0.556,1.14 0.814,2.215 0.781,3.226 -0.033,1.008 -0.289,1.918 -0.763,2.727 -0.47,0.808 -1.062,1.514 -1.772,2.112 -0.708,0.6 -1.467,1.095 -2.274,1.487 -1.125,0.547 -2.314,0.888 -3.566,1.024 -1.252,0.134 -2.46,-0.085 -3.627,-0.656 -1.165,-0.57 -2.105,-1.597 -2.826,-3.074 l -3.579,-7.342 4.004,-1.949 3.07,6.306 c 0.428,0.875 0.907,1.539 1.439,1.988 0.531,0.448 1.088,0.697 1.668,0.743 0.58,0.045 1.18,-0.083 1.789,-0.381 0.59,-0.287 1.048,-0.671 1.375,-1.156 0.327,-0.484 0.477,-1.071 0.453,-1.763 -0.024,-0.693 -0.252,-1.478 -0.678,-2.354 l -3.08,-6.324 4.011,-1.954 3.575,7.34 z"
         id="path3062"
         style="fill:#000000;fill-opacity:1"
         inkscape:connector-curvature="0" /></g><g
       id="g3064"
       style="fill:#000000;fill-opacity:1"><path
         d="m 337.877,416.46 -9.633,5.791 -7.623,-12.68 3.824,-2.299 5.796,9.642 5.811,-3.493 1.825,3.039 z"
         id="path3066"
         style="fill:#000000;fill-opacity:1"
         inkscape:connector-curvature="0" /></g><g
       id="g3068"
       style="fill:#000000;fill-opacity:1"><path
         d="m 344.696,398.114 -4.443,3.109 6.422,9.174 -3.646,2.551 -6.421,-9.172 -4.444,3.109 -2.063,-2.945 12.532,-8.774 2.063,2.948 z"
         id="path3070"
         style="fill:#000000;fill-opacity:1"
         inkscape:connector-curvature="0" /></g><g
       id="g3072"
       style="fill:#000000;fill-opacity:1"><path
         d="m 358.256,401.484 -3.469,2.806 -9.302,-11.505 3.468,-2.808 9.303,11.507 z"
         id="path3074"
         style="fill:#000000;fill-opacity:1"
         inkscape:connector-curvature="0" /></g><g
       id="g3076"
       style="fill:#000000;fill-opacity:1"><path
         d="m 375.308,385.985 -3.238,3.068 -5.897,-6.222 0.493,6.372 -0.255,0.243 -6.342,-0.828 5.896,6.221 -3.145,2.981 -10.181,-10.735 2.938,-2.783 7.119,0.9 -0.503,-7.172 2.936,-2.783 10.179,10.738 z"
         id="path3078"
         style="fill:#000000;fill-opacity:1"
         inkscape:connector-curvature="0" /></g><g
       id="g3080"
       style="fill:#000000;fill-opacity:1"><path
         d="m 389.861,369.395 -2.976,3.465 -3.063,-1.042 -4.186,4.876 1.474,2.888 -2.976,3.463 -6.961,-14.602 3.215,-3.744 15.473,4.696 z m -8.656,1.525 -5.508,-1.875 2.668,5.182 2.84,-3.307 z"
         id="path3082"
         style="fill:#000000;fill-opacity:1"
         inkscape:connector-curvature="0" /></g><g
       id="g3084"
       style="fill:#000000;fill-opacity:1"><path
         d="m 390.214,349.79 -3.183,4.389 9.066,6.571 -2.612,3.604 -9.068,-6.569 -3.182,4.391 -2.913,-2.112 8.979,-12.385 2.913,2.111 z"
         id="path3086"
         style="fill:#000000;fill-opacity:1"
         inkscape:connector-curvature="0" /></g><g
       id="g3088"
       style="fill:#000000;fill-opacity:1"><path
         d="m 407.564,342.845 -5.774,9.545 -12.657,-7.654 5.675,-9.389 2.539,1.534 -3.366,5.571 2.318,1.402 3.214,-5.316 2.549,1.541 -3.215,5.318 2.705,1.634 3.462,-5.729 2.55,1.543 z"
         id="path3090"
         style="fill:#000000;fill-opacity:1"
         inkscape:connector-curvature="0" /></g><g
       id="g3092"
       style="fill:#000000;fill-opacity:1"><path
         d="m 409.496,313.165 -2.203,4.954 10.23,4.552 -1.809,4.068 -10.231,-4.555 -2.206,4.957 -3.285,-1.465 6.219,-13.975 3.285,1.464 z"
         id="path3094"
         style="fill:#000000;fill-opacity:1"
         inkscape:connector-curvature="0" /></g><g
       id="g3096"
       style="fill:#000000;fill-opacity:1"><path
         d="m 425.034,302.727 -3.659,10.538 -13.975,-4.855 3.6,-10.366 2.804,0.974 -2.137,6.15 2.563,0.89 2.037,-5.867 2.813,0.977 -2.039,5.869 2.988,1.035 2.193,-6.322 2.812,0.977 z"
         id="path3098"
         style="fill:#000000;fill-opacity:1"
         inkscape:connector-curvature="0" /></g><g
       id="g3100"
       style="fill:#000000;fill-opacity:1"><path
         d="m 430.515,282.124 -1.117,4.431 -3.201,0.436 -1.571,6.234 2.61,1.922 -1.115,4.432 -12.75,-9.958 1.206,-4.784 15.938,-2.713 z m -7.065,5.233 -5.766,0.782 4.701,3.44 1.065,-4.222 z"
         id="path3102"
         style="fill:#000000;fill-opacity:1"
         inkscape:connector-curvature="0" /></g><g
       id="g3104"
       style="fill:#000000;fill-opacity:1"><path
         d="m 433.745,261.083 -0.639,4.416 -8.483,-1.224 4.338,4.69 -0.053,0.35 -5.487,3.285 8.484,1.223 -0.62,4.291 -14.644,-2.114 0.578,-4.003 6.143,-3.709 -4.84,-5.314 0.579,-4.004 14.644,2.113 z"
         id="path3106"
         style="fill:#000000;fill-opacity:1"
         inkscape:connector-curvature="0" /></g></g><path
     d="m 156.92229,267.33328 c -0.056,0.076 -0.114,0.146 -0.174,0.222 0.209,-0.003 0.416,-0.016 0.629,-0.015 -0.266,-0.171 -0.421,-0.249 -0.455,-0.207 z"
     id="path3206"
     inkscape:connector-curvature="0"
     style="fill:none" /><g
     id="g4471"
     transform="translate(366.28979,-143.18293)"><g
       transform="translate(-370.34653,135.72154)"
       id="g3116"><path
         style="fill:#0c9af7;fill-opacity:1"
         d="m 376.9375,141.0625 c -9.59026,3.05761 -19.10445,7.43847 -26.1875,14.5625 -15.20213,2.27102 -26.74867,13.3381 -36.96469,23.94727 -13.67997,13.72425 -31.49015,23.58853 -51.06656,25.14648 -44.13734,6.12468 -89.09494,8.31187 -132.5625,18.375 -6.98291,1.65925 -12.48164,6.35846 -18.5,9.75 -22.787201,0.0733 -45.584092,0.0102 -68.375,0.0312 17.998488,6.83864 37.737571,6.32691 56.65625,7.59375 5.32473,3.33284 -0.930275,8.9888 -2.125,12.75 -6.994903,13.95483 -7.821855,29.69317 -11.46875,44.59375 -4.366798,12.2488 -12.525638,22.6197 -16.357936,35.18375 -3.675022,10.8443 -9.017932,22.09497 -7.329564,33.75375 1.439784,3.89558 3.28692,7.99399 6.28125,10.8125 4.340519,-0.55473 11.764941,1.06206 14.375,-0.71875 -1.535857,-4.80462 -6.664674,-5.54336 -10.84375,-6.15625 -5.16606,-3.69953 1.434429,-9.66561 2.73885,-13.67041 6.773519,-12.52149 12.713706,-25.6579 19.2924,-38.17334 7.25409,-4.28018 16.46883,-4.04569 24.05835,-7.85898 15.64467,-5.85031 28.25181,-17.39655 38.5354,-30.20352 5.38181,-2.1102 9.02521,4.9536 13.40113,6.89177 19.2261,13.73956 42.05337,26.49458 66.47387,23.23323 4.65889,0.32851 10.16614,-5.40456 14.03125,-1.21875 2.83225,8.74339 1.36267,18.55031 2.07441,27.68719 1.21992,12.73497 -2.75218,26.89126 3.89434,38.53156 3.14249,3.84389 9.37774,0.40806 13.59375,1.5625 4.23018,1.00736 0.32417,-4.16336 -1.4375,-5.03125 -2.68923,-1.05271 -7.61189,-1.41874 -6.96875,-5.59375 1.25575,-9.98515 1.04689,-20.58129 4.96875,-29.9375 17.22544,-24.68128 29.49801,-52.20895 44.15625,-78.3125 8.89058,-14.00052 19.59515,-27.93867 34.4375,-35.71875 14.41718,-0.002 28.45208,-3.40688 42.5625,-5.75 4.24926,0.4305 3.27821,7.6152 8.3125,5.53125 23.62313,-0.98653 49.72984,-5.73051 66.28125,-24.03125 2.132,-2.54679 -4.60575,-3.90113 -6,-5.84375 -25.8456,-16.77863 -55.19967,-27.79878 -84.3125,-37.375 -4.00568,-4.48571 2.45377,-9.36469 4.59375,-13.125 0.92533,-1.06713 2.33333,-2.50633 -0.21875,-1.21875 z"
         id="path3118"
         inkscape:connector-curvature="0" /><path
         style="fill:#ffffff"
         inkscape:connector-curvature="0"
         id="path3120"
         d="m 378.616,140.498 c -2.625,3.152 -5.22,6.652 -6.979,9.953 -0.567,1.066 -0.624,2.332 -0.152,3.444 0.473,1.112 1.422,1.951 2.583,2.283 2.271,0.649 54.584,15.788 89.705,41.369 -2.022,2.659 -5.932,6.916 -12.621,11.144 -9.872,6.239 -27.896,13.645 -58.105,14.044 -0.451,-0.946 -1.035,-2.129 -1.754,-3.491 -0.698,-1.324 -2.068,-2.134 -3.537,-2.134 -0.182,0 -0.364,0.013 -0.548,0.038 l -2.199,0.304 c -0.126,0.017 -0.251,0.04 -0.375,0.069 -6.518,1.543 -23.282,5.146 -38.146,5.276 -0.167,0.002 -0.334,0.014 -0.499,0.036 l -0.21,0.028 c -0.542,0.073 -1.063,0.256 -1.532,0.539 -15.186,9.162 -29.304,26.25 -40.828,49.414 -13.179,26.481 -25.181,47.735 -35.672,63.174 -0.273,0.401 -0.492,0.725 -0.656,0.971 -2.464,3.696 -4.171,20.411 -4.97,30.046 -0.181,2.175 1.416,4.093 3.588,4.311 4.304,0.43 6.202,3.483 7.039,6.143 H 259.33 c -3.353,0 -5.762,-8.682 -6.169,-14.757 0.037,-5.19 0.259,-44.611 -1.49,-51.609 -0.279,-1.118 -1.028,-2.062 -2.054,-2.589 -0.571,-0.293 -1.198,-0.441 -1.827,-0.441 -0.499,0 -0.999,0.093 -1.473,0.281 -5.307,2.102 -11.097,3.167 -17.208,3.167 -27.703,0 -55.428,-21.28 -64.538,-28.273 -3.233,-2.481 -3.906,-2.998 -5.471,-2.998 -1.255,0 -2.469,0.602 -3.225,1.604 -19.518,25.892 -42.215,31.32 -53.123,33.929 -5.447,1.303 -8.735,2.089 -9.666,5.348 -0.816,2.597 -11.784,24.213 -22.197,44.223 -0.645,1.24 -0.596,2.728 0.129,3.922 0.725,1.195 2.021,1.925 3.419,1.925 3.999,0 6.76,1.563 8.44,4.778 0.276,0.528 0.504,1.063 0.691,1.583 h -14.6 c -1.665,-0.98 -5.074,-6.825 -6.333,-10.917 -2.806,-9.117 7.561,-36.038 14.84,-51.075 1.261,-1.854 8.085,-12.252 10.224,-22.94 0.235,-1.177 0.465,-2.696 0.756,-4.62 1.421,-9.405 4.066,-26.912 13.112,-41.857 0.745,-1.231 0.771,-2.769 0.069,-4.024 -0.702,-1.255 -2.026,-2.037 -3.465,-2.047 -30.803,-0.197 -46.753,-3.866 -54.902,-7.188 h 67.793 c 0.928,0 1.828,-0.323 2.544,-0.913 5.964,-4.915 13.014,-8.291 20.955,-10.033 25.194,-5.531 62.024,-9.601 91.618,-12.869 23.328,-2.577 41.755,-4.612 49.653,-6.708 18.518,-4.917 29.705,-15.214 38.694,-23.487 l 0.249,-0.229 c 1.328,-1.222 2.687,-2.585 4.125,-4.028 7.012,-7.036 15.738,-15.792 31.167,-18.809 0.899,-0.176 1.71,-0.655 2.299,-1.357 5.002,-5.974 16.471,-10.804 26.25,-13.953 m 12.515,-7.514 c 0,0 -31.439,6.49 -41.831,18.895 -19.938,3.898 -29.613,16.811 -37.232,23.818 -9.042,8.321 -19.536,18.088 -37.262,22.794 -17.729,4.703 -96.601,9.766 -141.103,19.536 -9.187,2.016 -16.617,5.889 -22.641,10.854 H 31.315 c 0,0 3.875,14.783 66.831,15.188 -11.307,18.682 -13.042,41.131 -14.368,47.765 -2.171,10.854 -9.769,21.708 -9.769,21.708 0,0 -19.538,40.16 -15.196,54.269 1.274,4.141 5.985,13.74 9.85,13.74 9.039,0 16.704,0 19.771,0 0,0 -0.351,-14.361 -13.997,-14.361 1.744,-3.352 21.412,-41.176 22.49,-44.954 1.13,-3.955 34.607,-1.458 62.142,-37.983 0.006,-0.008 0.017,-0.012 0.03,-0.012 1.276,0 35.37,31.271 70.009,31.271 6.274,0 12.562,-1.025 18.681,-3.448 1.694,6.779 1.37,50.754 1.37,50.754 0,0 1.13,18.643 10.17,18.643 9.036,0 18.077,0 18.077,0 0,0 0,-12.993 -11.3,-14.123 0,0 2.053,-24.769 4.312,-28.157 2.259,-3.391 15.08,-21.378 36.581,-64.581 11.945,-24.01 25.862,-39.655 39.313,-47.771 l 0.21,-0.028 c 15.448,-0.135 32.887,-3.929 39.032,-5.384 l 2.199,-0.304 c 1.808,3.428 2.72,5.642 2.72,5.642 64.263,0 78.692,-30.165 78.692,-30.165 -35.505,-27.263 -90.344,-43.209 -93.999,-44.254 4.647,-8.72 15.965,-19.352 15.965,-19.352 l 0,0 z" /></g><g
       transform="translate(-369.87985,135.84916)"
       id="g3170"><path
         inkscape:connector-curvature="0"
         id="path3172"
         d="m 393.112,224.87 c -0.488,0 -0.942,-0.251 -1.202,-0.666 l -2.712,-4.34 c -0.258,-0.413 -0.286,-0.929 -0.074,-1.367 0.212,-0.438 0.634,-0.737 1.117,-0.792 0.389,-0.044 38.903,-4.577 45.643,-20.427 2.156,-5.072 0.718,-10.948 -4.277,-17.463 -0.401,-0.523 -0.389,-1.256 0.032,-1.765 0.276,-0.335 0.681,-0.515 1.094,-0.515 0.214,0 0.431,0.048 0.633,0.149 3.297,1.648 19.829,9.957 21.533,11.663 0.526,0.527 0.554,1.373 0.064,1.935 -1.301,1.492 -2.983,4.302 -2.466,5.593 0.667,1.666 4.341,4.47 6.5,5.846 0.346,0.221 0.579,0.58 0.64,0.985 0.061,0.405 -0.057,0.817 -0.323,1.13 -0.659,0.772 -16.717,18.946 -66.17,20.033 -0.012,0.001 -0.022,0.001 -0.032,0.001 l 0,0 z" /><path
         sodipodi:nodetypes="cccccccccccccccsccccccccc"
         style="fill:#ffffff"
         inkscape:connector-curvature="0"
         id="path3174"
         d="m 432.731,178.953 c 0,0 19.536,9.768 21.164,11.397 0,0 -3.801,4.342 -2.714,7.053 1.086,2.715 7.054,6.514 7.054,6.514 0,0 -15.736,18.451 -65.123,19.536 l -2.712,-4.34 c 0,0 67.294,-7.599 42.331,-40.16 m 0.001,-2.835 c -0.825,0 -9.57515,-2.97889 -10.12815,-2.30889 4.57342,2.55208 7.07415,5.81989 7.87715,6.86789 4.728,6.166 6.067,11.415 4.098,16.048 -5.332,12.535 -33.928,18.378 -44.497,19.571 -7.82527,1.73333 -5.57289,1.94496 -5.57289,1.94496 -0.423,0.876 2.97189,1.54804 3.48689,2.37304 l 2.712,4.34 c 0.52,0.83 1.429,1.333 2.404,1.333 0.021,0 0.041,-0.001 0.063,-0.001 50.081,-1.101 66.541,-19.738 67.218,-20.53 0.532,-0.625 0.768,-1.449 0.646,-2.261 -0.122,-0.811 -0.59,-1.53 -1.281,-1.971 -2.46,-1.568 -5.507,-4.08 -5.944,-5.175 -0.117,-0.636 0.995,-2.739 2.215,-4.133 0.982,-1.123 0.927,-2.814 -0.127,-3.87 -1.7,-1.702 -14.452,-8.205 -21.902,-11.93 -0.406,-0.201 -0.838,-0.298 -1.268,-0.298 z" /></g><g
       transform="translate(3.5733369,0.76571504)"
       id="g4465"><g
         id="g3176"
         transform="translate(-373.23423,134.99961)"><path
           d="m 345.694,229.347 c -16.807,0 -26.4,-4.421 -28.516,-13.142 -5.538,-22.847 13.735,-39.743 13.931,-39.911 0.258,-0.223 0.586,-0.343 0.924,-0.343 0.035,0 0.071,0.001 0.107,0.004 0.375,0.028 0.724,0.205 0.969,0.49 l 1.473,1.717 c 0.508,0.593 0.441,1.485 -0.15,1.996 -0.17,0.147 -17.083,15.117 -12.302,34.846 1.488,6.135 9.481,9.246 23.758,9.246 0,0 0.41,-0.001 0.412,-0.001 0.779,0 1.412,0.629 1.417,1.408 l 0.014,2.262 c 0.003,0.376 -0.145,0.738 -0.409,1.006 -0.264,0.268 -0.625,0.419 -1.001,0.42 l -0.627,0.002 z"
           id="path3178"
           inkscape:connector-curvature="0" /><path
           d="m 332.033,177.369 1.473,1.717 c -0.178,0.153 -17.769,15.562 -12.753,36.253 1.67,6.887 10.162,10.329 25.135,10.329 0.138,0 0.273,0 0.412,-0.001 l 0.014,2.262 c -0.206,0.001 -0.415,0.002 -0.619,0.002 -16.07,0 -25.197,-4.056 -27.139,-12.059 -5.348,-22.058 13.288,-38.341 13.477,-38.503 m 0,-2.835 c -0.676,0 -1.332,0.242 -1.849,0.686 -0.202,0.174 -20.124,17.641 -14.384,41.32 2.29,9.439 12.348,14.226 29.894,14.226 l 0.633,-0.002 c 0.752,-0.004 1.473,-0.307 2.002,-0.842 0.528,-0.534 0.823,-1.258 0.819,-2.011 l -0.014,-2.262 c -0.01,-1.559 -1.276,-2.817 -2.835,-2.817 -0.004,0 -0.008,0 -0.012,0 l -0.4,0.001 c -9.307,0 -20.744,-1.416 -22.38,-8.162 -4.565,-18.836 11.691,-33.301 11.856,-33.444 1.172,-1.023 1.306,-2.806 0.293,-3.986 l -1.473,-1.717 c -0.49,-0.571 -1.187,-0.924 -1.937,-0.98 -0.071,-0.007 -0.142,-0.01 -0.213,-0.01 l 0,0 z"
           id="path3180"
           inkscape:connector-curvature="0"
           style="fill:#ffffff" /></g><path
         d="m -40.465225,313.22661 c 0,0 -18.36,15.739 -13.115,37.378 2.12,8.74 13.654,11.275 26.652,11.192"
         id="path3194"
         inkscape:connector-curvature="0"
         style="fill:none;stroke:#000000;stroke-width:2.26149988;stroke-linejoin:round" /></g><path
       inkscape:connector-curvature="0"
       id="path3204"
       d="m 82.582491,325.15984 c -1.924,2.367 -5.329,7.119 -3.396,9.054 1.493,1.494 5.611,4.02 8.887,5.923 4.072,-4.171 5.543,-7.234 5.543,-7.234 -3.506,-2.689 -7.209,-5.271 -11.034,-7.743 z" /><path
       style="stroke:#000000;stroke-width:2.17079997"
       inkscape:connector-curvature="0"
       id="path3208"
       d="m -104.24053,502.33461 c 4.910997,0.49 7.687997,3.225 9.255997,6.158 1.31,1.931 2.179,4.537 2.044,8.056 h 12.5 c 0.627,-11.9 -14.281,-14.866 -14.281,-14.866 0,0 -0.751,-17.874 2.381,-24.137 6.061,-12.119 20.933,-51.395 20.933,-51.395 0,0 -0.382,0.463 -1.057,1.278 -16.001,30.447 -25.546,43.868 -27.464,46.748 -2.258997,3.39 -4.311997,28.158 -4.311997,28.158 z" /><path
       id="path3210"
       d="m 87.727,381.549 h 0.082 c -0.026,0 -0.057,0 -0.082,0 l 0,0 z"
       inkscape:connector-curvature="0"
       style="stroke:#000000;stroke-width:1.08539999" /><path
       style="stroke:#000000;stroke-width:2.17079997"
       inkscape:connector-curvature="0"
       id="path3212"
       d="m -212.17346,419.47161 c -27.503,36.287 -60.841,33.814 -61.968,37.762 -1.079,3.778 -20.746,41.603 -22.49,44.954 13.646,0 13.997,14.361 13.997,14.361 h 10.972 c 0.597,-15.108 -12.238,-15.95 -12.238,-15.95 l 18.501,-37.917 c 0,0 27.704,-9.593 42.613,-30.248 6.403,-1.83 34.444,3.109 54.218,12.773 0,0 -1.281,-0.349 -1.587,-0.657 -21.379,-8.462 -38.432,-23.143 -41.389,-25.093 -0.213,0 -0.42,0.012 -0.629,0.015 z" /><g
       transform="translate(0,3.2486538)"
       id="g4448"><g
         id="g3128"
         transform="translate(-369.16223,134.76585)"><path
           d="m 372.706,218.373 c -23.544,0 -34.604,-4.87 -35.063,-5.077 l -0.878,-0.396 c -0.654,-0.296 -0.984,-1.033 -0.769,-1.718 l 0.289,-0.918 c 7.691,-24.485 26.96,-24.769 27.153,-24.769 0.78,0 1.413,0.63 1.417,1.41 l 0.011,2.17 c 0.004,0.78 -0.624,1.417 -1.404,1.424 -0.611,0.006 -14.721,0.347 -21.63,19.004 5.087,1.668 15.028,3.988 30.944,3.988 3.558,0 7.279,-0.119 11.061,-0.356 0.03,-0.001 0.06,-0.002 0.09,-0.002 0.63,0 1.19,0.419 1.363,1.032 l 0.571,2.025 c 0.116,0.412 0.04,0.854 -0.208,1.204 -0.248,0.35 -0.64,0.568 -1.067,0.596 -4.061,0.254 -8.059,0.383 -11.88,0.383 l 0,0 z"
           id="path3130"
           inkscape:connector-curvature="0" /><path
           d="m 363.439,186.912 0.011,2.17 c -0.676,0.006 -16.394,0.38 -23.429,21.295 3.041,1.105 13.491,4.532 32.756,4.532 3.434,0 7.146,-0.109 11.149,-0.359 l 0.571,2.025 c -4.238,0.266 -8.169,0.381 -11.792,0.381 -23.206,0 -33.967,-4.721 -34.479,-4.952 l -0.878,-0.396 0.289,-0.918 c 7.363,-23.438 25.618,-23.778 25.802,-23.778 m 0,-2.835 c -0.204,0 -20.506,0.295 -28.506,25.763 l -0.289,0.916 c -0.431,1.369 0.229,2.845 1.537,3.435 l 0.878,0.396 c 1.181,0.533 12.203,5.204 35.646,5.204 3.852,0 7.878,-0.13 11.97,-0.387 0.854,-0.054 1.64,-0.491 2.135,-1.189 0.495,-0.699 0.648,-1.585 0.416,-2.409 l -0.571,-2.025 c -0.347,-1.228 -1.466,-2.065 -2.727,-2.065 -0.06,0 -0.119,0.002 -0.179,0.006 -3.752,0.234 -7.444,0.354 -10.973,0.354 -14.35,0 -23.745,-1.897 -29.071,-3.473 6.728,-16.373 19.214,-16.681 19.769,-16.685 1.562,-0.014 2.818,-1.287 2.811,-2.849 l -0.011,-2.17 c -0.008,-1.562 -1.275,-2.822 -2.835,-2.822 l 0,0 z"
           id="path3132"
           inkscape:connector-curvature="0"
           style="fill:#ffffff" /></g><g
         id="g3134"
         transform="translate(-369.16223,134.76585)"><path
           d="m 386.712,222.875 c -0.508,0 -0.999,-0.274 -1.254,-0.755 -4.265,-8.052 -13.539,-22.817 -27.736,-31.249 -0.465,-0.276 -0.732,-0.793 -0.689,-1.331 0.043,-0.539 0.389,-1.007 0.892,-1.206 l 2.388,-0.944 c 0.168,-0.066 0.345,-0.099 0.521,-0.099 0.252,0 0.502,0.066 0.724,0.198 14.676,8.717 23.194,22.603 28.325,32.289 0.176,0.332 0.212,0.721 0.102,1.08 -0.11,0.359 -0.359,0.659 -0.691,0.836 l -1.918,1.016 c -0.212,0.111 -0.44,0.165 -0.664,0.165 l 0,0 z"
           id="path3136"
           inkscape:connector-curvature="0" /><path
           d="m 360.833,188.708 c 14.948,8.879 23.354,23.349 27.796,31.733 l -1.918,1.016 c -4.335,-8.184 -13.772,-23.197 -28.266,-31.805 l 2.388,-0.944 m 0,-2.835 c -0.353,0 -0.706,0.066 -1.043,0.199 l -2.388,0.944 c -1.005,0.397 -1.696,1.332 -1.783,2.41 -0.086,1.078 0.449,2.11 1.379,2.663 13.898,8.254 23.013,22.773 27.208,30.694 0.509,0.96 1.491,1.508 2.507,1.508 0.448,0 0.901,-0.105 1.324,-0.33 l 1.918,-1.016 c 0.665,-0.352 1.162,-0.953 1.383,-1.672 0.222,-0.719 0.147,-1.495 -0.204,-2.16 -5.211,-9.837 -13.871,-23.944 -28.854,-32.844 -0.443,-0.263 -0.944,-0.396 -1.447,-0.396 l 0,0 z"
           id="path3138"
           inkscape:connector-curvature="0"
           style="fill:#ffffff" /></g><path
         d="m 15.267766,350.25785 c 0,0 -35.293,1.172 -45.758,-4.478 0,0 5.222,-19.1 20.9150001,-22.586 0,0 19.7959999,15.029 24.8429999,27.064 z"
         id="path3182"
         inkscape:connector-curvature="0"
         style="fill:#ffffff" /><path
         d="m -5.7192342,322.76285 c 0,0 -17.5609998,0.067 -24.7709998,23.018 0,0 14.281,6.448 45.758,4.478"
         id="path3192"
         inkscape:connector-curvature="0"
         style="fill:none;stroke:#000000;stroke-width:2.17079997" /><path
         d="m -6.6212342,326.20085 c 0,0 -15.4439998,13.184 -16.0999998,21.706"
         id="path3196"
         inkscape:connector-curvature="0"
         style="fill:none;stroke:#000000;stroke-width:2.17079997" /><path
         d="m -19.105234,348.63085 c 0,0 13.7739998,-15.082 20.9859998,-15.736"
         id="path3198"
         inkscape:connector-curvature="0"
         style="fill:none;stroke:#000000;stroke-width:2.17079997" /><path
         d="m 4.2327658,335.42585 c 0,0 -7.033,6.785 -10.313,14.653"
         id="path3200"
         inkscape:connector-curvature="0"
         style="fill:url(#linearGradient4463);fill-opacity:1;stroke:#000000;stroke-width:2.17079997" /><path
         d="m -1.1952342,350.25785 c 0,0 4.545,-5.562 11.7590002,-6.873"
         id="path3202"
         inkscape:connector-curvature="0"
         style="fill:none;stroke:#000000;stroke-width:2.17079997" /><path
         d="m 18.507766,355.71485 c -4.392,-8.29 -13.9500002,-23.488 -28.67,-32.23"
         id="path3214"
         inkscape:connector-curvature="0"
         style="fill:none;stroke:#000000;stroke-width:2.17079997" /></g><g
       transform="translate(-375.92038,136.89157)"
       id="g3232"><path
         inkscape:connector-curvature="0"
         id="path3234"
         d="m 387.131,177.833 c -0.347,0 -0.682,-0.127 -0.941,-0.357 -1.454,-1.285 -5.872,-4.616 -8.83,-4.616 -0.783,0 -1.417,-0.634 -1.417,-1.417 v -2.17 c 0,-0.783 0.634,-1.417 1.417,-1.417 0.782,0 1.617,0.112 2.497,0.335 0.182,-1.087 0.546,-2.17 0.886,-3.022 -0.652,-0.364 -1.301,-0.663 -1.963,-0.903 -0.354,-0.129 -0.641,-0.392 -0.8,-0.732 -0.159,-0.34 -0.177,-0.731 -0.048,-1.084 l 0.742,-2.039 c 0.21,-0.576 0.753,-0.934 1.332,-0.934 0.161,0 0.324,0.028 0.484,0.086 5.461,1.986 9.056,6.313 11.435,9.175 0.633,0.761 1.146,1.378 1.542,1.774 0.062,0.062 0.396,0.224 1.181,0.224 1.27,0 2.895,-0.408 3.866,-0.787 0.165,-0.064 0.34,-0.097 0.515,-0.097 0.194,0 0.389,0.04 0.569,0.119 0.345,0.151 0.614,0.433 0.751,0.783 l 0.789,2.023 c 0.137,0.351 0.129,0.74 -0.022,1.085 -0.151,0.345 -0.434,0.614 -0.784,0.751 -0.487,0.189 -3.049,1.134 -5.635,1.134 -2.037,0 -3.643,-0.57 -4.77,-1.696 -0.1,-0.1 -0.202,-0.207 -0.306,-0.319 -0.037,0 -0.075,-0.001 -0.113,-0.002 0.003,0.003 0.006,0.005 0.007,0.006 0.584,0.521 0.637,1.415 0.117,2 l -1.441,1.623 c -0.25,0.281 -0.603,0.452 -0.979,0.474 -0.027,0 -0.053,0 -0.081,0 l 0,0 z" /><path
         style="fill:#ffffff"
         inkscape:connector-curvature="0"
         id="path3236"
         d="m 380.006,160.893 c 5.101,1.855 8.548,6.004 10.829,8.749 0.633,0.761 1.179,1.419 1.63,1.87 0.468,0.467 1.272,0.639 2.183,0.639 1.539,0 3.377,-0.492 4.381,-0.884 l 0.789,2.023 c -0.399,0.155 -2.769,1.038 -5.121,1.038 -1.402,0 -2.798,-0.313 -3.768,-1.282 -0.212,-0.212 -0.436,-0.459 -0.667,-0.723 -0.708,-0.008 -3.093,-0.052 -5.452,-0.32 2.108,1.334 3.638,2.678 3.763,2.789 l -1.441,1.623 c -0.056,-0.05 -5.654,-4.974 -9.771,-4.974 v -2.17 c 1.249,0 2.567,0.34 3.844,0.849 -0.315,-1.896 1.02,-4.863 1.331,-5.52 -1,-0.659 -2.083,-1.237 -3.271,-1.669 l 0.741,-2.038 m 0,-2.835 c -1.158,0 -2.245,0.714 -2.664,1.865 l -0.742,2.039 c -0.257,0.707 -0.223,1.486 0.096,2.168 0.317,0.682 0.894,1.209 1.6,1.466 0.229,0.083 0.457,0.175 0.684,0.273 -0.07,0.218 -0.139,0.44 -0.201,0.667 -0.485,-0.066 -0.959,-0.1 -1.418,-0.1 -1.565,0 -2.835,1.27 -2.835,2.835 v 2.17 c 0,1.565 1.27,2.835 2.835,2.835 2.104,0 5.883,2.492 7.894,4.262 0.539,0.475 1.211,0.709 1.879,0.709 0.782,0 1.56,-0.32 2.118,-0.95 l 1.441,-1.623 c 0.074,-0.083 0.143,-0.17 0.205,-0.259 1.088,0.497 2.358,0.748 3.8,0.748 2.768,0 5.405,-0.942 6.148,-1.231 0.701,-0.272 1.265,-0.813 1.567,-1.501 0.302,-0.688 0.319,-1.47 0.046,-2.171 l -0.789,-2.023 c -0.272,-0.7 -0.813,-1.264 -1.501,-1.565 -0.363,-0.159 -0.751,-0.239 -1.14,-0.239 -0.349,0 -0.698,0.064 -1.03,0.194 -0.857,0.334 -2.323,0.689 -3.351,0.689 -0.173,0 -0.297,-0.01 -0.382,-0.021 -0.332,-0.361 -0.762,-0.878 -1.213,-1.42 l -0.038,-0.046 c -2.477,-2.979 -6.219,-7.482 -12.04,-9.601 -0.319,-0.115 -0.646,-0.17 -0.969,-0.17 l 0,0 z" /></g><path
       style="fill:none;stroke:#000000;stroke-width:2.26149988"
       inkscape:connector-curvature="0"
       id="path3268"
       d="m 3.9284672,287.77354 c 4.646,-8.717 16.8559998,-19.068 16.8559998,-19.068 0,0 -31.439,6.49 -41.831,18.895 -19.938,3.898 -29.613,16.811 -37.232,23.818 -9.042,8.321 -19.536,18.088 -37.262,22.794 -17.728997,4.703 -96.600997,9.766 -141.102997,19.536 -9.187,2.016 -16.617,5.889 -22.641,10.854 h -79.747 c 0,0 3.875,14.783 66.831,15.188 -11.307,18.682 -13.042,41.131 -14.368,47.765 -2.171,10.854 -9.769,21.708 -9.769,21.708 0,0 -19.538,40.16 -15.196,54.269 1.274,4.141 5.985,13.74 9.85,13.74 9.039,0 16.704,0 19.771,0 0,0 -0.351,-14.361 -13.997,-14.361 1.744,-3.352 21.412,-41.176 22.49,-44.954 1.13,-3.955 34.607,-1.458 62.142,-37.983 0.64,-0.85 48.442,43.762 88.72,27.812 1.694,6.779 1.37,50.754 1.37,50.754 0,0 1.13,18.643 10.17,18.643 9.036,0 18.076997,0 18.076997,0 0,0 0,-12.993 -11.299997,-14.123 0,0 2.053,-24.769 4.311997,-28.157 2.259,-3.391 15.08,-21.378 36.581,-64.581 11.945,-24.01 25.862,-39.655 39.313,-47.771 l 0.21,-0.028 c 15.4480002,-0.135 32.8870002,-3.929 39.032,-5.384 l 2.199,-0.304 c 1.808,3.428 2.72,5.642 2.72,5.642 64.263,0 78.692,-30.165 78.692,-30.165 -35.504,-27.267 -91.2349998,-43.494 -94.8899998,-44.539 z" /></g></svg>