<?xml version="1.0" encoding="UTF-8" standalone="no"?>
<!-- Created with Inkscape (http://www.inkscape.org/) -->

<svg
   xmlns:dc="http://purl.org/dc/elements/1.1/"
   xmlns:cc="http://creativecommons.org/ns#"
   xmlns:rdf="http://www.w3.org/1999/02/22-rdf-syntax-ns#"
   xmlns:svg="http://www.w3.org/2000/svg"
   xmlns="http://www.w3.org/2000/svg"
   xmlns:sodipodi="http://sodipodi.sourceforge.net/DTD/sodipodi-0.dtd"
   xmlns:inkscape="http://www.inkscape.org/namespaces/inkscape"
   width="442.93756"
   height="252.53125"
   id="svg3327"
   version="1.1"
   inkscape:version="0.48.4 r9939"
   sodipodi:docname="New document 4">
  <defs
     id="defs3329" />
  <sodipodi:namedview
     id="base"
     pagecolor="#ffffff"
     bordercolor="#666666"
     borderopacity="1.0"
     inkscape:pageopacity="0.0"
     inkscape:pageshadow="2"
     inkscape:zoom="0.99574998"
     inkscape:cx="221.72812"
     inkscape:cy="120.0266"
     inkscape:document-units="px"
     inkscape:current-layer="layer1"
     showgrid="false"
     inkscape:snap-midpoints="true"
     fit-margin-top="0"
     fit-margin-left="0"
     fit-margin-right="0"
     fit-margin-bottom="0"
     inkscape:window-width="854"
     inkscape:window-height="674"
     inkscape:window-x="626"
     inkscape:window-y="186"
     inkscape:window-maximized="0" />
  <metadata
     id="metadata3332">
    <rdf:RDF>
      <cc:Work
         rdf:about="">
        <dc:format>image/svg+xml</dc:format>
        <dc:type
           rdf:resource="http://purl.org/dc/dcmitype/StillImage" />
        <dc:title></dc:title>
      </cc:Work>
    </rdf:RDF>
  </metadata>
  <g
     inkscape:label="Layer 1"
     inkscape:groupmode="layer"
     id="layer1"
     transform="translate(-83.8125,-309.34375)">
    <path
       style="font-size:medium;font-style:normal;font-variant:normal;font-weight:normal;font-stretch:normal;text-indent:0;text-align:start;text-decoration:none;line-height:normal;letter-spacing:normal;word-spacing:normal;text-transform:none;direction:ltr;block-progression:tb;writing-mode:lr-tb;text-anchor:start;baseline-shift:baseline;color:#000000;fill:#000000;fill-opacity:1;stroke:none;stroke-width:4;marker:none;visibility:visible;display:inline;overflow:visible;enable-background:accumulate;font-family:Sans;-inkscape-font-specification:Sans"
       d="m 445.8125,309.34375 c 0,0 -7.98733,1.65504 -17.28125,4.875 -9.03666,3.13083 -19.29836,7.66139 -25.125,14.1875 -20.21549,4.18283 -30.36095,17.47569 -37.625,24.15625 -9.04845,8.32694 -19.15436,17.76362 -36.40625,22.34375 -8.32597,2.20864 -32.70954,4.73625 -60.21875,7.8125 -27.50921,3.07625 -58.39046,6.76495 -80.8125,11.6875 -9.2058,2.02013 -16.72274,5.8795 -22.875,10.8125 l -79.0625,0 -2.59375,0 0.65625,2.5 c 0,0 0.153885,0.56792 0.46875,1.125 0.314865,0.55708 0.808186,1.25054 1.59375,2.0625 1.571128,1.62393 4.262478,3.63859 8.875,5.59375 8.86628,3.75826 25.21614,7.32254 54.53125,7.78125 -4.79755,8.78476 -7.75495,18.04476 -9.59375,26.0625 -2.04198,8.90367 -2.82662,16.38128 -3.4375,19.4375 -2.04527,10.22543 -9.46875,20.9375 -9.46875,20.9375 l -0.0937,0.125 L 127.2813,491 c 0,0 -4.92982,10.11636 -9.3125,22.03125 -2.19134,5.95744 -4.24719,12.38283 -5.5,18.28125 -1.25281,5.89842 -1.78798,11.22106 -0.5,15.40625 0.71302,2.31759 2.25474,5.80834 4.1875,8.90625 0.96638,1.54896 2.02527,2.97958 3.21875,4.125 1.19348,1.14542 2.58089,2.125 4.375,2.125 l 19.75,0 2.0625,0 -0.0625,-2.03125 c 0,0 -0.0737,-3.98748 -2.09375,-8.03125 -1.71635,-3.43582 -5.24302,-6.84507 -10.84375,-7.84375 1.60954,-3.09689 5.52836,-10.63409 10.21875,-19.84375 2.63744,-5.17866 5.25011,-10.38441 7.28125,-14.53125 1.01557,-2.07342 1.90626,-3.88431 2.5625,-5.3125 0.57271,-1.2464 0.90996,-2.00679 1.15625,-2.75 0.1197,-0.0699 0.34491,-0.20028 0.75,-0.34375 0.90677,-0.32116 2.39173,-0.67993 4.25,-1.125 3.71654,-0.89013 8.98674,-2.13982 15.09375,-4.40625 11.8715,-4.40574 26.98034,-12.86853 40.6875,-30.40625 0.24938,0.18745 0.40255,0.28927 0.71875,0.53125 1.43728,1.09992 3.53232,2.73218 6.15625,4.65625 5.24785,3.84814 12.627,8.87773 21.28125,13.46875 16.63302,8.8237 38.12944,15.91665 58.40625,9.09375 0.2514,1.84126 0.52325,4.26987 0.6875,8.28125 0.20642,5.04116 0.30975,11.15333 0.375,17.0625 0.1305,11.81834 0.0625,22.78125 0.0625,22.78125 l 0,0.0937 0,0.0625 c 0,0 0.28288,4.83715 1.78125,9.78125 0.74919,2.47205 1.78219,5.00142 3.40625,7.0625 1.62406,2.06108 4.02132,3.65625 6.96875,3.65625 l 18.09375,0 2,0 0,-2 c 0,0 -0.007,-3.59797 -1.59375,-7.40625 -1.40464,-3.37063 -4.46518,-6.93237 -9.5625,-8.1875 0.11211,-1.30829 0.43744,-5.3766 1.125,-11.09375 0.39507,-3.28505 0.87758,-6.67753 1.375,-9.40625 0.24871,-1.36436 0.50147,-2.55474 0.75,-3.46875 0.24853,-0.91401 0.55334,-1.58001 0.5625,-1.59375 2.1324,-3.20095 15.17511,-21.52381 36.71875,-64.8125 11.72139,-23.56053 25.31853,-38.81423 38.21875,-46.71875 15.54895,-0.20641 32.56958,-3.90049 38.8125,-5.375 0.0366,-0.009 0.15168,-0.0228 0.1875,-0.0312 l 0.5625,-0.0625 c 1.05073,2.11878 2.03125,4.21875 2.03125,4.21875 l 0.53125,1.25 1.34375,0 c 32.44443,0 52.53873,-7.6367 64.53125,-15.40625 5.99626,-3.88478 9.96143,-7.8102 12.4375,-10.78125 2.47607,-2.97105 3.53125,-5.125 3.53125,-5.125 l 0.6875,-1.46875 -1.28125,-0.96875 c -33.93732,-26.06379 -83.9973,-41.43237 -92.9375,-44.0625 4.97317,-7.65123 14.96875,-16.4375 14.96875,-16.4375 l -1.6875,-3.5 z m -6.78125,5.90625 c -3.95959,3.85013 -8.59147,8.84767 -11.4375,14.1875 l -1.15625,2.1875 2.375,0.6875 c 3.51034,1.00364 57.58431,16.9076 92.65625,43.125 -0.38008,0.6654 -0.51359,1.08521 -2.03125,2.90625 -2.23759,2.68489 -5.88738,6.34353 -11.53125,10 -11.13228,7.21223 -30.05392,14.51785 -61.09375,14.71875 -0.31948,-0.73909 -0.76969,-1.81506 -2.21875,-4.5625 l -0.65625,-1.21875 -1.375,0.1875 -2.21875,0.3125 -0.0937,0 -0.0937,0.0312 c -6.07799,1.43913 -23.42877,5.18025 -38.5625,5.3125 l -0.125,0 -0.125,0.0312 -0.21875,0.0312 -0.40625,0.0625 -0.375,0.1875 c -13.90196,8.3881 -27.99588,24.3393 -40.0625,48.59375 -21.45836,43.11731 -34.0519,60.79395 -36.4375,64.375 -0.55559,0.83326 -0.82887,1.69222 -1.125,2.78125 -0.29613,1.08903 -0.55107,2.37833 -0.8125,3.8125 -0.52287,2.86834 -1.00569,6.2943 -1.40625,9.625 -0.80112,6.6614 -1.3125,12.875 -1.3125,12.875 l -0.15625,1.96875 1.96875,0.1875 c 4.89481,0.48948 6.98077,3.31053 8.21875,6.28125 0.58975,1.41519 0.86465,2.76707 1.03125,3.84375 l -15.84375,0 c -1.57257,0 -2.71343,-0.69052 -3.84375,-2.125 -1.13032,-1.43448 -2.05544,-3.5613 -2.71875,-5.75 -1.29636,-4.27753 -1.58061,-8.55235 -1.59375,-8.75 0,0 0.0685,-11.01109 -0.0625,-22.875 -0.0655,-5.93196 -0.19698,-12.07675 -0.40625,-17.1875 -0.20927,-5.11075 -0.41832,-8.98479 -0.96875,-11.1875 l -0.5625,-2.21875 -2.125,0.84375 c -19.29372,7.64027 -40.70924,0.76771 -57.53125,-8.15625 -8.411,-4.46198 -15.62754,-9.37714 -20.78125,-13.15625 -2.57685,-1.88955 -4.63702,-3.5102 -6.09375,-4.625 -0.72836,-0.5574 -1.32619,-0.99443 -1.78125,-1.3125 -0.22753,-0.15903 -0.40123,-0.27003 -0.65625,-0.40625 -0.12751,-0.0681 -0.24367,-0.13605 -0.5625,-0.21875 -0.15941,-0.0414 -0.36937,-0.10299 -0.75,-0.0625 -0.38063,0.0405 -1.01835,0.26607 -1.40625,0.78125 -13.51978,17.9339 -28.40302,26.1926 -40.09375,30.53125 -5.84537,2.16932 -10.88633,3.35457 -14.625,4.25 -1.86934,0.44772 -3.4084,0.80803 -4.65625,1.25 -0.62393,0.22098 -1.17935,0.45538 -1.71875,0.8125 -0.5394,0.35712 -1.1214,0.9249 -1.375,1.8125 -0.0354,0.12408 -0.4925,1.21722 -1.125,2.59375 -0.6325,1.37653 -1.4616,3.16251 -2.46875,5.21875 -2.0143,4.11247 -4.64894,9.30016 -7.28125,14.46875 -5.26462,10.33719 -10.59757,20.60682 -11.46875,22.28125 l -1.53125,2.9375 3.28125,0 c 6.1214,0 8.77681,2.92577 10.34375,6.0625 0.77162,1.54463 1.15059,3.09588 1.375,4.28125 l -17.46875,0 c -0.13839,0 -0.80832,-0.21621 -1.625,-1 -0.81668,-0.78379 -1.74,-2.00658 -2.59375,-3.375 -1.70749,-2.73684 -3.15777,-6.11409 -3.71875,-7.9375 -0.88302,-2.86931 -0.62687,-7.83777 0.5625,-13.4375 1.18937,-5.59973 3.22459,-11.87257 5.375,-17.71875 4.27096,-11.61118 9.02717,-21.42545 9.09375,-21.5625 4.7e-4,-9.6e-4 0.0312,-0.0937 0.0312,-0.0937 0.29803,-0.42299 7.68634,-10.93274 9.9375,-22.1875 0.71512,-3.57778 1.45373,-10.66267 3.4375,-19.3125 1.98377,-8.64983 5.19428,-18.73632 10.6875,-27.8125 l 1.8125,-3 -3.5,-0.0312 c -31.32173,-0.20149 -47.82979,-4.01133 -56.28125,-7.59375 -3.1418,-1.33175 -4.923151,-2.54041 -6.21875,-3.59375 l 75.375,0 0.71875,0 0.5625,-0.46875 c 5.79507,-4.77632 12.9288,-8.48806 21.8125,-10.4375 22.07996,-4.84745 52.89046,-8.5515 80.375,-11.625 27.48454,-3.0735 51.40947,-5.44314 60.8125,-7.9375 18.20011,-4.83187 29.0582,-14.93494 38.09375,-23.25 7.8992,-7.26469 17.00872,-19.55071 36.25,-23.3125 l 0.71875,-0.15625 0.4375,-0.53125 c 4.66869,-5.57305 14.91392,-10.37371 23.9375,-13.5 3.51808,-1.21887 6.44142,-1.99943 9.1875,-2.75 z"
       id="path3296"
       inkscape:connector-curvature="0" />
  </g>
</svg>
